<?xml version="1.0" encoding="UTF-8" standalone="no"?><svg xmlns="http://www.w3.org/2000/svg" xmlns:xlink="http://www.w3.org/1999/xlink" clip-rule="evenodd" stroke-miterlimit="10" viewBox="0 0 1920 1080"><desc>SVG generated by Keynote</desc><defs></defs><g transform="matrix(1.00, 0.00, -0.00, -1.00, 0.0, 1080.0)"><path d="M 0.0 1080.0 L 1920.0 1080.0 L 1920.0 0.0 L 0.0 0.0 Z M 0.0 1080.0 " fill="#FEFFFF"></path><text xml:space="preserve" font-family="MaisonNeue-Demi,Maison Neue" font-weight="bold" font-size="200.0" fill="#3BB77E" transform="matrix(1.00, 0.00, -0.00, -1.00, 386.4, 585.0)">K</text><text xml:space="preserve" font-family="MaisonNeue-Demi,Maison Neue" font-weight="bold" font-size="200.0" fill="#3BB77E" transform="matrix(1.00, 0.00, -0.00, -1.00, 510.8, 585.0)">F</text><text xml:space="preserve" font-family="MaisonNeue-Demi,Maison Neue" font-weight="bold" font-size="200.0" fill="#3BB77E" transform="matrix(1.00, 0.00, -0.00, -1.00, 621.2, 585.0)">C</text><text xml:space="preserve" font-family="MaisonNeue-Demi,Maison Neue" font-weight="bold" font-size="200.0" fill="#3BB77E" transform="matrix(1.00, 0.00, -0.00, -1.00, 754.0, 585.0)">?</text><text xml:space="preserve" font-family="MaisonNeue-Demi,Maison Neue" font-weight="bold" font-size="200.0" fill="#3BB77E" transform="matrix(1.00, 0.00, -0.00, -1.00, 859.8, 585.0)"> </text><text xml:space="preserve" font-family="MaisonNeue-Demi,Maison Neue" font-weight="bold" font-size="200.0" fill="#3BB77E" transform="matrix(1.00, 0.00, -0.00, -1.00, 909.8, 585.0)">A</text><text xml:space="preserve" font-family="MaisonNeue-Demi,Maison Neue" font-weight="bold" font-size="200.0" fill="#3BB77E" transform="matrix(1.00, 0.00, -0.00, -1.00, 1033.8, 585.0)">B</text><text xml:space="preserve" font-family="MaisonNeue-Demi,Maison Neue" font-weight="bold" font-size="200.0" fill="#3BB77E" transform="matrix(1.00, 0.00, -0.00, -1.00, 1163.6, 585.0)">C</text><text xml:space="preserve" font-family="MaisonNeue-Demi,Maison Neue" font-weight="bold" font-size="200.0" fill="#3BB77E" transform="matrix(1.00, 0.00, -0.00, -1.00, 1296.4, 585.0)">D</text><text xml:space="preserve" font-family="MaisonNeue-Demi,Maison Neue" font-weight="bold" font-size="200.0" fill="#3BB77E" transform="matrix(1.00, 0.00, -0.00, -1.00, 1427.8, 585.0)">?</text><text xml:space="preserve" font-family="MaisonNeue-Demi,Maison Neue" font-weight="bold" font-size="200.0" fill="#3BB77E" transform="matrix(1.00, 0.00, -0.00, -1.00, 1533.6, 585.0)"> </text><text xml:space="preserve" font-family="MaisonNeue-Demi,Maison Neue" font-weight="bold" font-size="200.0" fill="#3BB77E" transform="matrix(1.00, 0.00, -0.00, -1.00, 723.2, 345.0)">H</text><text xml:space="preserve" font-family="MaisonNeue-Demi,Maison Neue" font-weight="bold" font-size="200.0" fill="#3BB77E" transform="matrix(1.00, 0.00, -0.00, -1.00, 857.2, 345.0)">u</text><text xml:space="preserve" font-family="MaisonNeue-Demi,Maison Neue" font-weight="bold" font-size="200.0" fill="#3BB77E" transform="matrix(1.00, 0.00, -0.00, -1.00, 972.2, 345.0)">h</text><text xml:space="preserve" font-family="MaisonNeue-Demi,Maison Neue" font-weight="bold" font-size="200.0" fill="#3BB77E" transform="matrix(1.00, 0.00, -0.00, -1.00, 1091.0, 345.0)">?</text></g></svg>