<?xml version="1.0" encoding="UTF-8" standalone="no"?><svg xmlns="http://www.w3.org/2000/svg" xmlns:xlink="http://www.w3.org/1999/xlink" clip-rule="evenodd" stroke-miterlimit="10" viewBox="0 0 1279 82"><desc>SVG generated by Keynote</desc><defs></defs><g transform="matrix(1.00, 0.00, -0.00, -1.00, 0.0, 82.0)"><text xml:space="preserve" font-family="MaisonNeue-Demi,Maison Neue" font-weight="bold" font-size="80.0" fill="#3BB77E" transform="matrix(1.00, 0.00, -0.00, -1.00, -5.4, 21.5)">I</text><text xml:space="preserve" font-family="MaisonNeue-Demi,Maison Neue" font-weight="bold" font-size="80.0" fill="#3BB77E" transform="matrix(1.00, 0.00, -0.00, -1.00, 18.4, 21.5)">’</text><text xml:space="preserve" font-family="MaisonNeue-Demi,Maison Neue" font-weight="bold" font-size="80.0" fill="#3BB77E" transform="matrix(1.00, 0.00, -0.00, -1.00, 43.1, 21.5)">m</text><text xml:space="preserve" font-family="MaisonNeue-Demi,Maison Neue" font-weight="bold" font-size="80.0" fill="#3BB77E" transform="matrix(1.00, 0.00, -0.00, -1.00, 111.9, 21.5)"> </text><text xml:space="preserve" font-family="MaisonNeue-Demi,Maison Neue" font-weight="bold" font-size="80.0" fill="#3BB77E" transform="matrix(1.00, 0.00, -0.00, -1.00, 131.9, 21.5)">a</text><text xml:space="preserve" font-family="MaisonNeue-Demi,Maison Neue" font-weight="bold" font-size="80.0" fill="#3BB77E" transform="matrix(1.00, 0.00, -0.00, -1.00, 175.2, 21.5)">n</text><text xml:space="preserve" font-family="MaisonNeue-Demi,Maison Neue" font-weight="bold" font-size="80.0" fill="#3BB77E" transform="matrix(1.00, 0.00, -0.00, -1.00, 222.3, 21.5)"> </text><text xml:space="preserve" font-family="MaisonNeue-Demi,Maison Neue" font-weight="bold" font-size="80.0" fill="#3BB77E" transform="matrix(1.00, 0.00, -0.00, -1.00, 242.3, 21.5)">e</text><text xml:space="preserve" font-family="MaisonNeue-Demi,Maison Neue" font-weight="bold" font-size="80.0" fill="#3BB77E" transform="matrix(1.00, 0.00, -0.00, -1.00, 287.5, 21.5)">n</text><text xml:space="preserve" font-family="MaisonNeue-Demi,Maison Neue" font-weight="bold" font-size="80.0" fill="#3BB77E" transform="matrix(1.00, 0.00, -0.00, -1.00, 334.6, 21.5)">g</text><text xml:space="preserve" font-family="MaisonNeue-Demi,Maison Neue" font-weight="bold" font-size="80.0" fill="#3BB77E" transform="matrix(1.00, 0.00, -0.00, -1.00, 382.7, 21.5)">i</text><text xml:space="preserve" font-family="MaisonNeue-Demi,Maison Neue" font-weight="bold" font-size="80.0" fill="#3BB77E" transform="matrix(1.00, 0.00, -0.00, -1.00, 404.2, 21.5)">n</text><text xml:space="preserve" font-family="MaisonNeue-Demi,Maison Neue" font-weight="bold" font-size="80.0" fill="#3BB77E" transform="matrix(1.00, 0.00, -0.00, -1.00, 451.3, 21.5)">e</text><text xml:space="preserve" font-family="MaisonNeue-Demi,Maison Neue" font-weight="bold" font-size="80.0" fill="#3BB77E" transform="matrix(1.00, 0.00, -0.00, -1.00, 496.5, 21.5)">e</text><text xml:space="preserve" font-family="MaisonNeue-Demi,Maison Neue" font-weight="bold" font-size="80.0" fill="#3BB77E" transform="matrix(1.00, 0.00, -0.00, -1.00, 541.7, 21.5)">r</text><text xml:space="preserve" font-family="MaisonNeue-Demi,Maison Neue" font-weight="bold" font-size="80.0" fill="#3BB77E" transform="matrix(1.00, 0.00, -0.00, -1.00, 570.6, 21.5)">!</text><text xml:space="preserve" font-family="MaisonNeue-Demi,Maison Neue" font-weight="bold" font-size="80.0" fill="#3BB77E" transform="matrix(1.00, 0.00, -0.00, -1.00, 597.0, 21.5)"> </text><text xml:space="preserve" font-family="MaisonNeue-Demi,Maison Neue" font-weight="bold" font-size="80.0" fill="#3BB77E" transform="matrix(1.00, 0.00, -0.00, -1.00, 617.0, 21.5)">W</text><text xml:space="preserve" font-family="MaisonNeue-Demi,Maison Neue" font-weight="bold" font-size="80.0" fill="#3BB77E" transform="matrix(1.00, 0.00, -0.00, -1.00, 689.0, 21.5)">h</text><text xml:space="preserve" font-family="MaisonNeue-Demi,Maison Neue" font-weight="bold" font-size="80.0" fill="#3BB77E" transform="matrix(1.00, 0.00, -0.00, -1.00, 736.5, 21.5)">a</text><text xml:space="preserve" font-family="MaisonNeue-Demi,Maison Neue" font-weight="bold" font-size="80.0" fill="#3BB77E" transform="matrix(1.00, 0.00, -0.00, -1.00, 779.8, 21.5)">t</text><text xml:space="preserve" font-family="MaisonNeue-Demi,Maison Neue" font-weight="bold" font-size="80.0" fill="#3BB77E" transform="matrix(1.00, 0.00, -0.00, -1.00, 810.1, 21.5)"> </text><text xml:space="preserve" font-family="MaisonNeue-Demi,Maison Neue" font-weight="bold" font-size="80.0" fill="#3BB77E" transform="matrix(1.00, 0.00, -0.00, -1.00, 830.1, 21.5)">s</text><text xml:space="preserve" font-family="MaisonNeue-Demi,Maison Neue" font-weight="bold" font-size="80.0" fill="#3BB77E" transform="matrix(1.00, 0.00, -0.00, -1.00, 871.4, 21.5)">h</text><text xml:space="preserve" font-family="MaisonNeue-Demi,Maison Neue" font-weight="bold" font-size="80.0" fill="#3BB77E" transform="matrix(1.00, 0.00, -0.00, -1.00, 919.0, 21.5)">o</text><text xml:space="preserve" font-family="MaisonNeue-Demi,Maison Neue" font-weight="bold" font-size="80.0" fill="#3BB77E" transform="matrix(1.00, 0.00, -0.00, -1.00, 964.6, 21.5)">u</text><text xml:space="preserve" font-family="MaisonNeue-Demi,Maison Neue" font-weight="bold" font-size="80.0" fill="#3BB77E" transform="matrix(1.00, 0.00, -0.00, -1.00, 1010.6, 21.5)">l</text><text xml:space="preserve" font-family="MaisonNeue-Demi,Maison Neue" font-weight="bold" font-size="80.0" fill="#3BB77E" transform="matrix(1.00, 0.00, -0.00, -1.00, 1032.0, 21.5)">d</text><text xml:space="preserve" font-family="MaisonNeue-Demi,Maison Neue" font-weight="bold" font-size="80.0" fill="#3BB77E" transform="matrix(1.00, 0.00, -0.00, -1.00, 1079.8, 21.5)"> </text><text xml:space="preserve" font-family="MaisonNeue-Demi,Maison Neue" font-weight="bold" font-size="80.0" fill="#3BB77E" transform="matrix(1.00, 0.00, -0.00, -1.00, 1099.8, 21.5)">I</text><text xml:space="preserve" font-family="MaisonNeue-Demi,Maison Neue" font-weight="bold" font-size="80.0" fill="#3BB77E" transform="matrix(1.00, 0.00, -0.00, -1.00, 1123.7, 21.5)"> </text><text xml:space="preserve" font-family="MaisonNeue-Demi,Maison Neue" font-weight="bold" font-size="80.0" fill="#3BB77E" transform="matrix(1.00, 0.00, -0.00, -1.00, 1143.7, 21.5)">d</text><text xml:space="preserve" font-family="MaisonNeue-Demi,Maison Neue" font-weight="bold" font-size="80.0" fill="#3BB77E" transform="matrix(1.00, 0.00, -0.00, -1.00, 1191.5, 21.5)">o</text><text xml:space="preserve" font-family="MaisonNeue-Demi,Maison Neue" font-weight="bold" font-size="80.0" fill="#3BB77E" transform="matrix(1.00, 0.00, -0.00, -1.00, 1237.1, 21.5)">?</text></g></svg>