<?xml version="1.0" encoding="UTF-8" standalone="no"?><svg xmlns="http://www.w3.org/2000/svg" xmlns:xlink="http://www.w3.org/1999/xlink" clip-rule="evenodd" stroke-miterlimit="10" viewBox="0 0 1920 1080"><desc>SVG generated by Keynote</desc><defs></defs><g transform="matrix(1.00, 0.00, -0.00, -1.00, 0.0, 1080.0)"><path d="M 0.0 1080.0 L 1920.0 1080.0 L 1920.0 0.0 L 0.0 0.0 Z M 0.0 1080.0 " fill="#FEFFFF"></path><text xml:space="preserve" font-family="MaisonNeue-Demi,Maison Neue" font-weight="bold" font-size="80.0" fill="#3BB77E" transform="matrix(1.00, 0.00, -0.00, -1.00, 317.6, 919.5)">I</text><text xml:space="preserve" font-family="MaisonNeue-Demi,Maison Neue" font-weight="bold" font-size="80.0" fill="#3BB77E" transform="matrix(1.00, 0.00, -0.00, -1.00, 341.4, 919.5)">’</text><text xml:space="preserve" font-family="MaisonNeue-Demi,Maison Neue" font-weight="bold" font-size="80.0" fill="#3BB77E" transform="matrix(1.00, 0.00, -0.00, -1.00, 366.1, 919.5)">m</text><text xml:space="preserve" font-family="MaisonNeue-Demi,Maison Neue" font-weight="bold" font-size="80.0" fill="#3BB77E" transform="matrix(1.00, 0.00, -0.00, -1.00, 434.9, 919.5)"> </text><text xml:space="preserve" font-family="MaisonNeue-Demi,Maison Neue" font-weight="bold" font-size="80.0" fill="#3BB77E" transform="matrix(1.00, 0.00, -0.00, -1.00, 454.9, 919.5)">a</text><text xml:space="preserve" font-family="MaisonNeue-Demi,Maison Neue" font-weight="bold" font-size="80.0" fill="#3BB77E" transform="matrix(1.00, 0.00, -0.00, -1.00, 498.2, 919.5)">n</text><text xml:space="preserve" font-family="MaisonNeue-Demi,Maison Neue" font-weight="bold" font-size="80.0" fill="#3BB77E" transform="matrix(1.00, 0.00, -0.00, -1.00, 545.3, 919.5)"> </text><text xml:space="preserve" font-family="MaisonNeue-Demi,Maison Neue" font-weight="bold" font-size="80.0" fill="#3BB77E" transform="matrix(1.00, 0.00, -0.00, -1.00, 565.3, 919.5)">e</text><text xml:space="preserve" font-family="MaisonNeue-Demi,Maison Neue" font-weight="bold" font-size="80.0" fill="#3BB77E" transform="matrix(1.00, 0.00, -0.00, -1.00, 610.5, 919.5)">n</text><text xml:space="preserve" font-family="MaisonNeue-Demi,Maison Neue" font-weight="bold" font-size="80.0" fill="#3BB77E" transform="matrix(1.00, 0.00, -0.00, -1.00, 657.6, 919.5)">g</text><text xml:space="preserve" font-family="MaisonNeue-Demi,Maison Neue" font-weight="bold" font-size="80.0" fill="#3BB77E" transform="matrix(1.00, 0.00, -0.00, -1.00, 705.7, 919.5)">i</text><text xml:space="preserve" font-family="MaisonNeue-Demi,Maison Neue" font-weight="bold" font-size="80.0" fill="#3BB77E" transform="matrix(1.00, 0.00, -0.00, -1.00, 727.2, 919.5)">n</text><text xml:space="preserve" font-family="MaisonNeue-Demi,Maison Neue" font-weight="bold" font-size="80.0" fill="#3BB77E" transform="matrix(1.00, 0.00, -0.00, -1.00, 774.3, 919.5)">e</text><text xml:space="preserve" font-family="MaisonNeue-Demi,Maison Neue" font-weight="bold" font-size="80.0" fill="#3BB77E" transform="matrix(1.00, 0.00, -0.00, -1.00, 819.5, 919.5)">e</text><text xml:space="preserve" font-family="MaisonNeue-Demi,Maison Neue" font-weight="bold" font-size="80.0" fill="#3BB77E" transform="matrix(1.00, 0.00, -0.00, -1.00, 864.7, 919.5)">r</text><text xml:space="preserve" font-family="MaisonNeue-Demi,Maison Neue" font-weight="bold" font-size="80.0" fill="#3BB77E" transform="matrix(1.00, 0.00, -0.00, -1.00, 893.6, 919.5)">!</text><text xml:space="preserve" font-family="MaisonNeue-Demi,Maison Neue" font-weight="bold" font-size="80.0" fill="#3BB77E" transform="matrix(1.00, 0.00, -0.00, -1.00, 920.0, 919.5)"> </text><text xml:space="preserve" font-family="MaisonNeue-Demi,Maison Neue" font-weight="bold" font-size="80.0" fill="#3BB77E" transform="matrix(1.00, 0.00, -0.00, -1.00, 940.0, 919.5)">W</text><text xml:space="preserve" font-family="MaisonNeue-Demi,Maison Neue" font-weight="bold" font-size="80.0" fill="#3BB77E" transform="matrix(1.00, 0.00, -0.00, -1.00, 1012.0, 919.5)">h</text><text xml:space="preserve" font-family="MaisonNeue-Demi,Maison Neue" font-weight="bold" font-size="80.0" fill="#3BB77E" transform="matrix(1.00, 0.00, -0.00, -1.00, 1059.5, 919.5)">a</text><text xml:space="preserve" font-family="MaisonNeue-Demi,Maison Neue" font-weight="bold" font-size="80.0" fill="#3BB77E" transform="matrix(1.00, 0.00, -0.00, -1.00, 1102.8, 919.5)">t</text><text xml:space="preserve" font-family="MaisonNeue-Demi,Maison Neue" font-weight="bold" font-size="80.0" fill="#3BB77E" transform="matrix(1.00, 0.00, -0.00, -1.00, 1133.1, 919.5)"> </text><text xml:space="preserve" font-family="MaisonNeue-Demi,Maison Neue" font-weight="bold" font-size="80.0" fill="#3BB77E" transform="matrix(1.00, 0.00, -0.00, -1.00, 1153.1, 919.5)">s</text><text xml:space="preserve" font-family="MaisonNeue-Demi,Maison Neue" font-weight="bold" font-size="80.0" fill="#3BB77E" transform="matrix(1.00, 0.00, -0.00, -1.00, 1194.4, 919.5)">h</text><text xml:space="preserve" font-family="MaisonNeue-Demi,Maison Neue" font-weight="bold" font-size="80.0" fill="#3BB77E" transform="matrix(1.00, 0.00, -0.00, -1.00, 1242.0, 919.5)">o</text><text xml:space="preserve" font-family="MaisonNeue-Demi,Maison Neue" font-weight="bold" font-size="80.0" fill="#3BB77E" transform="matrix(1.00, 0.00, -0.00, -1.00, 1287.6, 919.5)">u</text><text xml:space="preserve" font-family="MaisonNeue-Demi,Maison Neue" font-weight="bold" font-size="80.0" fill="#3BB77E" transform="matrix(1.00, 0.00, -0.00, -1.00, 1333.6, 919.5)">l</text><text xml:space="preserve" font-family="MaisonNeue-Demi,Maison Neue" font-weight="bold" font-size="80.0" fill="#3BB77E" transform="matrix(1.00, 0.00, -0.00, -1.00, 1355.0, 919.5)">d</text><text xml:space="preserve" font-family="MaisonNeue-Demi,Maison Neue" font-weight="bold" font-size="80.0" fill="#3BB77E" transform="matrix(1.00, 0.00, -0.00, -1.00, 1402.8, 919.5)"> </text><text xml:space="preserve" font-family="MaisonNeue-Demi,Maison Neue" font-weight="bold" font-size="80.0" fill="#3BB77E" transform="matrix(1.00, 0.00, -0.00, -1.00, 1422.8, 919.5)">I</text><text xml:space="preserve" font-family="MaisonNeue-Demi,Maison Neue" font-weight="bold" font-size="80.0" fill="#3BB77E" transform="matrix(1.00, 0.00, -0.00, -1.00, 1446.7, 919.5)"> </text><text xml:space="preserve" font-family="MaisonNeue-Demi,Maison Neue" font-weight="bold" font-size="80.0" fill="#3BB77E" transform="matrix(1.00, 0.00, -0.00, -1.00, 1466.7, 919.5)">d</text><text xml:space="preserve" font-family="MaisonNeue-Demi,Maison Neue" font-weight="bold" font-size="80.0" fill="#3BB77E" transform="matrix(1.00, 0.00, -0.00, -1.00, 1514.5, 919.5)">o</text><text xml:space="preserve" font-family="MaisonNeue-Demi,Maison Neue" font-weight="bold" font-size="80.0" fill="#3BB77E" transform="matrix(1.00, 0.00, -0.00, -1.00, 1560.1, 919.5)">?</text><text xml:space="preserve" font-family="MaisonNeue-Demi,Maison Neue" font-weight="bold" font-size="79.2" fill="#000000" transform="matrix(1.00, 0.00, -0.00, -1.00, 290.6, 717.5)">1</text><text xml:space="preserve" font-family="MaisonNeue-Demi,Maison Neue" font-weight="bold" font-size="79.2" fill="#000000" transform="matrix(1.00, 0.00, -0.00, -1.00, 327.7, 717.5)">.</text><text xml:space="preserve" font-family="MaisonNeue-Demi,Maison Neue" font-weight="bold" font-size="79.2" fill="#000000" transform="matrix(1.00, 0.00, -0.00, -1.00, 397.2, 717.5)">M</text><text xml:space="preserve" font-family="MaisonNeue-Demi,Maison Neue" font-weight="bold" font-size="79.2" fill="#000000" transform="matrix(1.00, 0.00, -0.00, -1.00, 465.6, 717.5)">H</text><text xml:space="preserve" font-family="MaisonNeue-Demi,Maison Neue" font-weight="bold" font-size="79.2" fill="#000000" transform="matrix(1.00, 0.00, -0.00, -1.00, 518.6, 717.5)">a</text><text xml:space="preserve" font-family="MaisonNeue-Demi,Maison Neue" font-weight="bold" font-size="79.2" fill="#000000" transform="matrix(1.00, 0.00, -0.00, -1.00, 561.5, 717.5)">c</text><text xml:space="preserve" font-family="MaisonNeue-Demi,Maison Neue" font-weight="bold" font-size="79.2" fill="#000000" transform="matrix(1.00, 0.00, -0.00, -1.00, 604.6, 717.5)">k</text><text xml:space="preserve" font-family="MaisonNeue-Demi,Maison Neue" font-weight="bold" font-size="79.2" fill="#000000" transform="matrix(1.00, 0.00, -0.00, -1.00, 649.3, 717.5)">s</text><text xml:space="preserve" font-family="MaisonNeue-Demi,Maison Neue" font-weight="bold" font-size="79.2" fill="#000000" transform="matrix(1.00, 0.00, -0.00, -1.00, 690.2, 717.5)"> </text><text xml:space="preserve" font-family="MaisonNeue-Demi,Maison Neue" font-weight="bold" font-size="79.2" fill="#000000" transform="matrix(1.00, 0.00, -0.00, -1.00, 710.0, 717.5)">(</text><text xml:space="preserve" font-family="MaisonNeue-Demi,Maison Neue" font-weight="bold" font-size="79.2" fill="#000000" transform="matrix(1.00, 0.00, -0.00, -1.00, 740.0, 717.5)">o</text><text xml:space="preserve" font-family="MaisonNeue-Demi,Maison Neue" font-weight="bold" font-size="79.2" fill="#000000" transform="matrix(1.00, 0.00, -0.00, -1.00, 785.1, 717.5)">r</text><text xml:space="preserve" font-family="MaisonNeue-Demi,Maison Neue" font-weight="bold" font-size="79.2" fill="#000000" transform="matrix(1.00, 0.00, -0.00, -1.00, 813.8, 717.5)"> </text><text xml:space="preserve" font-family="MaisonNeue-Demi,Maison Neue" font-weight="bold" font-size="79.2" fill="#000000" transform="matrix(1.00, 0.00, -0.00, -1.00, 833.6, 717.5)">s</text><text xml:space="preserve" font-family="MaisonNeue-Demi,Maison Neue" font-weight="bold" font-size="79.2" fill="#000000" transform="matrix(1.00, 0.00, -0.00, -1.00, 874.5, 717.5)">o</text><text xml:space="preserve" font-family="MaisonNeue-Demi,Maison Neue" font-weight="bold" font-size="79.2" fill="#000000" transform="matrix(1.00, 0.00, -0.00, -1.00, 919.7, 717.5)">m</text><text xml:space="preserve" font-family="MaisonNeue-Demi,Maison Neue" font-weight="bold" font-size="79.2" fill="#000000" transform="matrix(1.00, 0.00, -0.00, -1.00, 987.8, 717.5)">e</text><text xml:space="preserve" font-family="MaisonNeue-Demi,Maison Neue" font-weight="bold" font-size="79.2" fill="#000000" transform="matrix(1.00, 0.00, -0.00, -1.00, 1032.5, 717.5)"> </text><text xml:space="preserve" font-family="MaisonNeue-Demi,Maison Neue" font-weight="bold" font-size="79.2" fill="#000000" transform="matrix(1.00, 0.00, -0.00, -1.00, 1052.3, 717.5)">k</text><text xml:space="preserve" font-family="MaisonNeue-Demi,Maison Neue" font-weight="bold" font-size="79.2" fill="#000000" transform="matrix(1.00, 0.00, -0.00, -1.00, 1097.0, 717.5)">i</text><text xml:space="preserve" font-family="MaisonNeue-Demi,Maison Neue" font-weight="bold" font-size="79.2" fill="#000000" transform="matrix(1.00, 0.00, -0.00, -1.00, 1118.2, 717.5)">n</text><text xml:space="preserve" font-family="MaisonNeue-Demi,Maison Neue" font-weight="bold" font-size="79.2" fill="#000000" transform="matrix(1.00, 0.00, -0.00, -1.00, 1164.9, 717.5)">d</text><text xml:space="preserve" font-family="MaisonNeue-Demi,Maison Neue" font-weight="bold" font-size="79.2" fill="#000000" transform="matrix(1.00, 0.00, -0.00, -1.00, 1212.3, 717.5)"> </text><text xml:space="preserve" font-family="MaisonNeue-Demi,Maison Neue" font-weight="bold" font-size="79.2" fill="#000000" transform="matrix(1.00, 0.00, -0.00, -1.00, 1232.1, 717.5)">o</text><text xml:space="preserve" font-family="MaisonNeue-Demi,Maison Neue" font-weight="bold" font-size="79.2" fill="#000000" transform="matrix(1.00, 0.00, -0.00, -1.00, 1277.2, 717.5)">f</text><text xml:space="preserve" font-family="MaisonNeue-Demi,Maison Neue" font-weight="bold" font-size="79.2" fill="#000000" transform="matrix(1.00, 0.00, -0.00, -1.00, 1304.8, 717.5)"> </text><text xml:space="preserve" font-family="MaisonNeue-Demi,Maison Neue" font-weight="bold" font-size="79.2" fill="#000000" transform="matrix(1.00, 0.00, -0.00, -1.00, 397.2, 575.0)">h</text><text xml:space="preserve" font-family="MaisonNeue-Demi,Maison Neue" font-weight="bold" font-size="79.2" fill="#000000" transform="matrix(1.00, 0.00, -0.00, -1.00, 444.3, 575.0)">a</text><text xml:space="preserve" font-family="MaisonNeue-Demi,Maison Neue" font-weight="bold" font-size="79.2" fill="#000000" transform="matrix(1.00, 0.00, -0.00, -1.00, 487.1, 575.0)">c</text><text xml:space="preserve" font-family="MaisonNeue-Demi,Maison Neue" font-weight="bold" font-size="79.2" fill="#000000" transform="matrix(1.00, 0.00, -0.00, -1.00, 530.3, 575.0)">k</text><text xml:space="preserve" font-family="MaisonNeue-Demi,Maison Neue" font-weight="bold" font-size="79.2" fill="#000000" transform="matrix(1.00, 0.00, -0.00, -1.00, 574.9, 575.0)">a</text><text xml:space="preserve" font-family="MaisonNeue-Demi,Maison Neue" font-weight="bold" font-size="79.2" fill="#000000" transform="matrix(1.00, 0.00, -0.00, -1.00, 617.8, 575.0)">t</text><text xml:space="preserve" font-family="MaisonNeue-Demi,Maison Neue" font-weight="bold" font-size="79.2" fill="#000000" transform="matrix(1.00, 0.00, -0.00, -1.00, 647.8, 575.0)">h</text><text xml:space="preserve" font-family="MaisonNeue-Demi,Maison Neue" font-weight="bold" font-size="79.2" fill="#000000" transform="matrix(1.00, 0.00, -0.00, -1.00, 694.8, 575.0)">o</text><text xml:space="preserve" font-family="MaisonNeue-Demi,Maison Neue" font-weight="bold" font-size="79.2" fill="#000000" transform="matrix(1.00, 0.00, -0.00, -1.00, 740.0, 575.0)">n</text><text xml:space="preserve" font-family="MaisonNeue-Demi,Maison Neue" font-weight="bold" font-size="79.2" fill="#000000" transform="matrix(1.00, 0.00, -0.00, -1.00, 786.6, 575.0)">)</text><text xml:space="preserve" font-family="MaisonNeue-Demi,Maison Neue" font-weight="bold" font-size="79.2" fill="#000000" transform="matrix(1.00, 0.00, -0.00, -1.00, 816.6, 575.0)">.</text><text xml:space="preserve" font-family="MaisonNeue-Demi,Maison Neue" font-weight="bold" font-size="79.2" fill="#000000" transform="matrix(1.00, 0.00, -0.00, -1.00, 290.6, 432.5)">2</text><text xml:space="preserve" font-family="MaisonNeue-Demi,Maison Neue" font-weight="bold" font-size="79.2" fill="#000000" transform="matrix(1.00, 0.00, -0.00, -1.00, 336.9, 432.5)">.</text><text xml:space="preserve" font-family="MaisonNeue-Demi,Maison Neue" font-weight="bold" font-size="79.2" fill="#000000" transform="matrix(1.00, 0.00, -0.00, -1.00, 397.2, 432.5)">D</text><text xml:space="preserve" font-family="MaisonNeue-Demi,Maison Neue" font-weight="bold" font-size="79.2" fill="#000000" transform="matrix(1.00, 0.00, -0.00, -1.00, 449.2, 432.5)">o</text><text xml:space="preserve" font-family="MaisonNeue-Demi,Maison Neue" font-weight="bold" font-size="79.2" fill="#000000" transform="matrix(1.00, 0.00, -0.00, -1.00, 494.4, 432.5)"> </text><text xml:space="preserve" font-family="MaisonNeue-Demi,Maison Neue" font-weight="bold" font-size="79.2" fill="#000000" transform="matrix(1.00, 0.00, -0.00, -1.00, 514.2, 432.5)">t</text><text xml:space="preserve" font-family="MaisonNeue-Demi,Maison Neue" font-weight="bold" font-size="79.2" fill="#000000" transform="matrix(1.00, 0.00, -0.00, -1.00, 544.2, 432.5)">h</text><text xml:space="preserve" font-family="MaisonNeue-Demi,Maison Neue" font-weight="bold" font-size="79.2" fill="#000000" transform="matrix(1.00, 0.00, -0.00, -1.00, 591.2, 432.5)">e</text><text xml:space="preserve" font-family="MaisonNeue-Demi,Maison Neue" font-weight="bold" font-size="79.2" fill="#000000" transform="matrix(1.00, 0.00, -0.00, -1.00, 636.0, 432.5)"> </text><text xml:space="preserve" font-family="MaisonNeue-Demi,Maison Neue" font-weight="bold" font-size="79.2" fill="#000000" transform="matrix(1.00, 0.00, -0.00, -1.00, 655.8, 432.5)">o</text><text xml:space="preserve" font-family="MaisonNeue-Demi,Maison Neue" font-weight="bold" font-size="79.2" fill="#000000" transform="matrix(1.00, 0.00, -0.00, -1.00, 700.9, 432.5)">p</text><text xml:space="preserve" font-family="MaisonNeue-Demi,Maison Neue" font-weight="bold" font-size="79.2" fill="#000000" transform="matrix(1.00, 0.00, -0.00, -1.00, 748.9, 432.5)">t</text><text xml:space="preserve" font-family="MaisonNeue-Demi,Maison Neue" font-weight="bold" font-size="79.2" fill="#000000" transform="matrix(1.00, 0.00, -0.00, -1.00, 779.0, 432.5)">i</text><text xml:space="preserve" font-family="MaisonNeue-Demi,Maison Neue" font-weight="bold" font-size="79.2" fill="#000000" transform="matrix(1.00, 0.00, -0.00, -1.00, 800.2, 432.5)">o</text><text xml:space="preserve" font-family="MaisonNeue-Demi,Maison Neue" font-weight="bold" font-size="79.2" fill="#000000" transform="matrix(1.00, 0.00, -0.00, -1.00, 845.3, 432.5)">n</text><text xml:space="preserve" font-family="MaisonNeue-Demi,Maison Neue" font-weight="bold" font-size="79.2" fill="#000000" transform="matrix(1.00, 0.00, -0.00, -1.00, 892.0, 432.5)">a</text><text xml:space="preserve" font-family="MaisonNeue-Demi,Maison Neue" font-weight="bold" font-size="79.2" fill="#000000" transform="matrix(1.00, 0.00, -0.00, -1.00, 934.8, 432.5)">l</text><text xml:space="preserve" font-family="MaisonNeue-Demi,Maison Neue" font-weight="bold" font-size="79.2" fill="#000000" transform="matrix(1.00, 0.00, -0.00, -1.00, 956.0, 432.5)"> </text><text xml:space="preserve" font-family="MaisonNeue-Demi,Maison Neue" font-weight="bold" font-size="79.2" fill="#000000" transform="matrix(1.00, 0.00, -0.00, -1.00, 975.8, 432.5)">c</text><text xml:space="preserve" font-family="MaisonNeue-Demi,Maison Neue" font-weight="bold" font-size="79.2" fill="#000000" transform="matrix(1.00, 0.00, -0.00, -1.00, 1019.0, 432.5)">o</text><text xml:space="preserve" font-family="MaisonNeue-Demi,Maison Neue" font-weight="bold" font-size="79.2" fill="#000000" transform="matrix(1.00, 0.00, -0.00, -1.00, 1064.1, 432.5)">d</text><text xml:space="preserve" font-family="MaisonNeue-Demi,Maison Neue" font-weight="bold" font-size="79.2" fill="#000000" transform="matrix(1.00, 0.00, -0.00, -1.00, 1111.5, 432.5)">i</text><text xml:space="preserve" font-family="MaisonNeue-Demi,Maison Neue" font-weight="bold" font-size="79.2" fill="#000000" transform="matrix(1.00, 0.00, -0.00, -1.00, 1132.7, 432.5)">n</text><text xml:space="preserve" font-family="MaisonNeue-Demi,Maison Neue" font-weight="bold" font-size="79.2" fill="#000000" transform="matrix(1.00, 0.00, -0.00, -1.00, 1179.4, 432.5)">g</text><text xml:space="preserve" font-family="MaisonNeue-Demi,Maison Neue" font-weight="bold" font-size="79.2" fill="#000000" transform="matrix(1.00, 0.00, -0.00, -1.00, 1227.0, 432.5)"> </text><text xml:space="preserve" font-family="MaisonNeue-Demi,Maison Neue" font-weight="bold" font-size="79.2" fill="#000000" transform="matrix(1.00, 0.00, -0.00, -1.00, 1246.8, 432.5)">c</text><text xml:space="preserve" font-family="MaisonNeue-Demi,Maison Neue" font-weight="bold" font-size="79.2" fill="#000000" transform="matrix(1.00, 0.00, -0.00, -1.00, 1289.9, 432.5)">h</text><text xml:space="preserve" font-family="MaisonNeue-Demi,Maison Neue" font-weight="bold" font-size="79.2" fill="#000000" transform="matrix(1.00, 0.00, -0.00, -1.00, 1337.0, 432.5)">a</text><text xml:space="preserve" font-family="MaisonNeue-Demi,Maison Neue" font-weight="bold" font-size="79.2" fill="#000000" transform="matrix(1.00, 0.00, -0.00, -1.00, 1379.8, 432.5)">l</text><text xml:space="preserve" font-family="MaisonNeue-Demi,Maison Neue" font-weight="bold" font-size="79.2" fill="#000000" transform="matrix(1.00, 0.00, -0.00, -1.00, 1401.1, 432.5)">l</text><text xml:space="preserve" font-family="MaisonNeue-Demi,Maison Neue" font-weight="bold" font-size="79.2" fill="#000000" transform="matrix(1.00, 0.00, -0.00, -1.00, 1422.3, 432.5)">e</text><text xml:space="preserve" font-family="MaisonNeue-Demi,Maison Neue" font-weight="bold" font-size="79.2" fill="#000000" transform="matrix(1.00, 0.00, -0.00, -1.00, 1467.0, 432.5)">n</text><text xml:space="preserve" font-family="MaisonNeue-Demi,Maison Neue" font-weight="bold" font-size="79.2" fill="#000000" transform="matrix(1.00, 0.00, -0.00, -1.00, 1513.7, 432.5)">g</text><text xml:space="preserve" font-family="MaisonNeue-Demi,Maison Neue" font-weight="bold" font-size="79.2" fill="#000000" transform="matrix(1.00, 0.00, -0.00, -1.00, 1561.3, 432.5)">e</text><text xml:space="preserve" font-family="MaisonNeue-Demi,Maison Neue" font-weight="bold" font-size="79.2" fill="#000000" transform="matrix(1.00, 0.00, -0.00, -1.00, 1604.5, 432.5)">.</text><text xml:space="preserve" font-family="MaisonNeue-Demi,Maison Neue" font-weight="bold" font-size="79.2" fill="#000000" transform="matrix(1.00, 0.00, -0.00, -1.00, 290.6, 290.0)">3</text><text xml:space="preserve" font-family="MaisonNeue-Demi,Maison Neue" font-weight="bold" font-size="79.2" fill="#000000" transform="matrix(1.00, 0.00, -0.00, -1.00, 336.8, 290.0)">.</text><text xml:space="preserve" font-family="MaisonNeue-Demi,Maison Neue" font-weight="bold" font-size="79.2" fill="#000000" transform="matrix(1.00, 0.00, -0.00, -1.00, 397.2, 290.0)">W</text><text xml:space="preserve" font-family="MaisonNeue-Demi,Maison Neue" font-weight="bold" font-size="79.2" fill="#000000" transform="matrix(1.00, 0.00, -0.00, -1.00, 466.5, 290.0)">o</text><text xml:space="preserve" font-family="MaisonNeue-Demi,Maison Neue" font-weight="bold" font-size="79.2" fill="#000000" transform="matrix(1.00, 0.00, -0.00, -1.00, 511.7, 290.0)">r</text><text xml:space="preserve" font-family="MaisonNeue-Demi,Maison Neue" font-weight="bold" font-size="79.2" fill="#000000" transform="matrix(1.00, 0.00, -0.00, -1.00, 540.3, 290.0)">k</text><text xml:space="preserve" font-family="MaisonNeue-Demi,Maison Neue" font-weight="bold" font-size="79.2" fill="#000000" transform="matrix(1.00, 0.00, -0.00, -1.00, 585.0, 290.0)"> </text><text xml:space="preserve" font-family="MaisonNeue-Demi,Maison Neue" font-weight="bold" font-size="79.2" fill="#000000" transform="matrix(1.00, 0.00, -0.00, -1.00, 604.8, 290.0)">o</text><text xml:space="preserve" font-family="MaisonNeue-Demi,Maison Neue" font-weight="bold" font-size="79.2" fill="#000000" transform="matrix(1.00, 0.00, -0.00, -1.00, 649.9, 290.0)">n</text><text xml:space="preserve" font-family="MaisonNeue-Demi,Maison Neue" font-weight="bold" font-size="79.2" fill="#000000" transform="matrix(1.00, 0.00, -0.00, -1.00, 696.6, 290.0)"> </text><text xml:space="preserve" font-family="MaisonNeue-Demi,Maison Neue" font-weight="bold" font-size="79.2" fill="#000000" transform="matrix(1.00, 0.00, -0.00, -1.00, 716.4, 290.0)">d</text><text xml:space="preserve" font-family="MaisonNeue-Demi,Maison Neue" font-weight="bold" font-size="79.2" fill="#000000" transform="matrix(1.00, 0.00, -0.00, -1.00, 763.7, 290.0)">i</text><text xml:space="preserve" font-family="MaisonNeue-Demi,Maison Neue" font-weight="bold" font-size="79.2" fill="#000000" transform="matrix(1.00, 0.00, -0.00, -1.00, 785.0, 290.0)">f</text><text xml:space="preserve" font-family="MaisonNeue-Demi,Maison Neue" font-weight="bold" font-size="79.2" fill="#000000" transform="matrix(1.00, 0.00, -0.00, -1.00, 812.5, 290.0)">f</text><text xml:space="preserve" font-family="MaisonNeue-Demi,Maison Neue" font-weight="bold" font-size="79.2" fill="#000000" transform="matrix(1.00, 0.00, -0.00, -1.00, 840.1, 290.0)">e</text><text xml:space="preserve" font-family="MaisonNeue-Demi,Maison Neue" font-weight="bold" font-size="79.2" fill="#000000" transform="matrix(1.00, 0.00, -0.00, -1.00, 884.8, 290.0)">r</text><text xml:space="preserve" font-family="MaisonNeue-Demi,Maison Neue" font-weight="bold" font-size="79.2" fill="#000000" transform="matrix(1.00, 0.00, -0.00, -1.00, 913.5, 290.0)">e</text><text xml:space="preserve" font-family="MaisonNeue-Demi,Maison Neue" font-weight="bold" font-size="79.2" fill="#000000" transform="matrix(1.00, 0.00, -0.00, -1.00, 958.3, 290.0)">n</text><text xml:space="preserve" font-family="MaisonNeue-Demi,Maison Neue" font-weight="bold" font-size="79.2" fill="#000000" transform="matrix(1.00, 0.00, -0.00, -1.00, 1004.9, 290.0)">t</text><text xml:space="preserve" font-family="MaisonNeue-Demi,Maison Neue" font-weight="bold" font-size="79.2" fill="#000000" transform="matrix(1.00, 0.00, -0.00, -1.00, 1034.9, 290.0)"> </text><text xml:space="preserve" font-family="MaisonNeue-Demi,Maison Neue" font-weight="bold" font-size="79.2" fill="#000000" transform="matrix(1.00, 0.00, -0.00, -1.00, 1054.7, 290.0)">t</text><text xml:space="preserve" font-family="MaisonNeue-Demi,Maison Neue" font-weight="bold" font-size="79.2" fill="#000000" transform="matrix(1.00, 0.00, -0.00, -1.00, 1084.7, 290.0)">h</text><text xml:space="preserve" font-family="MaisonNeue-Demi,Maison Neue" font-weight="bold" font-size="79.2" fill="#000000" transform="matrix(1.00, 0.00, -0.00, -1.00, 1131.8, 290.0)">i</text><text xml:space="preserve" font-family="MaisonNeue-Demi,Maison Neue" font-weight="bold" font-size="79.2" fill="#000000" transform="matrix(1.00, 0.00, -0.00, -1.00, 1153.0, 290.0)">n</text><text xml:space="preserve" font-family="MaisonNeue-Demi,Maison Neue" font-weight="bold" font-size="79.2" fill="#000000" transform="matrix(1.00, 0.00, -0.00, -1.00, 1199.7, 290.0)">g</text><text xml:space="preserve" font-family="MaisonNeue-Demi,Maison Neue" font-weight="bold" font-size="79.2" fill="#000000" transform="matrix(1.00, 0.00, -0.00, -1.00, 1247.3, 290.0)">s</text><text xml:space="preserve" font-family="MaisonNeue-Demi,Maison Neue" font-weight="bold" font-size="79.2" fill="#000000" transform="matrix(1.00, 0.00, -0.00, -1.00, 1287.4, 290.0)">.</text><text xml:space="preserve" font-family="MaisonNeue-Demi,Maison Neue" font-weight="bold" font-size="79.2" fill="#000000" transform="matrix(1.00, 0.00, -0.00, -1.00, 290.6, 147.5)">4</text><text xml:space="preserve" font-family="MaisonNeue-Demi,Maison Neue" font-weight="bold" font-size="79.2" fill="#000000" transform="matrix(1.00, 0.00, -0.00, -1.00, 336.5, 147.5)">.</text><text xml:space="preserve" font-family="MaisonNeue-Demi,Maison Neue" font-weight="bold" font-size="79.2" fill="#000000" transform="matrix(1.00, 0.00, -0.00, -1.00, 397.2, 147.5)">H</text><text xml:space="preserve" font-family="MaisonNeue-Demi,Maison Neue" font-weight="bold" font-size="79.2" fill="#000000" transform="matrix(1.00, 0.00, -0.00, -1.00, 450.3, 147.5)">a</text><text xml:space="preserve" font-family="MaisonNeue-Demi,Maison Neue" font-weight="bold" font-size="79.2" fill="#000000" transform="matrix(1.00, 0.00, -0.00, -1.00, 490.7, 147.5)">v</text><text xml:space="preserve" font-family="MaisonNeue-Demi,Maison Neue" font-weight="bold" font-size="79.2" fill="#000000" transform="matrix(1.00, 0.00, -0.00, -1.00, 532.8, 147.5)">e</text><text xml:space="preserve" font-family="MaisonNeue-Demi,Maison Neue" font-weight="bold" font-size="79.2" fill="#000000" transform="matrix(1.00, 0.00, -0.00, -1.00, 577.5, 147.5)"> </text><text xml:space="preserve" font-family="MaisonNeue-Demi,Maison Neue" font-weight="bold" font-size="79.2" fill="#000000" transform="matrix(1.00, 0.00, -0.00, -1.00, 597.3, 147.5)">f</text><text xml:space="preserve" font-family="MaisonNeue-Demi,Maison Neue" font-weight="bold" font-size="79.2" fill="#000000" transform="matrix(1.00, 0.00, -0.00, -1.00, 624.9, 147.5)">u</text><text xml:space="preserve" font-family="MaisonNeue-Demi,Maison Neue" font-weight="bold" font-size="79.2" fill="#000000" transform="matrix(1.00, 0.00, -0.00, -1.00, 670.4, 147.5)">n</text><text xml:space="preserve" font-family="MaisonNeue-Demi,Maison Neue" font-weight="bold" font-size="79.2" fill="#000000" transform="matrix(1.00, 0.00, -0.00, -1.00, 717.1, 147.5)">!</text></g></svg>