<?xml version="1.0" encoding="UTF-8" standalone="no"?><svg xmlns="http://www.w3.org/2000/svg" xmlns:xlink="http://www.w3.org/1999/xlink" clip-rule="evenodd" stroke-miterlimit="10" viewBox="0 0 448 80"><desc>SVG generated by Keynote</desc><defs></defs><g transform="matrix(1.00, 0.00, -0.00, -1.00, 0.0, 80.0)"><text xml:space="preserve" font-family="MaisonNeue-Demi,Maison Neue" font-weight="bold" font-size="79.2" fill="#000000" transform="matrix(1.00, 0.00, -0.00, -1.00, 0.6, 18.5)">4</text><text xml:space="preserve" font-family="MaisonNeue-Demi,Maison Neue" font-weight="bold" font-size="79.2" fill="#000000" transform="matrix(1.00, 0.00, -0.00, -1.00, 46.5, 18.5)">.</text><text xml:space="preserve" font-family="MaisonNeue-Demi,Maison Neue" font-weight="bold" font-size="79.2" fill="#000000" transform="matrix(1.00, 0.00, -0.00, -1.00, 107.2, 18.5)">H</text><text xml:space="preserve" font-family="MaisonNeue-Demi,Maison Neue" font-weight="bold" font-size="79.2" fill="#000000" transform="matrix(1.00, 0.00, -0.00, -1.00, 160.3, 18.5)">a</text><text xml:space="preserve" font-family="MaisonNeue-Demi,Maison Neue" font-weight="bold" font-size="79.2" fill="#000000" transform="matrix(1.00, 0.00, -0.00, -1.00, 200.7, 18.5)">v</text><text xml:space="preserve" font-family="MaisonNeue-Demi,Maison Neue" font-weight="bold" font-size="79.2" fill="#000000" transform="matrix(1.00, 0.00, -0.00, -1.00, 242.8, 18.5)">e</text><text xml:space="preserve" font-family="MaisonNeue-Demi,Maison Neue" font-weight="bold" font-size="79.2" fill="#000000" transform="matrix(1.00, 0.00, -0.00, -1.00, 287.5, 18.5)"> </text><text xml:space="preserve" font-family="MaisonNeue-Demi,Maison Neue" font-weight="bold" font-size="79.2" fill="#000000" transform="matrix(1.00, 0.00, -0.00, -1.00, 307.3, 18.5)">f</text><text xml:space="preserve" font-family="MaisonNeue-Demi,Maison Neue" font-weight="bold" font-size="79.2" fill="#000000" transform="matrix(1.00, 0.00, -0.00, -1.00, 334.9, 18.5)">u</text><text xml:space="preserve" font-family="MaisonNeue-Demi,Maison Neue" font-weight="bold" font-size="79.2" fill="#000000" transform="matrix(1.00, 0.00, -0.00, -1.00, 380.4, 18.5)">n</text><text xml:space="preserve" font-family="MaisonNeue-Demi,Maison Neue" font-weight="bold" font-size="79.2" fill="#000000" transform="matrix(1.00, 0.00, -0.00, -1.00, 427.1, 18.5)">!</text></g></svg>