<?xml version="1.0" encoding="UTF-8" standalone="no"?><svg xmlns="http://www.w3.org/2000/svg" xmlns:xlink="http://www.w3.org/1999/xlink" clip-rule="evenodd" stroke-miterlimit="10" viewBox="0 0 1920 1080"><desc>SVG generated by Keynote</desc><defs></defs><g transform="matrix(1.00, 0.00, -0.00, -1.00, 0.0, 1080.0)"><path d="M 0.0 1080.0 L 1920.0 1080.0 L 1920.0 0.0 L 0.0 0.0 Z M 0.0 1080.0 " fill="#FEFFFF"></path><text xml:space="preserve" font-family="MaisonNeue-Demi,Maison Neue" font-weight="bold" font-size="80.0" fill="#3BB77E" transform="matrix(1.00, 0.00, -0.00, -1.00, 260.3, 919.5)">I</text><text xml:space="preserve" font-family="MaisonNeue-Demi,Maison Neue" font-weight="bold" font-size="80.0" fill="#3BB77E" transform="matrix(1.00, 0.00, -0.00, -1.00, 284.1, 919.5)">’</text><text xml:space="preserve" font-family="MaisonNeue-Demi,Maison Neue" font-weight="bold" font-size="80.0" fill="#3BB77E" transform="matrix(1.00, 0.00, -0.00, -1.00, 308.8, 919.5)">m</text><text xml:space="preserve" font-family="MaisonNeue-Demi,Maison Neue" font-weight="bold" font-size="80.0" fill="#3BB77E" transform="matrix(1.00, 0.00, -0.00, -1.00, 377.6, 919.5)"> </text><text xml:space="preserve" font-family="MaisonNeue-Demi,Maison Neue" font-weight="bold" font-size="80.0" fill="#3BB77E" transform="matrix(1.00, 0.00, -0.00, -1.00, 397.6, 919.5)">a</text><text xml:space="preserve" font-family="MaisonNeue-Demi,Maison Neue" font-weight="bold" font-size="80.0" fill="#3BB77E" transform="matrix(1.00, 0.00, -0.00, -1.00, 440.9, 919.5)"> </text><text xml:space="preserve" font-family="MaisonNeue-Demi,Maison Neue" font-weight="bold" font-size="80.0" fill="#3BB77E" transform="matrix(1.00, 0.00, -0.00, -1.00, 460.9, 919.5)">U</text><text xml:space="preserve" font-family="MaisonNeue-Demi,Maison Neue" font-weight="bold" font-size="80.0" fill="#3BB77E" transform="matrix(1.00, 0.00, -0.00, -1.00, 513.5, 919.5)">I</text><text xml:space="preserve" font-family="MaisonNeue-Demi,Maison Neue" font-weight="bold" font-size="80.0" fill="#3BB77E" transform="matrix(1.00, 0.00, -0.00, -1.00, 537.3, 919.5)">/</text><text xml:space="preserve" font-family="MaisonNeue-Demi,Maison Neue" font-weight="bold" font-size="80.0" fill="#3BB77E" transform="matrix(1.00, 0.00, -0.00, -1.00, 573.6, 919.5)">U</text><text xml:space="preserve" font-family="MaisonNeue-Demi,Maison Neue" font-weight="bold" font-size="80.0" fill="#3BB77E" transform="matrix(1.00, 0.00, -0.00, -1.00, 626.1, 919.5)">X</text><text xml:space="preserve" font-family="MaisonNeue-Demi,Maison Neue" font-weight="bold" font-size="80.0" fill="#3BB77E" transform="matrix(1.00, 0.00, -0.00, -1.00, 674.2, 919.5)"> </text><text xml:space="preserve" font-family="MaisonNeue-Demi,Maison Neue" font-weight="bold" font-size="80.0" fill="#3BB77E" transform="matrix(1.00, 0.00, -0.00, -1.00, 694.2, 919.5)">p</text><text xml:space="preserve" font-family="MaisonNeue-Demi,Maison Neue" font-weight="bold" font-size="80.0" fill="#3BB77E" transform="matrix(1.00, 0.00, -0.00, -1.00, 742.7, 919.5)">e</text><text xml:space="preserve" font-family="MaisonNeue-Demi,Maison Neue" font-weight="bold" font-size="80.0" fill="#3BB77E" transform="matrix(1.00, 0.00, -0.00, -1.00, 787.9, 919.5)">r</text><text xml:space="preserve" font-family="MaisonNeue-Demi,Maison Neue" font-weight="bold" font-size="80.0" fill="#3BB77E" transform="matrix(1.00, 0.00, -0.00, -1.00, 816.8, 919.5)">s</text><text xml:space="preserve" font-family="MaisonNeue-Demi,Maison Neue" font-weight="bold" font-size="80.0" fill="#3BB77E" transform="matrix(1.00, 0.00, -0.00, -1.00, 858.2, 919.5)">o</text><text xml:space="preserve" font-family="MaisonNeue-Demi,Maison Neue" font-weight="bold" font-size="80.0" fill="#3BB77E" transform="matrix(1.00, 0.00, -0.00, -1.00, 903.8, 919.5)">n</text><text xml:space="preserve" font-family="MaisonNeue-Demi,Maison Neue" font-weight="bold" font-size="80.0" fill="#3BB77E" transform="matrix(1.00, 0.00, -0.00, -1.00, 950.9, 919.5)">!</text><text xml:space="preserve" font-family="MaisonNeue-Demi,Maison Neue" font-weight="bold" font-size="80.0" fill="#3BB77E" transform="matrix(1.00, 0.00, -0.00, -1.00, 977.2, 919.5)"> </text><text xml:space="preserve" font-family="MaisonNeue-Demi,Maison Neue" font-weight="bold" font-size="80.0" fill="#3BB77E" transform="matrix(1.00, 0.00, -0.00, -1.00, 997.2, 919.5)">W</text><text xml:space="preserve" font-family="MaisonNeue-Demi,Maison Neue" font-weight="bold" font-size="80.0" fill="#3BB77E" transform="matrix(1.00, 0.00, -0.00, -1.00, 1069.2, 919.5)">h</text><text xml:space="preserve" font-family="MaisonNeue-Demi,Maison Neue" font-weight="bold" font-size="80.0" fill="#3BB77E" transform="matrix(1.00, 0.00, -0.00, -1.00, 1116.8, 919.5)">a</text><text xml:space="preserve" font-family="MaisonNeue-Demi,Maison Neue" font-weight="bold" font-size="80.0" fill="#3BB77E" transform="matrix(1.00, 0.00, -0.00, -1.00, 1160.0, 919.5)">t</text><text xml:space="preserve" font-family="MaisonNeue-Demi,Maison Neue" font-weight="bold" font-size="80.0" fill="#3BB77E" transform="matrix(1.00, 0.00, -0.00, -1.00, 1190.4, 919.5)"> </text><text xml:space="preserve" font-family="MaisonNeue-Demi,Maison Neue" font-weight="bold" font-size="80.0" fill="#3BB77E" transform="matrix(1.00, 0.00, -0.00, -1.00, 1210.4, 919.5)">s</text><text xml:space="preserve" font-family="MaisonNeue-Demi,Maison Neue" font-weight="bold" font-size="80.0" fill="#3BB77E" transform="matrix(1.00, 0.00, -0.00, -1.00, 1251.7, 919.5)">h</text><text xml:space="preserve" font-family="MaisonNeue-Demi,Maison Neue" font-weight="bold" font-size="80.0" fill="#3BB77E" transform="matrix(1.00, 0.00, -0.00, -1.00, 1299.2, 919.5)">o</text><text xml:space="preserve" font-family="MaisonNeue-Demi,Maison Neue" font-weight="bold" font-size="80.0" fill="#3BB77E" transform="matrix(1.00, 0.00, -0.00, -1.00, 1344.8, 919.5)">u</text><text xml:space="preserve" font-family="MaisonNeue-Demi,Maison Neue" font-weight="bold" font-size="80.0" fill="#3BB77E" transform="matrix(1.00, 0.00, -0.00, -1.00, 1390.8, 919.5)">l</text><text xml:space="preserve" font-family="MaisonNeue-Demi,Maison Neue" font-weight="bold" font-size="80.0" fill="#3BB77E" transform="matrix(1.00, 0.00, -0.00, -1.00, 1412.3, 919.5)">d</text><text xml:space="preserve" font-family="MaisonNeue-Demi,Maison Neue" font-weight="bold" font-size="80.0" fill="#3BB77E" transform="matrix(1.00, 0.00, -0.00, -1.00, 1460.1, 919.5)"> </text><text xml:space="preserve" font-family="MaisonNeue-Demi,Maison Neue" font-weight="bold" font-size="80.0" fill="#3BB77E" transform="matrix(1.00, 0.00, -0.00, -1.00, 1480.1, 919.5)">I</text><text xml:space="preserve" font-family="MaisonNeue-Demi,Maison Neue" font-weight="bold" font-size="80.0" fill="#3BB77E" transform="matrix(1.00, 0.00, -0.00, -1.00, 1504.0, 919.5)"> </text><text xml:space="preserve" font-family="MaisonNeue-Demi,Maison Neue" font-weight="bold" font-size="80.0" fill="#3BB77E" transform="matrix(1.00, 0.00, -0.00, -1.00, 1524.0, 919.5)">d</text><text xml:space="preserve" font-family="MaisonNeue-Demi,Maison Neue" font-weight="bold" font-size="80.0" fill="#3BB77E" transform="matrix(1.00, 0.00, -0.00, -1.00, 1571.8, 919.5)">o</text><text xml:space="preserve" font-family="MaisonNeue-Demi,Maison Neue" font-weight="bold" font-size="80.0" fill="#3BB77E" transform="matrix(1.00, 0.00, -0.00, -1.00, 1617.4, 919.5)">?</text><text xml:space="preserve" font-family="MaisonNeue-Demi,Maison Neue" font-weight="bold" font-size="76.8" fill="#000000" transform="matrix(1.00, 0.00, -0.00, -1.00, 249.3, 709.0)">1</text><text xml:space="preserve" font-family="MaisonNeue-Demi,Maison Neue" font-weight="bold" font-size="76.8" fill="#000000" transform="matrix(1.00, 0.00, -0.00, -1.00, 285.3, 709.0)">.</text><text xml:space="preserve" font-family="MaisonNeue-Demi,Maison Neue" font-weight="bold" font-size="76.8" fill="#000000" transform="matrix(1.00, 0.00, -0.00, -1.00, 352.7, 709.0)">P</text><text xml:space="preserve" font-family="MaisonNeue-Demi,Maison Neue" font-weight="bold" font-size="76.8" fill="#000000" transform="matrix(1.00, 0.00, -0.00, -1.00, 399.8, 709.0)">o</text><text xml:space="preserve" font-family="MaisonNeue-Demi,Maison Neue" font-weight="bold" font-size="76.8" fill="#000000" transform="matrix(1.00, 0.00, -0.00, -1.00, 443.6, 709.0)">r</text><text xml:space="preserve" font-family="MaisonNeue-Demi,Maison Neue" font-weight="bold" font-size="76.8" fill="#000000" transform="matrix(1.00, 0.00, -0.00, -1.00, 472.1, 709.0)">t</text><text xml:space="preserve" font-family="MaisonNeue-Demi,Maison Neue" font-weight="bold" font-size="76.8" fill="#000000" transform="matrix(1.00, 0.00, -0.00, -1.00, 501.2, 709.0)">f</text><text xml:space="preserve" font-family="MaisonNeue-Demi,Maison Neue" font-weight="bold" font-size="76.8" fill="#000000" transform="matrix(1.00, 0.00, -0.00, -1.00, 528.0, 709.0)">o</text><text xml:space="preserve" font-family="MaisonNeue-Demi,Maison Neue" font-weight="bold" font-size="76.8" fill="#000000" transform="matrix(1.00, 0.00, -0.00, -1.00, 571.8, 709.0)">l</text><text xml:space="preserve" font-family="MaisonNeue-Demi,Maison Neue" font-weight="bold" font-size="76.8" fill="#000000" transform="matrix(1.00, 0.00, -0.00, -1.00, 592.3, 709.0)">i</text><text xml:space="preserve" font-family="MaisonNeue-Demi,Maison Neue" font-weight="bold" font-size="76.8" fill="#000000" transform="matrix(1.00, 0.00, -0.00, -1.00, 612.9, 709.0)">o</text><text xml:space="preserve" font-family="MaisonNeue-Demi,Maison Neue" font-weight="bold" font-size="76.8" fill="#000000" transform="matrix(1.00, 0.00, -0.00, -1.00, 656.7, 709.0)">,</text><text xml:space="preserve" font-family="MaisonNeue-Demi,Maison Neue" font-weight="bold" font-size="76.8" fill="#000000" transform="matrix(1.00, 0.00, -0.00, -1.00, 673.5, 709.0)"> </text><text xml:space="preserve" font-family="MaisonNeue-Demi,Maison Neue" font-weight="bold" font-size="76.8" fill="#000000" transform="matrix(1.00, 0.00, -0.00, -1.00, 692.7, 709.0)">p</text><text xml:space="preserve" font-family="MaisonNeue-Demi,Maison Neue" font-weight="bold" font-size="76.8" fill="#000000" transform="matrix(1.00, 0.00, -0.00, -1.00, 739.3, 709.0)">o</text><text xml:space="preserve" font-family="MaisonNeue-Demi,Maison Neue" font-weight="bold" font-size="76.8" fill="#000000" transform="matrix(1.00, 0.00, -0.00, -1.00, 783.0, 709.0)">r</text><text xml:space="preserve" font-family="MaisonNeue-Demi,Maison Neue" font-weight="bold" font-size="76.8" fill="#000000" transform="matrix(1.00, 0.00, -0.00, -1.00, 811.6, 709.0)">t</text><text xml:space="preserve" font-family="MaisonNeue-Demi,Maison Neue" font-weight="bold" font-size="76.8" fill="#000000" transform="matrix(1.00, 0.00, -0.00, -1.00, 840.7, 709.0)">f</text><text xml:space="preserve" font-family="MaisonNeue-Demi,Maison Neue" font-weight="bold" font-size="76.8" fill="#000000" transform="matrix(1.00, 0.00, -0.00, -1.00, 867.4, 709.0)">o</text><text xml:space="preserve" font-family="MaisonNeue-Demi,Maison Neue" font-weight="bold" font-size="76.8" fill="#000000" transform="matrix(1.00, 0.00, -0.00, -1.00, 911.2, 709.0)">l</text><text xml:space="preserve" font-family="MaisonNeue-Demi,Maison Neue" font-weight="bold" font-size="76.8" fill="#000000" transform="matrix(1.00, 0.00, -0.00, -1.00, 931.8, 709.0)">i</text><text xml:space="preserve" font-family="MaisonNeue-Demi,Maison Neue" font-weight="bold" font-size="76.8" fill="#000000" transform="matrix(1.00, 0.00, -0.00, -1.00, 952.4, 709.0)">o</text><text xml:space="preserve" font-family="MaisonNeue-Demi,Maison Neue" font-weight="bold" font-size="76.8" fill="#000000" transform="matrix(1.00, 0.00, -0.00, -1.00, 996.1, 709.0)">,</text><text xml:space="preserve" font-family="MaisonNeue-Demi,Maison Neue" font-weight="bold" font-size="76.8" fill="#000000" transform="matrix(1.00, 0.00, -0.00, -1.00, 1013.0, 709.0)"> </text><text xml:space="preserve" font-family="MaisonNeue-Demi,Maison Neue" font-weight="bold" font-size="76.8" fill="#000000" transform="matrix(1.00, 0.00, -0.00, -1.00, 1032.2, 709.0)">p</text><text xml:space="preserve" font-family="MaisonNeue-Demi,Maison Neue" font-weight="bold" font-size="76.8" fill="#000000" transform="matrix(1.00, 0.00, -0.00, -1.00, 1078.7, 709.0)">o</text><text xml:space="preserve" font-family="MaisonNeue-Demi,Maison Neue" font-weight="bold" font-size="76.8" fill="#000000" transform="matrix(1.00, 0.00, -0.00, -1.00, 1122.5, 709.0)">r</text><text xml:space="preserve" font-family="MaisonNeue-Demi,Maison Neue" font-weight="bold" font-size="76.8" fill="#000000" transform="matrix(1.00, 0.00, -0.00, -1.00, 1151.1, 709.0)">t</text><text xml:space="preserve" font-family="MaisonNeue-Demi,Maison Neue" font-weight="bold" font-size="76.8" fill="#000000" transform="matrix(1.00, 0.00, -0.00, -1.00, 1180.2, 709.0)">f</text><text xml:space="preserve" font-family="MaisonNeue-Demi,Maison Neue" font-weight="bold" font-size="76.8" fill="#000000" transform="matrix(1.00, 0.00, -0.00, -1.00, 1206.9, 709.0)">o</text><text xml:space="preserve" font-family="MaisonNeue-Demi,Maison Neue" font-weight="bold" font-size="76.8" fill="#000000" transform="matrix(1.00, 0.00, -0.00, -1.00, 1250.7, 709.0)">l</text><text xml:space="preserve" font-family="MaisonNeue-Demi,Maison Neue" font-weight="bold" font-size="76.8" fill="#000000" transform="matrix(1.00, 0.00, -0.00, -1.00, 1271.2, 709.0)">i</text><text xml:space="preserve" font-family="MaisonNeue-Demi,Maison Neue" font-weight="bold" font-size="76.8" fill="#000000" transform="matrix(1.00, 0.00, -0.00, -1.00, 1291.8, 709.0)">o</text><text xml:space="preserve" font-family="MaisonNeue-Demi,Maison Neue" font-weight="bold" font-size="76.8" fill="#000000" transform="matrix(1.00, 0.00, -0.00, -1.00, 1335.6, 709.0)">.</text><text xml:space="preserve" font-family="MaisonNeue-Demi,Maison Neue" font-weight="bold" font-size="76.8" fill="#000000" transform="matrix(1.00, 0.00, -0.00, -1.00, 249.3, 571.0)">2</text><text xml:space="preserve" font-family="MaisonNeue-Demi,Maison Neue" font-weight="bold" font-size="76.8" fill="#000000" transform="matrix(1.00, 0.00, -0.00, -1.00, 294.3, 571.0)">.</text><text xml:space="preserve" font-family="MaisonNeue-Demi,Maison Neue" font-weight="bold" font-size="76.8" fill="#000000" transform="matrix(1.00, 0.00, -0.00, -1.00, 352.7, 571.0)">D</text><text xml:space="preserve" font-family="MaisonNeue-Demi,Maison Neue" font-weight="bold" font-size="76.8" fill="#000000" transform="matrix(1.00, 0.00, -0.00, -1.00, 403.2, 571.0)">o</text><text xml:space="preserve" font-family="MaisonNeue-Demi,Maison Neue" font-weight="bold" font-size="76.8" fill="#000000" transform="matrix(1.00, 0.00, -0.00, -1.00, 447.0, 571.0)"> </text><text xml:space="preserve" font-family="MaisonNeue-Demi,Maison Neue" font-weight="bold" font-size="76.8" fill="#000000" transform="matrix(1.00, 0.00, -0.00, -1.00, 466.2, 571.0)">t</text><text xml:space="preserve" font-family="MaisonNeue-Demi,Maison Neue" font-weight="bold" font-size="76.8" fill="#000000" transform="matrix(1.00, 0.00, -0.00, -1.00, 495.3, 571.0)">h</text><text xml:space="preserve" font-family="MaisonNeue-Demi,Maison Neue" font-weight="bold" font-size="76.8" fill="#000000" transform="matrix(1.00, 0.00, -0.00, -1.00, 540.9, 571.0)">e</text><text xml:space="preserve" font-family="MaisonNeue-Demi,Maison Neue" font-weight="bold" font-size="76.8" fill="#000000" transform="matrix(1.00, 0.00, -0.00, -1.00, 584.3, 571.0)"> </text><text xml:space="preserve" font-family="MaisonNeue-Demi,Maison Neue" font-weight="bold" font-size="76.8" fill="#000000" transform="matrix(1.00, 0.00, -0.00, -1.00, 603.5, 571.0)">o</text><text xml:space="preserve" font-family="MaisonNeue-Demi,Maison Neue" font-weight="bold" font-size="76.8" fill="#000000" transform="matrix(1.00, 0.00, -0.00, -1.00, 647.2, 571.0)">p</text><text xml:space="preserve" font-family="MaisonNeue-Demi,Maison Neue" font-weight="bold" font-size="76.8" fill="#000000" transform="matrix(1.00, 0.00, -0.00, -1.00, 693.8, 571.0)">t</text><text xml:space="preserve" font-family="MaisonNeue-Demi,Maison Neue" font-weight="bold" font-size="76.8" fill="#000000" transform="matrix(1.00, 0.00, -0.00, -1.00, 722.9, 571.0)">i</text><text xml:space="preserve" font-family="MaisonNeue-Demi,Maison Neue" font-weight="bold" font-size="76.8" fill="#000000" transform="matrix(1.00, 0.00, -0.00, -1.00, 743.5, 571.0)">o</text><text xml:space="preserve" font-family="MaisonNeue-Demi,Maison Neue" font-weight="bold" font-size="76.8" fill="#000000" transform="matrix(1.00, 0.00, -0.00, -1.00, 787.3, 571.0)">n</text><text xml:space="preserve" font-family="MaisonNeue-Demi,Maison Neue" font-weight="bold" font-size="76.8" fill="#000000" transform="matrix(1.00, 0.00, -0.00, -1.00, 832.5, 571.0)">a</text><text xml:space="preserve" font-family="MaisonNeue-Demi,Maison Neue" font-weight="bold" font-size="76.8" fill="#000000" transform="matrix(1.00, 0.00, -0.00, -1.00, 874.0, 571.0)">l</text><text xml:space="preserve" font-family="MaisonNeue-Demi,Maison Neue" font-weight="bold" font-size="76.8" fill="#000000" transform="matrix(1.00, 0.00, -0.00, -1.00, 894.6, 571.0)"> </text><text xml:space="preserve" font-family="MaisonNeue-Demi,Maison Neue" font-weight="bold" font-size="76.8" fill="#000000" transform="matrix(1.00, 0.00, -0.00, -1.00, 913.8, 571.0)">d</text><text xml:space="preserve" font-family="MaisonNeue-Demi,Maison Neue" font-weight="bold" font-size="76.8" fill="#000000" transform="matrix(1.00, 0.00, -0.00, -1.00, 959.7, 571.0)">e</text><text xml:space="preserve" font-family="MaisonNeue-Demi,Maison Neue" font-weight="bold" font-size="76.8" fill="#000000" transform="matrix(1.00, 0.00, -0.00, -1.00, 1003.1, 571.0)">s</text><text xml:space="preserve" font-family="MaisonNeue-Demi,Maison Neue" font-weight="bold" font-size="76.8" fill="#000000" transform="matrix(1.00, 0.00, -0.00, -1.00, 1042.8, 571.0)">i</text><text xml:space="preserve" font-family="MaisonNeue-Demi,Maison Neue" font-weight="bold" font-size="76.8" fill="#000000" transform="matrix(1.00, 0.00, -0.00, -1.00, 1063.4, 571.0)">g</text><text xml:space="preserve" font-family="MaisonNeue-Demi,Maison Neue" font-weight="bold" font-size="76.8" fill="#000000" transform="matrix(1.00, 0.00, -0.00, -1.00, 1109.6, 571.0)">n</text><text xml:space="preserve" font-family="MaisonNeue-Demi,Maison Neue" font-weight="bold" font-size="76.8" fill="#000000" transform="matrix(1.00, 0.00, -0.00, -1.00, 1154.8, 571.0)"> </text><text xml:space="preserve" font-family="MaisonNeue-Demi,Maison Neue" font-weight="bold" font-size="76.8" fill="#000000" transform="matrix(1.00, 0.00, -0.00, -1.00, 1174.0, 571.0)">c</text><text xml:space="preserve" font-family="MaisonNeue-Demi,Maison Neue" font-weight="bold" font-size="76.8" fill="#000000" transform="matrix(1.00, 0.00, -0.00, -1.00, 1215.9, 571.0)">h</text><text xml:space="preserve" font-family="MaisonNeue-Demi,Maison Neue" font-weight="bold" font-size="76.8" fill="#000000" transform="matrix(1.00, 0.00, -0.00, -1.00, 1261.5, 571.0)">a</text><text xml:space="preserve" font-family="MaisonNeue-Demi,Maison Neue" font-weight="bold" font-size="76.8" fill="#000000" transform="matrix(1.00, 0.00, -0.00, -1.00, 1303.0, 571.0)">l</text><text xml:space="preserve" font-family="MaisonNeue-Demi,Maison Neue" font-weight="bold" font-size="76.8" fill="#000000" transform="matrix(1.00, 0.00, -0.00, -1.00, 1323.6, 571.0)">l</text><text xml:space="preserve" font-family="MaisonNeue-Demi,Maison Neue" font-weight="bold" font-size="76.8" fill="#000000" transform="matrix(1.00, 0.00, -0.00, -1.00, 1344.2, 571.0)">e</text><text xml:space="preserve" font-family="MaisonNeue-Demi,Maison Neue" font-weight="bold" font-size="76.8" fill="#000000" transform="matrix(1.00, 0.00, -0.00, -1.00, 1387.6, 571.0)">n</text><text xml:space="preserve" font-family="MaisonNeue-Demi,Maison Neue" font-weight="bold" font-size="76.8" fill="#000000" transform="matrix(1.00, 0.00, -0.00, -1.00, 1432.8, 571.0)">g</text><text xml:space="preserve" font-family="MaisonNeue-Demi,Maison Neue" font-weight="bold" font-size="76.8" fill="#000000" transform="matrix(1.00, 0.00, -0.00, -1.00, 1479.0, 571.0)">e</text><text xml:space="preserve" font-family="MaisonNeue-Demi,Maison Neue" font-weight="bold" font-size="76.8" fill="#000000" transform="matrix(1.00, 0.00, -0.00, -1.00, 1520.8, 571.0)">.</text><text xml:space="preserve" font-family="MaisonNeue-Demi,Maison Neue" font-weight="bold" font-size="76.8" fill="#000000" transform="matrix(1.00, 0.00, -0.00, -1.00, 249.3, 433.0)">3</text><text xml:space="preserve" font-family="MaisonNeue-Demi,Maison Neue" font-weight="bold" font-size="76.8" fill="#000000" transform="matrix(1.00, 0.00, -0.00, -1.00, 294.2, 433.0)">.</text><text xml:space="preserve" font-family="MaisonNeue-Demi,Maison Neue" font-weight="bold" font-size="76.8" fill="#000000" transform="matrix(1.00, 0.00, -0.00, -1.00, 352.7, 433.0)">B</text><text xml:space="preserve" font-family="MaisonNeue-Demi,Maison Neue" font-weight="bold" font-size="76.8" fill="#000000" transform="matrix(1.00, 0.00, -0.00, -1.00, 402.6, 433.0)">e</text><text xml:space="preserve" font-family="MaisonNeue-Demi,Maison Neue" font-weight="bold" font-size="76.8" fill="#000000" transform="matrix(1.00, 0.00, -0.00, -1.00, 446.0, 433.0)"> </text><text xml:space="preserve" font-family="MaisonNeue-Demi,Maison Neue" font-weight="bold" font-size="76.8" fill="#000000" transform="matrix(1.00, 0.00, -0.00, -1.00, 465.2, 433.0)">i</text><text xml:space="preserve" font-family="MaisonNeue-Demi,Maison Neue" font-weight="bold" font-size="76.8" fill="#000000" transform="matrix(1.00, 0.00, -0.00, -1.00, 485.7, 433.0)">n</text><text xml:space="preserve" font-family="MaisonNeue-Demi,Maison Neue" font-weight="bold" font-size="76.8" fill="#000000" transform="matrix(1.00, 0.00, -0.00, -1.00, 529.4, 433.0)">v</text><text xml:space="preserve" font-family="MaisonNeue-Demi,Maison Neue" font-weight="bold" font-size="76.8" fill="#000000" transform="matrix(1.00, 0.00, -0.00, -1.00, 570.2, 433.0)">o</text><text xml:space="preserve" font-family="MaisonNeue-Demi,Maison Neue" font-weight="bold" font-size="76.8" fill="#000000" transform="matrix(1.00, 0.00, -0.00, -1.00, 614.0, 433.0)">l</text><text xml:space="preserve" font-family="MaisonNeue-Demi,Maison Neue" font-weight="bold" font-size="76.8" fill="#000000" transform="matrix(1.00, 0.00, -0.00, -1.00, 634.6, 433.0)">v</text><text xml:space="preserve" font-family="MaisonNeue-Demi,Maison Neue" font-weight="bold" font-size="76.8" fill="#000000" transform="matrix(1.00, 0.00, -0.00, -1.00, 675.4, 433.0)">e</text><text xml:space="preserve" font-family="MaisonNeue-Demi,Maison Neue" font-weight="bold" font-size="76.8" fill="#000000" transform="matrix(1.00, 0.00, -0.00, -1.00, 718.7, 433.0)">d</text><text xml:space="preserve" font-family="MaisonNeue-Demi,Maison Neue" font-weight="bold" font-size="76.8" fill="#000000" transform="matrix(1.00, 0.00, -0.00, -1.00, 764.7, 433.0)"> </text><text xml:space="preserve" font-family="MaisonNeue-Demi,Maison Neue" font-weight="bold" font-size="76.8" fill="#000000" transform="matrix(1.00, 0.00, -0.00, -1.00, 783.9, 433.0)">i</text><text xml:space="preserve" font-family="MaisonNeue-Demi,Maison Neue" font-weight="bold" font-size="76.8" fill="#000000" transform="matrix(1.00, 0.00, -0.00, -1.00, 804.5, 433.0)">n</text><text xml:space="preserve" font-family="MaisonNeue-Demi,Maison Neue" font-weight="bold" font-size="76.8" fill="#000000" transform="matrix(1.00, 0.00, -0.00, -1.00, 849.7, 433.0)"> </text><text xml:space="preserve" font-family="MaisonNeue-Demi,Maison Neue" font-weight="bold" font-size="76.8" fill="#000000" transform="matrix(1.00, 0.00, -0.00, -1.00, 868.9, 433.0)">t</text><text xml:space="preserve" font-family="MaisonNeue-Demi,Maison Neue" font-weight="bold" font-size="76.8" fill="#000000" transform="matrix(1.00, 0.00, -0.00, -1.00, 898.0, 433.0)">h</text><text xml:space="preserve" font-family="MaisonNeue-Demi,Maison Neue" font-weight="bold" font-size="76.8" fill="#000000" transform="matrix(1.00, 0.00, -0.00, -1.00, 943.6, 433.0)">e</text><text xml:space="preserve" font-family="MaisonNeue-Demi,Maison Neue" font-weight="bold" font-size="76.8" fill="#000000" transform="matrix(1.00, 0.00, -0.00, -1.00, 987.0, 433.0)"> </text><text xml:space="preserve" font-family="MaisonNeue-Demi,Maison Neue" font-weight="bold" font-size="76.8" fill="#000000" transform="matrix(1.00, 0.00, -0.00, -1.00, 1006.2, 433.0)">d</text><text xml:space="preserve" font-family="MaisonNeue-Demi,Maison Neue" font-weight="bold" font-size="76.8" fill="#000000" transform="matrix(1.00, 0.00, -0.00, -1.00, 1052.1, 433.0)">e</text><text xml:space="preserve" font-family="MaisonNeue-Demi,Maison Neue" font-weight="bold" font-size="76.8" fill="#000000" transform="matrix(1.00, 0.00, -0.00, -1.00, 1095.5, 433.0)">s</text><text xml:space="preserve" font-family="MaisonNeue-Demi,Maison Neue" font-weight="bold" font-size="76.8" fill="#000000" transform="matrix(1.00, 0.00, -0.00, -1.00, 1135.2, 433.0)">i</text><text xml:space="preserve" font-family="MaisonNeue-Demi,Maison Neue" font-weight="bold" font-size="76.8" fill="#000000" transform="matrix(1.00, 0.00, -0.00, -1.00, 1155.8, 433.0)">g</text><text xml:space="preserve" font-family="MaisonNeue-Demi,Maison Neue" font-weight="bold" font-size="76.8" fill="#000000" transform="matrix(1.00, 0.00, -0.00, -1.00, 1202.0, 433.0)">n</text><text xml:space="preserve" font-family="MaisonNeue-Demi,Maison Neue" font-weight="bold" font-size="76.8" fill="#000000" transform="matrix(1.00, 0.00, -0.00, -1.00, 1247.2, 433.0)"> </text><text xml:space="preserve" font-family="MaisonNeue-Demi,Maison Neue" font-weight="bold" font-size="76.8" fill="#000000" transform="matrix(1.00, 0.00, -0.00, -1.00, 1266.4, 433.0)">c</text><text xml:space="preserve" font-family="MaisonNeue-Demi,Maison Neue" font-weight="bold" font-size="76.8" fill="#000000" transform="matrix(1.00, 0.00, -0.00, -1.00, 1308.3, 433.0)">o</text><text xml:space="preserve" font-family="MaisonNeue-Demi,Maison Neue" font-weight="bold" font-size="76.8" fill="#000000" transform="matrix(1.00, 0.00, -0.00, -1.00, 1352.0, 433.0)">m</text><text xml:space="preserve" font-family="MaisonNeue-Demi,Maison Neue" font-weight="bold" font-size="76.8" fill="#000000" transform="matrix(1.00, 0.00, -0.00, -1.00, 1418.1, 433.0)">m</text><text xml:space="preserve" font-family="MaisonNeue-Demi,Maison Neue" font-weight="bold" font-size="76.8" fill="#000000" transform="matrix(1.00, 0.00, -0.00, -1.00, 1484.1, 433.0)">u</text><text xml:space="preserve" font-family="MaisonNeue-Demi,Maison Neue" font-weight="bold" font-size="76.8" fill="#000000" transform="matrix(1.00, 0.00, -0.00, -1.00, 1528.3, 433.0)">n</text><text xml:space="preserve" font-family="MaisonNeue-Demi,Maison Neue" font-weight="bold" font-size="76.8" fill="#000000" transform="matrix(1.00, 0.00, -0.00, -1.00, 1573.5, 433.0)">i</text><text xml:space="preserve" font-family="MaisonNeue-Demi,Maison Neue" font-weight="bold" font-size="76.8" fill="#000000" transform="matrix(1.00, 0.00, -0.00, -1.00, 1594.1, 433.0)">t</text><text xml:space="preserve" font-family="MaisonNeue-Demi,Maison Neue" font-weight="bold" font-size="76.8" fill="#000000" transform="matrix(1.00, 0.00, -0.00, -1.00, 1623.2, 433.0)">y</text><text xml:space="preserve" font-family="MaisonNeue-Demi,Maison Neue" font-weight="bold" font-size="76.8" fill="#000000" transform="matrix(1.00, 0.00, -0.00, -1.00, 1664.5, 433.0)"> </text><text xml:space="preserve" font-family="MaisonNeue-Demi,Maison Neue" font-weight="bold" font-size="76.8" fill="#000000" transform="matrix(1.00, 0.00, -0.00, -1.00, 352.7, 295.0)">(</text><text xml:space="preserve" font-family="MaisonNeue-Demi,Maison Neue" font-weight="bold" font-size="76.8" fill="#000000" transform="matrix(1.00, 0.00, -0.00, -1.00, 381.7, 295.0)">l</text><text xml:space="preserve" font-family="MaisonNeue-Demi,Maison Neue" font-weight="bold" font-size="76.8" fill="#000000" transform="matrix(1.00, 0.00, -0.00, -1.00, 402.3, 295.0)">i</text><text xml:space="preserve" font-family="MaisonNeue-Demi,Maison Neue" font-weight="bold" font-size="76.8" fill="#000000" transform="matrix(1.00, 0.00, -0.00, -1.00, 422.9, 295.0)">t</text><text xml:space="preserve" font-family="MaisonNeue-Demi,Maison Neue" font-weight="bold" font-size="76.8" fill="#000000" transform="matrix(1.00, 0.00, -0.00, -1.00, 450.5, 295.0)">e</text><text xml:space="preserve" font-family="MaisonNeue-Demi,Maison Neue" font-weight="bold" font-size="76.8" fill="#000000" transform="matrix(1.00, 0.00, -0.00, -1.00, 493.9, 295.0)">r</text><text xml:space="preserve" font-family="MaisonNeue-Demi,Maison Neue" font-weight="bold" font-size="76.8" fill="#000000" transform="matrix(1.00, 0.00, -0.00, -1.00, 521.7, 295.0)">a</text><text xml:space="preserve" font-family="MaisonNeue-Demi,Maison Neue" font-weight="bold" font-size="76.8" fill="#000000" transform="matrix(1.00, 0.00, -0.00, -1.00, 563.2, 295.0)">l</text><text xml:space="preserve" font-family="MaisonNeue-Demi,Maison Neue" font-weight="bold" font-size="76.8" fill="#000000" transform="matrix(1.00, 0.00, -0.00, -1.00, 583.8, 295.0)">l</text><text xml:space="preserve" font-family="MaisonNeue-Demi,Maison Neue" font-weight="bold" font-size="76.8" fill="#000000" transform="matrix(1.00, 0.00, -0.00, -1.00, 604.4, 295.0)">y</text><text xml:space="preserve" font-family="MaisonNeue-Demi,Maison Neue" font-weight="bold" font-size="76.8" fill="#000000" transform="matrix(1.00, 0.00, -0.00, -1.00, 645.7, 295.0)"> </text><text xml:space="preserve" font-family="MaisonNeue-Demi,Maison Neue" font-weight="bold" font-size="76.8" fill="#000000" transform="matrix(1.00, 0.00, -0.00, -1.00, 664.9, 295.0)">s</text><text xml:space="preserve" font-family="MaisonNeue-Demi,Maison Neue" font-weight="bold" font-size="76.8" fill="#000000" transform="matrix(1.00, 0.00, -0.00, -1.00, 704.6, 295.0)">o</text><text xml:space="preserve" font-family="MaisonNeue-Demi,Maison Neue" font-weight="bold" font-size="76.8" fill="#000000" transform="matrix(1.00, 0.00, -0.00, -1.00, 748.4, 295.0)"> </text><text xml:space="preserve" font-family="MaisonNeue-Demi,Maison Neue" font-weight="bold" font-size="76.8" fill="#000000" transform="matrix(1.00, 0.00, -0.00, -1.00, 767.6, 295.0)">m</text><text xml:space="preserve" font-family="MaisonNeue-Demi,Maison Neue" font-weight="bold" font-size="76.8" fill="#000000" transform="matrix(1.00, 0.00, -0.00, -1.00, 833.6, 295.0)">a</text><text xml:space="preserve" font-family="MaisonNeue-Demi,Maison Neue" font-weight="bold" font-size="76.8" fill="#000000" transform="matrix(1.00, 0.00, -0.00, -1.00, 875.2, 295.0)">n</text><text xml:space="preserve" font-family="MaisonNeue-Demi,Maison Neue" font-weight="bold" font-size="76.8" fill="#000000" transform="matrix(1.00, 0.00, -0.00, -1.00, 918.9, 295.0)">y</text><text xml:space="preserve" font-family="MaisonNeue-Demi,Maison Neue" font-weight="bold" font-size="76.8" fill="#000000" transform="matrix(1.00, 0.00, -0.00, -1.00, 960.2, 295.0)"> </text><text xml:space="preserve" font-family="MaisonNeue-Demi,Maison Neue" font-weight="bold" font-size="76.8" fill="#000000" transform="matrix(1.00, 0.00, -0.00, -1.00, 979.4, 295.0)">r</text><text xml:space="preserve" font-family="MaisonNeue-Demi,Maison Neue" font-weight="bold" font-size="76.8" fill="#000000" transform="matrix(1.00, 0.00, -0.00, -1.00, 1007.2, 295.0)">e</text><text xml:space="preserve" font-family="MaisonNeue-Demi,Maison Neue" font-weight="bold" font-size="76.8" fill="#000000" transform="matrix(1.00, 0.00, -0.00, -1.00, 1050.6, 295.0)">s</text><text xml:space="preserve" font-family="MaisonNeue-Demi,Maison Neue" font-weight="bold" font-size="76.8" fill="#000000" transform="matrix(1.00, 0.00, -0.00, -1.00, 1090.3, 295.0)">o</text><text xml:space="preserve" font-family="MaisonNeue-Demi,Maison Neue" font-weight="bold" font-size="76.8" fill="#000000" transform="matrix(1.00, 0.00, -0.00, -1.00, 1134.1, 295.0)">u</text><text xml:space="preserve" font-family="MaisonNeue-Demi,Maison Neue" font-weight="bold" font-size="76.8" fill="#000000" transform="matrix(1.00, 0.00, -0.00, -1.00, 1178.2, 295.0)">r</text><text xml:space="preserve" font-family="MaisonNeue-Demi,Maison Neue" font-weight="bold" font-size="76.8" fill="#000000" transform="matrix(1.00, 0.00, -0.00, -1.00, 1206.0, 295.0)">c</text><text xml:space="preserve" font-family="MaisonNeue-Demi,Maison Neue" font-weight="bold" font-size="76.8" fill="#000000" transform="matrix(1.00, 0.00, -0.00, -1.00, 1247.9, 295.0)">e</text><text xml:space="preserve" font-family="MaisonNeue-Demi,Maison Neue" font-weight="bold" font-size="76.8" fill="#000000" transform="matrix(1.00, 0.00, -0.00, -1.00, 1291.3, 295.0)">s</text><text xml:space="preserve" font-family="MaisonNeue-Demi,Maison Neue" font-weight="bold" font-size="76.8" fill="#000000" transform="matrix(1.00, 0.00, -0.00, -1.00, 1331.0, 295.0)">)</text><text xml:space="preserve" font-family="MaisonNeue-Demi,Maison Neue" font-weight="bold" font-size="76.8" fill="#000000" transform="matrix(1.00, 0.00, -0.00, -1.00, 249.3, 157.0)">4</text><text xml:space="preserve" font-family="MaisonNeue-Demi,Maison Neue" font-weight="bold" font-size="76.8" fill="#000000" transform="matrix(1.00, 0.00, -0.00, -1.00, 293.9, 157.0)">.</text><text xml:space="preserve" font-family="MaisonNeue-Demi,Maison Neue" font-weight="bold" font-size="76.8" fill="#000000" transform="matrix(1.00, 0.00, -0.00, -1.00, 352.7, 157.0)">H</text><text xml:space="preserve" font-family="MaisonNeue-Demi,Maison Neue" font-weight="bold" font-size="76.8" fill="#000000" transform="matrix(1.00, 0.00, -0.00, -1.00, 404.2, 157.0)">a</text><text xml:space="preserve" font-family="MaisonNeue-Demi,Maison Neue" font-weight="bold" font-size="76.8" fill="#000000" transform="matrix(1.00, 0.00, -0.00, -1.00, 443.4, 157.0)">v</text><text xml:space="preserve" font-family="MaisonNeue-Demi,Maison Neue" font-weight="bold" font-size="76.8" fill="#000000" transform="matrix(1.00, 0.00, -0.00, -1.00, 484.2, 157.0)">e</text><text xml:space="preserve" font-family="MaisonNeue-Demi,Maison Neue" font-weight="bold" font-size="76.8" fill="#000000" transform="matrix(1.00, 0.00, -0.00, -1.00, 527.6, 157.0)"> </text><text xml:space="preserve" font-family="MaisonNeue-Demi,Maison Neue" font-weight="bold" font-size="76.8" fill="#000000" transform="matrix(1.00, 0.00, -0.00, -1.00, 546.8, 157.0)">f</text><text xml:space="preserve" font-family="MaisonNeue-Demi,Maison Neue" font-weight="bold" font-size="76.8" fill="#000000" transform="matrix(1.00, 0.00, -0.00, -1.00, 573.5, 157.0)">u</text><text xml:space="preserve" font-family="MaisonNeue-Demi,Maison Neue" font-weight="bold" font-size="76.8" fill="#000000" transform="matrix(1.00, 0.00, -0.00, -1.00, 617.7, 157.0)">n</text><text xml:space="preserve" font-family="MaisonNeue-Demi,Maison Neue" font-weight="bold" font-size="76.8" fill="#000000" transform="matrix(1.00, 0.00, -0.00, -1.00, 662.9, 157.0)">!</text></g></svg>