<?xml version="1.0" encoding="UTF-8" standalone="no"?><svg xmlns="http://www.w3.org/2000/svg" xmlns:xlink="http://www.w3.org/1999/xlink" clip-rule="evenodd" stroke-miterlimit="10" viewBox="0 0 1106 79"><desc>SVG generated by Keynote</desc><defs></defs><g transform="matrix(1.00, 0.00, -0.00, -1.00, 0.0, 79.0)"><text xml:space="preserve" font-family="MaisonNeue-Demi,Maison Neue" font-weight="bold" font-size="76.8" fill="#000000" transform="matrix(1.00, 0.00, -0.00, -1.00, 0.3, 19.0)">1</text><text xml:space="preserve" font-family="MaisonNeue-Demi,Maison Neue" font-weight="bold" font-size="76.8" fill="#000000" transform="matrix(1.00, 0.00, -0.00, -1.00, 36.3, 19.0)">.</text><text xml:space="preserve" font-family="MaisonNeue-Demi,Maison Neue" font-weight="bold" font-size="76.8" fill="#000000" transform="matrix(1.00, 0.00, -0.00, -1.00, 103.7, 19.0)">P</text><text xml:space="preserve" font-family="MaisonNeue-Demi,Maison Neue" font-weight="bold" font-size="76.8" fill="#000000" transform="matrix(1.00, 0.00, -0.00, -1.00, 150.8, 19.0)">o</text><text xml:space="preserve" font-family="MaisonNeue-Demi,Maison Neue" font-weight="bold" font-size="76.8" fill="#000000" transform="matrix(1.00, 0.00, -0.00, -1.00, 194.6, 19.0)">r</text><text xml:space="preserve" font-family="MaisonNeue-Demi,Maison Neue" font-weight="bold" font-size="76.8" fill="#000000" transform="matrix(1.00, 0.00, -0.00, -1.00, 223.1, 19.0)">t</text><text xml:space="preserve" font-family="MaisonNeue-Demi,Maison Neue" font-weight="bold" font-size="76.8" fill="#000000" transform="matrix(1.00, 0.00, -0.00, -1.00, 252.2, 19.0)">f</text><text xml:space="preserve" font-family="MaisonNeue-Demi,Maison Neue" font-weight="bold" font-size="76.8" fill="#000000" transform="matrix(1.00, 0.00, -0.00, -1.00, 279.0, 19.0)">o</text><text xml:space="preserve" font-family="MaisonNeue-Demi,Maison Neue" font-weight="bold" font-size="76.8" fill="#000000" transform="matrix(1.00, 0.00, -0.00, -1.00, 322.8, 19.0)">l</text><text xml:space="preserve" font-family="MaisonNeue-Demi,Maison Neue" font-weight="bold" font-size="76.8" fill="#000000" transform="matrix(1.00, 0.00, -0.00, -1.00, 343.3, 19.0)">i</text><text xml:space="preserve" font-family="MaisonNeue-Demi,Maison Neue" font-weight="bold" font-size="76.8" fill="#000000" transform="matrix(1.00, 0.00, -0.00, -1.00, 363.9, 19.0)">o</text><text xml:space="preserve" font-family="MaisonNeue-Demi,Maison Neue" font-weight="bold" font-size="76.8" fill="#000000" transform="matrix(1.00, 0.00, -0.00, -1.00, 407.7, 19.0)">,</text><text xml:space="preserve" font-family="MaisonNeue-Demi,Maison Neue" font-weight="bold" font-size="76.8" fill="#000000" transform="matrix(1.00, 0.00, -0.00, -1.00, 424.5, 19.0)"> </text><text xml:space="preserve" font-family="MaisonNeue-Demi,Maison Neue" font-weight="bold" font-size="76.8" fill="#000000" transform="matrix(1.00, 0.00, -0.00, -1.00, 443.7, 19.0)">p</text><text xml:space="preserve" font-family="MaisonNeue-Demi,Maison Neue" font-weight="bold" font-size="76.8" fill="#000000" transform="matrix(1.00, 0.00, -0.00, -1.00, 490.3, 19.0)">o</text><text xml:space="preserve" font-family="MaisonNeue-Demi,Maison Neue" font-weight="bold" font-size="76.8" fill="#000000" transform="matrix(1.00, 0.00, -0.00, -1.00, 534.0, 19.0)">r</text><text xml:space="preserve" font-family="MaisonNeue-Demi,Maison Neue" font-weight="bold" font-size="76.8" fill="#000000" transform="matrix(1.00, 0.00, -0.00, -1.00, 562.6, 19.0)">t</text><text xml:space="preserve" font-family="MaisonNeue-Demi,Maison Neue" font-weight="bold" font-size="76.8" fill="#000000" transform="matrix(1.00, 0.00, -0.00, -1.00, 591.7, 19.0)">f</text><text xml:space="preserve" font-family="MaisonNeue-Demi,Maison Neue" font-weight="bold" font-size="76.8" fill="#000000" transform="matrix(1.00, 0.00, -0.00, -1.00, 618.4, 19.0)">o</text><text xml:space="preserve" font-family="MaisonNeue-Demi,Maison Neue" font-weight="bold" font-size="76.8" fill="#000000" transform="matrix(1.00, 0.00, -0.00, -1.00, 662.2, 19.0)">l</text><text xml:space="preserve" font-family="MaisonNeue-Demi,Maison Neue" font-weight="bold" font-size="76.8" fill="#000000" transform="matrix(1.00, 0.00, -0.00, -1.00, 682.8, 19.0)">i</text><text xml:space="preserve" font-family="MaisonNeue-Demi,Maison Neue" font-weight="bold" font-size="76.8" fill="#000000" transform="matrix(1.00, 0.00, -0.00, -1.00, 703.4, 19.0)">o</text><text xml:space="preserve" font-family="MaisonNeue-Demi,Maison Neue" font-weight="bold" font-size="76.8" fill="#000000" transform="matrix(1.00, 0.00, -0.00, -1.00, 747.1, 19.0)">,</text><text xml:space="preserve" font-family="MaisonNeue-Demi,Maison Neue" font-weight="bold" font-size="76.8" fill="#000000" transform="matrix(1.00, 0.00, -0.00, -1.00, 764.0, 19.0)"> </text><text xml:space="preserve" font-family="MaisonNeue-Demi,Maison Neue" font-weight="bold" font-size="76.8" fill="#000000" transform="matrix(1.00, 0.00, -0.00, -1.00, 783.2, 19.0)">p</text><text xml:space="preserve" font-family="MaisonNeue-Demi,Maison Neue" font-weight="bold" font-size="76.8" fill="#000000" transform="matrix(1.00, 0.00, -0.00, -1.00, 829.7, 19.0)">o</text><text xml:space="preserve" font-family="MaisonNeue-Demi,Maison Neue" font-weight="bold" font-size="76.8" fill="#000000" transform="matrix(1.00, 0.00, -0.00, -1.00, 873.5, 19.0)">r</text><text xml:space="preserve" font-family="MaisonNeue-Demi,Maison Neue" font-weight="bold" font-size="76.8" fill="#000000" transform="matrix(1.00, 0.00, -0.00, -1.00, 902.1, 19.0)">t</text><text xml:space="preserve" font-family="MaisonNeue-Demi,Maison Neue" font-weight="bold" font-size="76.8" fill="#000000" transform="matrix(1.00, 0.00, -0.00, -1.00, 931.2, 19.0)">f</text><text xml:space="preserve" font-family="MaisonNeue-Demi,Maison Neue" font-weight="bold" font-size="76.8" fill="#000000" transform="matrix(1.00, 0.00, -0.00, -1.00, 957.9, 19.0)">o</text><text xml:space="preserve" font-family="MaisonNeue-Demi,Maison Neue" font-weight="bold" font-size="76.8" fill="#000000" transform="matrix(1.00, 0.00, -0.00, -1.00, 1001.7, 19.0)">l</text><text xml:space="preserve" font-family="MaisonNeue-Demi,Maison Neue" font-weight="bold" font-size="76.8" fill="#000000" transform="matrix(1.00, 0.00, -0.00, -1.00, 1022.2, 19.0)">i</text><text xml:space="preserve" font-family="MaisonNeue-Demi,Maison Neue" font-weight="bold" font-size="76.8" fill="#000000" transform="matrix(1.00, 0.00, -0.00, -1.00, 1042.8, 19.0)">o</text><text xml:space="preserve" font-family="MaisonNeue-Demi,Maison Neue" font-weight="bold" font-size="76.8" fill="#000000" transform="matrix(1.00, 0.00, -0.00, -1.00, 1086.6, 19.0)">.</text></g></svg>