<?xml version="1.0" encoding="UTF-8" standalone="no"?><svg xmlns="http://www.w3.org/2000/svg" xmlns:xlink="http://www.w3.org/1999/xlink" clip-rule="evenodd" stroke-miterlimit="10" viewBox="0 0 1920 1080"><desc>SVG generated by Keynote</desc><defs></defs><g transform="matrix(1.00, 0.00, -0.00, -1.00, 0.0, 1080.0)"><path d="M 0.0 1080.0 L 1920.0 1080.0 L 1920.0 0.0 L 0.0 0.0 Z M 0.0 1080.0 " fill="#FEFFFF"></path><text xml:space="preserve" font-family="MaisonNeue-Demi,Maison Neue" font-weight="bold" font-size="80.0" fill="#000000" transform="matrix(1.00, 0.00, -0.00, -1.00, 742.1, 801.0)">T</text><text xml:space="preserve" font-family="MaisonNeue-Demi,Maison Neue" font-weight="bold" font-size="80.0" fill="#000000" transform="matrix(1.00, 0.00, -0.00, -1.00, 783.3, 801.0)">r</text><text xml:space="preserve" font-family="MaisonNeue-Demi,Maison Neue" font-weight="bold" font-size="80.0" fill="#000000" transform="matrix(1.00, 0.00, -0.00, -1.00, 812.2, 801.0)">a</text><text xml:space="preserve" font-family="MaisonNeue-Demi,Maison Neue" font-weight="bold" font-size="80.0" fill="#000000" transform="matrix(1.00, 0.00, -0.00, -1.00, 855.5, 801.0)">n</text><text xml:space="preserve" font-family="MaisonNeue-Demi,Maison Neue" font-weight="bold" font-size="80.0" fill="#000000" transform="matrix(1.00, 0.00, -0.00, -1.00, 902.6, 801.0)">s</text><text xml:space="preserve" font-family="MaisonNeue-Demi,Maison Neue" font-weight="bold" font-size="80.0" fill="#000000" transform="matrix(1.00, 0.00, -0.00, -1.00, 944.0, 801.0)">l</text><text xml:space="preserve" font-family="MaisonNeue-Demi,Maison Neue" font-weight="bold" font-size="80.0" fill="#000000" transform="matrix(1.00, 0.00, -0.00, -1.00, 965.4, 801.0)">a</text><text xml:space="preserve" font-family="MaisonNeue-Demi,Maison Neue" font-weight="bold" font-size="80.0" fill="#000000" transform="matrix(1.00, 0.00, -0.00, -1.00, 1008.7, 801.0)">t</text><text xml:space="preserve" font-family="MaisonNeue-Demi,Maison Neue" font-weight="bold" font-size="80.0" fill="#000000" transform="matrix(1.00, 0.00, -0.00, -1.00, 1039.0, 801.0)">i</text><text xml:space="preserve" font-family="MaisonNeue-Demi,Maison Neue" font-weight="bold" font-size="80.0" fill="#000000" transform="matrix(1.00, 0.00, -0.00, -1.00, 1060.5, 801.0)">o</text><text xml:space="preserve" font-family="MaisonNeue-Demi,Maison Neue" font-weight="bold" font-size="80.0" fill="#000000" transform="matrix(1.00, 0.00, -0.00, -1.00, 1106.1, 801.0)">n</text><text xml:space="preserve" font-family="MaisonNeue-Demi,Maison Neue" font-weight="bold" font-size="80.0" fill="#000000" transform="matrix(1.00, 0.00, -0.00, -1.00, 1153.2, 801.0)">:</text><text xml:space="preserve" font-family="MaisonNeue-Demi,Maison Neue" font-weight="bold" font-size="80.0" fill="#3BB77E" transform="matrix(1.00, 0.00, -0.00, -1.00, 1177.9, 801.0)"> </text><text xml:space="preserve" font-family="MaisonNeue-Demi,Maison Neue" font-weight="bold" font-size="120.0" fill="#000000" transform="matrix(1.00, 0.00, -0.00, -1.00, 183.1, 522.0)">T</text><text xml:space="preserve" font-family="MaisonNeue-Demi,Maison Neue" font-weight="bold" font-size="120.0" fill="#000000" transform="matrix(1.00, 0.00, -0.00, -1.00, 250.9, 522.0)">h</text><text xml:space="preserve" font-family="MaisonNeue-Demi,Maison Neue" font-weight="bold" font-size="120.0" fill="#000000" transform="matrix(1.00, 0.00, -0.00, -1.00, 322.1, 522.0)">e</text><text xml:space="preserve" font-family="MaisonNeue-Demi,Maison Neue" font-weight="bold" font-size="120.0" fill="#000000" transform="matrix(1.00, 0.00, -0.00, -1.00, 389.9, 522.0)">i</text><text xml:space="preserve" font-family="MaisonNeue-Demi,Maison Neue" font-weight="bold" font-size="120.0" fill="#000000" transform="matrix(1.00, 0.00, -0.00, -1.00, 422.1, 522.0)">r</text><text xml:space="preserve" font-family="MaisonNeue-Demi,Maison Neue" font-weight="bold" font-size="120.0" fill="#000000" transform="matrix(1.00, 0.00, -0.00, -1.00, 465.5, 522.0)"> </text><text xml:space="preserve" font-family="MaisonNeue-Demi,Maison Neue" font-weight="bold" font-size="120.0" fill="#000000" transform="matrix(1.00, 0.00, -0.00, -1.00, 495.5, 522.0)">n</text><text xml:space="preserve" font-family="MaisonNeue-Demi,Maison Neue" font-weight="bold" font-size="120.0" fill="#000000" transform="matrix(1.00, 0.00, -0.00, -1.00, 566.2, 522.0)">e</text><text xml:space="preserve" font-family="MaisonNeue-Demi,Maison Neue" font-weight="bold" font-size="120.0" fill="#000000" transform="matrix(1.00, 0.00, -0.00, -1.00, 634.0, 522.0)">t</text><text xml:space="preserve" font-family="MaisonNeue-Demi,Maison Neue" font-weight="bold" font-size="120.0" fill="#000000" transform="matrix(1.00, 0.00, -0.00, -1.00, 679.5, 522.0)">w</text><text xml:space="preserve" font-family="MaisonNeue-Demi,Maison Neue" font-weight="bold" font-size="120.0" fill="#000000" transform="matrix(1.00, 0.00, -0.00, -1.00, 774.7, 522.0)">o</text><text xml:space="preserve" font-family="MaisonNeue-Demi,Maison Neue" font-weight="bold" font-size="120.0" fill="#000000" transform="matrix(1.00, 0.00, -0.00, -1.00, 843.1, 522.0)">r</text><text xml:space="preserve" font-family="MaisonNeue-Demi,Maison Neue" font-weight="bold" font-size="120.0" fill="#000000" transform="matrix(1.00, 0.00, -0.00, -1.00, 886.5, 522.0)">k</text><text xml:space="preserve" font-family="MaisonNeue-Demi,Maison Neue" font-weight="bold" font-size="120.0" fill="#000000" transform="matrix(1.00, 0.00, -0.00, -1.00, 954.2, 522.0)"> </text><text xml:space="preserve" font-family="MaisonNeue-Demi,Maison Neue" font-weight="bold" font-size="120.0" fill="#000000" transform="matrix(1.00, 0.00, -0.00, -1.00, 984.2, 522.0)">a</text><text xml:space="preserve" font-family="MaisonNeue-Demi,Maison Neue" font-weight="bold" font-size="120.0" fill="#000000" transform="matrix(1.00, 0.00, -0.00, -1.00, 1049.1, 522.0)">n</text><text xml:space="preserve" font-family="MaisonNeue-Demi,Maison Neue" font-weight="bold" font-size="120.0" fill="#000000" transform="matrix(1.00, 0.00, -0.00, -1.00, 1119.8, 522.0)">d</text><text xml:space="preserve" font-family="MaisonNeue-Demi,Maison Neue" font-weight="bold" font-size="120.0" fill="#000000" transform="matrix(1.00, 0.00, -0.00, -1.00, 1191.5, 522.0)"> </text><text xml:space="preserve" font-family="MaisonNeue-Demi,Maison Neue" font-weight="bold" font-size="120.0" fill="#000000" transform="matrix(1.00, 0.00, -0.00, -1.00, 1221.5, 522.0)">i</text><text xml:space="preserve" font-family="MaisonNeue-Demi,Maison Neue" font-weight="bold" font-size="120.0" fill="#000000" transform="matrix(1.00, 0.00, -0.00, -1.00, 1253.7, 522.0)">n</text><text xml:space="preserve" font-family="MaisonNeue-Demi,Maison Neue" font-weight="bold" font-size="120.0" fill="#000000" transform="matrix(1.00, 0.00, -0.00, -1.00, 1324.4, 522.0)">ﬂ</text><text xml:space="preserve" font-family="MaisonNeue-Demi,Maison Neue" font-weight="bold" font-size="120.0" fill="#000000" transform="matrix(1.00, 0.00, -0.00, -1.00, 1396.3, 522.0)">u</text><text xml:space="preserve" font-family="MaisonNeue-Demi,Maison Neue" font-weight="bold" font-size="120.0" fill="#000000" transform="matrix(1.00, 0.00, -0.00, -1.00, 1465.3, 522.0)">e</text><text xml:space="preserve" font-family="MaisonNeue-Demi,Maison Neue" font-weight="bold" font-size="120.0" fill="#000000" transform="matrix(1.00, 0.00, -0.00, -1.00, 1533.1, 522.0)">n</text><text xml:space="preserve" font-family="MaisonNeue-Demi,Maison Neue" font-weight="bold" font-size="120.0" fill="#000000" transform="matrix(1.00, 0.00, -0.00, -1.00, 1603.7, 522.0)">c</text><text xml:space="preserve" font-family="MaisonNeue-Demi,Maison Neue" font-weight="bold" font-size="120.0" fill="#000000" transform="matrix(1.00, 0.00, -0.00, -1.00, 1669.1, 522.0)">e</text><text xml:space="preserve" font-family="MaisonNeue-Demi,Maison Neue" font-weight="bold" font-size="120.0" fill="#000000" transform="matrix(1.00, 0.00, -0.00, -1.00, 1736.9, 522.0)"> </text><text xml:space="preserve" font-family="MaisonNeue-Demi,Maison Neue" font-weight="bold" font-size="120.0" fill="#000000" transform="matrix(1.00, 0.00, -0.00, -1.00, 520.1, 378.0)">i</text><text xml:space="preserve" font-family="MaisonNeue-Demi,Maison Neue" font-weight="bold" font-size="120.0" fill="#000000" transform="matrix(1.00, 0.00, -0.00, -1.00, 552.2, 378.0)">n</text><text xml:space="preserve" font-family="MaisonNeue-Demi,Maison Neue" font-weight="bold" font-size="120.0" fill="#000000" transform="matrix(1.00, 0.00, -0.00, -1.00, 622.9, 378.0)"> </text><text xml:space="preserve" font-family="MaisonNeue-Demi,Maison Neue" font-weight="bold" font-size="120.0" fill="#000000" transform="matrix(1.00, 0.00, -0.00, -1.00, 652.9, 378.0)">t</text><text xml:space="preserve" font-family="MaisonNeue-Demi,Maison Neue" font-weight="bold" font-size="120.0" fill="#000000" transform="matrix(1.00, 0.00, -0.00, -1.00, 696.0, 378.0)">e</text><text xml:space="preserve" font-family="MaisonNeue-Demi,Maison Neue" font-weight="bold" font-size="120.0" fill="#000000" transform="matrix(1.00, 0.00, -0.00, -1.00, 763.8, 378.0)">c</text><text xml:space="preserve" font-family="MaisonNeue-Demi,Maison Neue" font-weight="bold" font-size="120.0" fill="#000000" transform="matrix(1.00, 0.00, -0.00, -1.00, 829.2, 378.0)">h</text><text xml:space="preserve" font-family="MaisonNeue-Demi,Maison Neue" font-weight="bold" font-size="120.0" fill="#000000" transform="matrix(1.00, 0.00, -0.00, -1.00, 900.5, 378.0)"> </text><text xml:space="preserve" font-family="MaisonNeue-Demi,Maison Neue" font-weight="bold" font-size="120.0" fill="#000000" transform="matrix(1.00, 0.00, -0.00, -1.00, 930.5, 378.0)">i</text><text xml:space="preserve" font-family="MaisonNeue-Demi,Maison Neue" font-weight="bold" font-size="120.0" fill="#000000" transform="matrix(1.00, 0.00, -0.00, -1.00, 962.6, 378.0)">s</text><text xml:space="preserve" font-family="MaisonNeue-Demi,Maison Neue" font-weight="bold" font-size="120.0" fill="#3BB77E" transform="matrix(1.00, 0.00, -0.00, -1.00, 1024.7, 378.0)"> </text><text xml:space="preserve" font-family="MaisonNeue-Demi,Maison Neue" font-weight="bold" font-size="120.0" fill="#3BB77E" transform="matrix(1.00, 0.00, -0.00, -1.00, 1054.7, 378.0)">H</text><text xml:space="preserve" font-family="MaisonNeue-Demi,Maison Neue" font-weight="bold" font-size="120.0" fill="#3BB77E" transform="matrix(1.00, 0.00, -0.00, -1.00, 1135.1, 378.0)">U</text><text xml:space="preserve" font-family="MaisonNeue-Demi,Maison Neue" font-weight="bold" font-size="120.0" fill="#3BB77E" transform="matrix(1.00, 0.00, -0.00, -1.00, 1213.9, 378.0)">G</text><text xml:space="preserve" font-family="MaisonNeue-Demi,Maison Neue" font-weight="bold" font-size="120.0" fill="#3BB77E" transform="matrix(1.00, 0.00, -0.00, -1.00, 1293.1, 378.0)">E</text><text xml:space="preserve" font-family="MaisonNeue-Demi,Maison Neue" font-weight="bold" font-size="120.0" fill="#3BB77E" transform="matrix(1.00, 0.00, -0.00, -1.00, 1362.8, 378.0)">.</text></g></svg>