<?xml version="1.0" encoding="UTF-8" standalone="no"?><svg xmlns="http://www.w3.org/2000/svg" xmlns:xlink="http://www.w3.org/1999/xlink" clip-rule="evenodd" stroke-miterlimit="10" viewBox="0 0 938 147"><desc>SVG generated by Keynote</desc><defs></defs><g transform="matrix(1.00, 0.00, -0.00, -1.00, 0.0, 147.0)"><g><clipPath id="clip0x7fe998fd44b0"><path d="M 0.5 145.8 L 937.0 145.8 L 937.0 1.3 L 0.5 1.3 Z M 0.5 145.8 "></path></clipPath><g clip-path="url(#clip0x7fe998fd44b0)"><path d="M -935.0 288.7 L 1.0 288.7 L 1.0 145.3 L -935.0 145.3 Z M -935.0 288.7 " fill="#FEFFFE"></path><path d="M 1.0 288.7 L 937.0 288.7 L 937.0 145.3 L 1.0 145.3 Z M 1.0 288.7 " fill="#FEFFFE"></path><path d="M -935.0 145.3 L 1.0 145.3 L 1.0 1.8 L -935.0 1.8 Z M -935.0 145.3 " fill="#FEFFFE"></path><path d="M 1.0 145.3 L 937.0 145.3 L 937.0 1.8 L 1.0 1.8 Z M 1.0 145.3 " fill="#FEFFFE"></path><path d="M -935.0 1.8 L 1.0 1.8 L 1.0 -141.7 L -935.0 -141.7 Z M -935.0 1.8 " fill="#FEFFFE"></path><path d="M 1.0 1.8 L 937.0 1.8 L 937.0 -141.7 L 1.0 -141.7 Z M 1.0 1.8 " fill="#FEFFFE"></path></g></g><g><clipPath id="clip0x7fe998fd7430"><path d="M 0.5 145.8 L 937.0 145.8 L 937.0 1.3 L 0.5 1.3 Z M 0.5 145.8 "></path></clipPath><g clip-path="url(#clip0x7fe998fd7430)"><g><clipPath id="clip0x7fe998fd7bc0"><path d="M 1.5 2.3 L 937.0 2.3 L 937.0 144.8 L 1.5 144.8 Z M 1.5 2.3 "></path></clipPath><g clip-path="url(#clip0x7fe998fd7bc0)"><text xml:space="preserve" font-family="MaisonNeue-Book,Maison Neue" font-size="50.0" fill="#000000" transform="matrix(1.00, 0.00, -0.00, -1.00, 179.8, 55.0)">M</text><text xml:space="preserve" font-family="MaisonNeue-Book,Maison Neue" font-size="50.0" fill="#000000" transform="matrix(1.00, 0.00, -0.00, -1.00, 223.0, 55.0)">o</text><text xml:space="preserve" font-family="MaisonNeue-Book,Maison Neue" font-size="50.0" fill="#000000" transform="matrix(1.00, 0.00, -0.00, -1.00, 251.9, 55.0)">r</text><text xml:space="preserve" font-family="MaisonNeue-Book,Maison Neue" font-size="50.0" fill="#000000" transform="matrix(1.00, 0.00, -0.00, -1.00, 269.5, 55.0)">e</text><text xml:space="preserve" font-family="MaisonNeue-Book,Maison Neue" font-size="50.0" fill="#000000" transform="matrix(1.00, 0.00, -0.00, -1.00, 298.5, 55.0)"> </text><text xml:space="preserve" font-family="MaisonNeue-Book,Maison Neue" font-size="50.0" fill="#000000" transform="matrix(1.00, 0.00, -0.00, -1.00, 311.0, 55.0)">p</text><text xml:space="preserve" font-family="MaisonNeue-Book,Maison Neue" font-size="50.0" fill="#000000" transform="matrix(1.00, 0.00, -0.00, -1.00, 340.9, 55.0)">e</text><text xml:space="preserve" font-family="MaisonNeue-Book,Maison Neue" font-size="50.0" fill="#000000" transform="matrix(1.00, 0.00, -0.00, -1.00, 369.9, 55.0)">o</text><text xml:space="preserve" font-family="MaisonNeue-Book,Maison Neue" font-size="50.0" fill="#000000" transform="matrix(1.00, 0.00, -0.00, -1.00, 398.8, 55.0)">p</text><text xml:space="preserve" font-family="MaisonNeue-Book,Maison Neue" font-size="50.0" fill="#000000" transform="matrix(1.00, 0.00, -0.00, -1.00, 428.7, 55.0)">l</text><text xml:space="preserve" font-family="MaisonNeue-Book,Maison Neue" font-size="50.0" fill="#000000" transform="matrix(1.00, 0.00, -0.00, -1.00, 441.3, 55.0)">e</text><text xml:space="preserve" font-family="MaisonNeue-Book,Maison Neue" font-size="50.0" fill="#000000" transform="matrix(1.00, 0.00, -0.00, -1.00, 469.3, 55.0)">,</text><text xml:space="preserve" font-family="MaisonNeue-Book,Maison Neue" font-size="50.0" fill="#000000" transform="matrix(1.00, 0.00, -0.00, -1.00, 480.2, 55.0)"> </text><text xml:space="preserve" font-family="MaisonNeue-Book,Maison Neue" font-size="50.0" fill="#000000" transform="matrix(1.00, 0.00, -0.00, -1.00, 492.7, 55.0)">s</text><text xml:space="preserve" font-family="MaisonNeue-Book,Maison Neue" font-size="50.0" fill="#000000" transform="matrix(1.00, 0.00, -0.00, -1.00, 518.6, 55.0)">u</text><text xml:space="preserve" font-family="MaisonNeue-Book,Maison Neue" font-size="50.0" fill="#000000" transform="matrix(1.00, 0.00, -0.00, -1.00, 547.3, 55.0)">b</text><text xml:space="preserve" font-family="MaisonNeue-Book,Maison Neue" font-size="50.0" fill="#000000" transform="matrix(1.00, 0.00, -0.00, -1.00, 577.1, 55.0)">-</text><text xml:space="preserve" font-family="MaisonNeue-Book,Maison Neue" font-size="50.0" fill="#000000" transform="matrix(1.00, 0.00, -0.00, -1.00, 599.1, 55.0)">g</text><text xml:space="preserve" font-family="MaisonNeue-Book,Maison Neue" font-size="50.0" fill="#000000" transform="matrix(1.00, 0.00, -0.00, -1.00, 628.7, 55.0)">r</text><text xml:space="preserve" font-family="MaisonNeue-Book,Maison Neue" font-size="50.0" fill="#000000" transform="matrix(1.00, 0.00, -0.00, -1.00, 645.3, 55.0)">o</text><text xml:space="preserve" font-family="MaisonNeue-Book,Maison Neue" font-size="50.0" fill="#000000" transform="matrix(1.00, 0.00, -0.00, -1.00, 674.2, 55.0)">u</text><text xml:space="preserve" font-family="MaisonNeue-Book,Maison Neue" font-size="50.0" fill="#000000" transform="matrix(1.00, 0.00, -0.00, -1.00, 702.9, 55.0)">p</text><text xml:space="preserve" font-family="MaisonNeue-Book,Maison Neue" font-size="50.0" fill="#000000" transform="matrix(1.00, 0.00, -0.00, -1.00, 732.8, 55.0)">s</text></g></g></g></g><g><clipPath id="clip0x7fe998fe1d90"><path d="M 0.5 145.8 L 937.0 145.8 L 937.0 1.3 L 0.5 1.3 Z M 0.5 145.8 "></path></clipPath><g clip-path="url(#clip0x7fe998fe1d90)"><path d="M 937.0 431.4 L 937.0 861.9 " fill="none" stroke="#3697C6" stroke-opacity="0.32" stroke-width="1.00" transform="matrix(1.00, 0.00, 0.00, -1.00, -936.0, 720.2)"></path><path d="M 1.0 431.4 L 937.0 431.4 " fill="none" stroke="#3697C6" stroke-opacity="0.32" stroke-width="1.00" transform="matrix(1.00, 0.00, 0.00, -1.00, -936.0, 720.2)"></path><path d="M 937.0 431.4 L 1873.0 431.4 " fill="none" stroke="#3697C6" stroke-opacity="0.32" stroke-width="1.00" transform="matrix(1.00, 0.00, 0.00, -1.00, -936.0, 720.2)"></path><path d="M 1.0 574.9 L 937.0 574.9 " fill="none" stroke="#3697C6" stroke-opacity="0.32" stroke-width="1.00" transform="matrix(1.00, 0.00, 0.00, -1.00, -936.0, 720.2)"></path><path d="M 937.0 574.9 L 1873.0 574.9 " fill="none" stroke="#3697C6" stroke-opacity="0.32" stroke-width="1.00" transform="matrix(1.00, 0.00, 0.00, -1.00, -936.0, 720.2)"></path><path d="M 1.0 718.4 L 937.0 718.4 " fill="none" stroke="#3697C6" stroke-opacity="0.32" stroke-width="1.00" transform="matrix(1.00, 0.00, 0.00, -1.00, -936.0, 720.2)"></path><path d="M 937.0 718.4 L 1873.0 718.4 " fill="none" stroke="#3697C6" stroke-opacity="0.32" stroke-width="1.00" transform="matrix(1.00, 0.00, 0.00, -1.00, -936.0, 720.2)"></path><path d="M 1.0 861.9 L 937.0 861.9 " fill="none" stroke="#3697C6" stroke-opacity="0.32" stroke-width="1.00" transform="matrix(1.00, 0.00, 0.00, -1.00, -936.0, 720.2)"></path><path d="M 937.0 861.9 L 1873.0 861.9 " fill="none" stroke="#3697C6" stroke-opacity="0.32" stroke-width="1.00" transform="matrix(1.00, 0.00, 0.00, -1.00, -936.0, 720.2)"></path></g></g></g></svg>