<?xml version="1.0" encoding="UTF-8" standalone="no"?><svg xmlns="http://www.w3.org/2000/svg" xmlns:xlink="http://www.w3.org/1999/xlink" clip-rule="evenodd" stroke-miterlimit="10" viewBox="0 0 1874 1007"><desc>SVG generated by Keynote</desc><defs></defs><g transform="matrix(1.00, 0.00, -0.00, -1.00, 0.0, 1007.0)"><g><clipPath id="clip0x7fe99881ec70"><path d="M 1.0 1006.2 L 937.5 1006.2 L 937.5 862.2 L 1.0 862.2 Z M 1.0 1006.2 "></path></clipPath><g clip-path="url(#clip0x7fe99881ec70)"><path d="M 1.0 1006.2 L 937.0 1006.2 L 937.0 862.7 L 1.0 862.7 Z M 1.0 1006.2 " fill="#3BB77E"></path><path d="M 937.0 1006.2 L 1873.0 1006.2 L 1873.0 862.7 L 937.0 862.7 Z M 937.0 1006.2 " fill="#3BB77E"></path><path d="M 1.0 862.7 L 937.0 862.7 L 937.0 719.2 L 1.0 719.2 Z M 1.0 862.7 " fill="#FEFFFE"></path><path d="M 937.0 862.7 L 1873.0 862.7 L 1873.0 719.2 L 937.0 719.2 Z M 937.0 862.7 " fill="#FEFFFE"></path></g></g><g><clipPath id="clip0x7fe998833530"><path d="M 1.0 1006.2 L 937.5 1006.2 L 937.5 862.2 L 1.0 862.2 Z M 1.0 1006.2 "></path></clipPath><g clip-path="url(#clip0x7fe998833530)"><g><clipPath id="clip0x7fe998833cf0"><path d="M 1.0 863.2 L 936.5 863.2 L 936.5 1006.2 L 1.0 1006.2 Z M 1.0 863.2 "></path></clipPath><g clip-path="url(#clip0x7fe998833cf0)"><text xml:space="preserve" font-family="MaisonNeue-Demi,Maison Neue" font-weight="bold" font-size="70.0" fill="#FEFFFE" transform="matrix(1.00, 0.00, -0.00, -1.00, 348.1, 907.9)">S</text><text xml:space="preserve" font-family="MaisonNeue-Demi,Maison Neue" font-weight="bold" font-size="70.0" fill="#FEFFFE" transform="matrix(1.00, 0.00, -0.00, -1.00, 390.4, 907.9)">t</text><text xml:space="preserve" font-family="MaisonNeue-Demi,Maison Neue" font-weight="bold" font-size="70.0" fill="#FEFFFE" transform="matrix(1.00, 0.00, -0.00, -1.00, 416.3, 907.9)">a</text><text xml:space="preserve" font-family="MaisonNeue-Demi,Maison Neue" font-weight="bold" font-size="70.0" fill="#FEFFFE" transform="matrix(1.00, 0.00, -0.00, -1.00, 454.1, 907.9)">r</text><text xml:space="preserve" font-family="MaisonNeue-Demi,Maison Neue" font-weight="bold" font-size="70.0" fill="#FEFFFE" transform="matrix(1.00, 0.00, -0.00, -1.00, 480.2, 907.9)">t</text><text xml:space="preserve" font-family="MaisonNeue-Demi,Maison Neue" font-weight="bold" font-size="70.0" fill="#FEFFFE" transform="matrix(1.00, 0.00, -0.00, -1.00, 506.7, 907.9)">u</text><text xml:space="preserve" font-family="MaisonNeue-Demi,Maison Neue" font-weight="bold" font-size="70.0" fill="#FEFFFE" transform="matrix(1.00, 0.00, -0.00, -1.00, 546.9, 907.9)">p</text></g></g></g></g><g><clipPath id="clip0x7fe9988383c0"><path d="M 1.0 1006.2 L 937.5 1006.2 L 937.5 862.2 L 1.0 862.2 Z M 1.0 1006.2 "></path></clipPath><g clip-path="url(#clip0x7fe9988383c0)"><path d="M 937.0 1.0 L 937.0 144.5 " fill="none" stroke="#3697C6" stroke-width="1.00" transform="matrix(1.00, 0.00, 0.00, -1.00, 0.0, 1007.2)"></path><path d="M 937.0 144.5 L 937.0 288.0 " fill="none" stroke="#3697C6" stroke-opacity="0.32" stroke-width="1.00" transform="matrix(1.00, 0.00, 0.00, -1.00, 0.0, 1007.2)"></path><path d="M 1.0 144.5 L 937.0 144.5 " fill="none" stroke="#3697C6" stroke-opacity="0.32" stroke-width="1.00" transform="matrix(1.00, 0.00, 0.00, -1.00, 0.0, 1007.2)"></path><path d="M 937.0 144.5 L 1873.0 144.5 " fill="none" stroke="#3697C6" stroke-opacity="0.32" stroke-width="1.00" transform="matrix(1.00, 0.00, 0.00, -1.00, 0.0, 1007.2)"></path><path d="M 1.0 288.0 L 937.0 288.0 " fill="none" stroke="#3096C8" stroke-opacity="0.25" stroke-width="1.00" transform="matrix(1.00, 0.00, 0.00, -1.00, 0.0, 1007.2)"></path><path d="M 937.0 288.0 L 1873.0 288.0 " fill="none" stroke="#3096C8" stroke-opacity="0.25" stroke-width="1.00" transform="matrix(1.00, 0.00, 0.00, -1.00, 0.0, 1007.2)"></path></g></g><g><clipPath id="clip0x7fe99883bdf0"><path d="M 936.5 1006.2 L 1873.0 1006.2 L 1873.0 862.2 L 936.5 862.2 Z M 936.5 1006.2 "></path></clipPath><g clip-path="url(#clip0x7fe99883bdf0)"><path d="M 1.0 1006.2 L 937.0 1006.2 L 937.0 862.7 L 1.0 862.7 Z M 1.0 1006.2 " fill="#3BB77E"></path><path d="M 937.0 1006.2 L 1873.0 1006.2 L 1873.0 862.7 L 937.0 862.7 Z M 937.0 1006.2 " fill="#3BB77E"></path><path d="M 1.0 862.7 L 937.0 862.7 L 937.0 719.2 L 1.0 719.2 Z M 1.0 862.7 " fill="#FEFFFE"></path><path d="M 937.0 862.7 L 1873.0 862.7 L 1873.0 719.2 L 937.0 719.2 Z M 937.0 862.7 " fill="#FEFFFE"></path></g></g><g><clipPath id="clip0x7fe99883db30"><path d="M 936.5 1006.2 L 1873.0 1006.2 L 1873.0 862.2 L 936.5 862.2 Z M 936.5 1006.2 "></path></clipPath><g clip-path="url(#clip0x7fe99883db30)"><g><clipPath id="clip0x7fe99883e280"><path d="M 937.5 863.2 L 1873.0 863.2 L 1873.0 1006.2 L 937.5 1006.2 Z M 937.5 863.2 "></path></clipPath><g clip-path="url(#clip0x7fe99883e280)"><text xml:space="preserve" font-family="MaisonNeue-Demi,Maison Neue" font-weight="bold" font-size="70.0" fill="#FEFFFE" transform="matrix(1.00, 0.00, -0.00, -1.00, 1137.7, 907.9)">B</text><text xml:space="preserve" font-family="MaisonNeue-Demi,Maison Neue" font-weight="bold" font-size="70.0" fill="#FEFFFE" transform="matrix(1.00, 0.00, -0.00, -1.00, 1183.1, 907.9)">i</text><text xml:space="preserve" font-family="MaisonNeue-Demi,Maison Neue" font-weight="bold" font-size="70.0" fill="#FEFFFE" transform="matrix(1.00, 0.00, -0.00, -1.00, 1201.9, 907.9)">g</text><text xml:space="preserve" font-family="MaisonNeue-Demi,Maison Neue" font-weight="bold" font-size="70.0" fill="#FEFFFE" transform="matrix(1.00, 0.00, -0.00, -1.00, 1244.0, 907.9)">g</text><text xml:space="preserve" font-family="MaisonNeue-Demi,Maison Neue" font-weight="bold" font-size="70.0" fill="#FEFFFE" transform="matrix(1.00, 0.00, -0.00, -1.00, 1286.0, 907.9)">e</text><text xml:space="preserve" font-family="MaisonNeue-Demi,Maison Neue" font-weight="bold" font-size="70.0" fill="#FEFFFE" transform="matrix(1.00, 0.00, -0.00, -1.00, 1325.6, 907.9)">r</text><text xml:space="preserve" font-family="MaisonNeue-Demi,Maison Neue" font-weight="bold" font-size="70.0" fill="#FEFFFE" transform="matrix(1.00, 0.00, -0.00, -1.00, 1350.9, 907.9)"> </text><text xml:space="preserve" font-family="MaisonNeue-Demi,Maison Neue" font-weight="bold" font-size="70.0" fill="#FEFFFE" transform="matrix(1.00, 0.00, -0.00, -1.00, 1368.4, 907.9)">C</text><text xml:space="preserve" font-family="MaisonNeue-Demi,Maison Neue" font-weight="bold" font-size="70.0" fill="#FEFFFE" transform="matrix(1.00, 0.00, -0.00, -1.00, 1414.9, 907.9)">o</text><text xml:space="preserve" font-family="MaisonNeue-Demi,Maison Neue" font-weight="bold" font-size="70.0" fill="#FEFFFE" transform="matrix(1.00, 0.00, -0.00, -1.00, 1454.8, 907.9)">m</text><text xml:space="preserve" font-family="MaisonNeue-Demi,Maison Neue" font-weight="bold" font-size="70.0" fill="#FEFFFE" transform="matrix(1.00, 0.00, -0.00, -1.00, 1515.0, 907.9)">p</text><text xml:space="preserve" font-family="MaisonNeue-Demi,Maison Neue" font-weight="bold" font-size="70.0" fill="#FEFFFE" transform="matrix(1.00, 0.00, -0.00, -1.00, 1557.4, 907.9)">a</text><text xml:space="preserve" font-family="MaisonNeue-Demi,Maison Neue" font-weight="bold" font-size="70.0" fill="#FEFFFE" transform="matrix(1.00, 0.00, -0.00, -1.00, 1595.3, 907.9)">n</text><text xml:space="preserve" font-family="MaisonNeue-Demi,Maison Neue" font-weight="bold" font-size="70.0" fill="#FEFFFE" transform="matrix(1.00, 0.00, -0.00, -1.00, 1635.1, 907.9)">y</text></g></g></g></g><g><clipPath id="clip0x7fe998844590"><path d="M 936.5 1006.2 L 1873.0 1006.2 L 1873.0 862.2 L 936.5 862.2 Z M 936.5 1006.2 "></path></clipPath><g clip-path="url(#clip0x7fe998844590)"><path d="M 937.0 1.0 L 937.0 144.5 " fill="none" stroke="#3697C6" stroke-width="1.00" transform="matrix(1.00, 0.00, 0.00, -1.00, 0.0, 1007.2)"></path><path d="M 937.0 144.5 L 937.0 288.0 " fill="none" stroke="#3697C6" stroke-opacity="0.32" stroke-width="1.00" transform="matrix(1.00, 0.00, 0.00, -1.00, 0.0, 1007.2)"></path><path d="M 1.0 144.5 L 937.0 144.5 " fill="none" stroke="#3697C6" stroke-opacity="0.32" stroke-width="1.00" transform="matrix(1.00, 0.00, 0.00, -1.00, 0.0, 1007.2)"></path><path d="M 937.0 144.5 L 1873.0 144.5 " fill="none" stroke="#3697C6" stroke-opacity="0.32" stroke-width="1.00" transform="matrix(1.00, 0.00, 0.00, -1.00, 0.0, 1007.2)"></path><path d="M 1.0 288.0 L 937.0 288.0 " fill="none" stroke="#3096C8" stroke-opacity="0.25" stroke-width="1.00" transform="matrix(1.00, 0.00, 0.00, -1.00, 0.0, 1007.2)"></path><path d="M 937.0 288.0 L 1873.0 288.0 " fill="none" stroke="#3096C8" stroke-opacity="0.25" stroke-width="1.00" transform="matrix(1.00, 0.00, 0.00, -1.00, 0.0, 1007.2)"></path></g></g><g><clipPath id="clip0x7fe998847ec0"><path d="M 1.0 863.2 L 937.5 863.2 L 937.5 718.7 L 1.0 718.7 Z M 1.0 863.2 "></path></clipPath><g clip-path="url(#clip0x7fe998847ec0)"><path d="M 1.0 1006.2 L 937.0 1006.2 L 937.0 862.7 L 1.0 862.7 Z M 1.0 1006.2 " fill="#3BB77E"></path><path d="M 937.0 1006.2 L 1873.0 1006.2 L 1873.0 862.7 L 937.0 862.7 Z M 937.0 1006.2 " fill="#3BB77E"></path><path d="M 1.0 862.7 L 937.0 862.7 L 937.0 719.2 L 1.0 719.2 Z M 1.0 862.7 " fill="#FEFFFE"></path><path d="M 937.0 862.7 L 1873.0 862.7 L 1873.0 719.2 L 937.0 719.2 Z M 937.0 862.7 " fill="#FEFFFE"></path><path d="M 1.0 719.2 L 937.0 719.2 L 937.0 575.7 L 1.0 575.7 Z M 1.0 719.2 " fill="#FEFFFE"></path><path d="M 937.0 719.2 L 1873.0 719.2 L 1873.0 575.7 L 937.0 575.7 Z M 937.0 719.2 " fill="#FEFFFE"></path></g></g><g><clipPath id="clip0x7fe998bbaff0"><path d="M 1.0 863.2 L 937.5 863.2 L 937.5 718.7 L 1.0 718.7 Z M 1.0 863.2 "></path></clipPath><g clip-path="url(#clip0x7fe998bbaff0)"><g><clipPath id="clip0x7fe998bbb740"><path d="M 1.0 719.7 L 936.5 719.7 L 936.5 862.2 L 1.0 862.2 Z M 1.0 719.7 "></path></clipPath><g clip-path="url(#clip0x7fe998bbb740)"><text xml:space="preserve" font-family="MaisonNeue-Book,Maison Neue" font-size="50.0" fill="#000000" transform="matrix(1.00, 0.00, -0.00, -1.00, 271.7, 772.5)">R</text><text xml:space="preserve" font-family="MaisonNeue-Book,Maison Neue" font-size="50.0" fill="#000000" transform="matrix(1.00, 0.00, -0.00, -1.00, 303.8, 772.5)">e</text><text xml:space="preserve" font-family="MaisonNeue-Book,Maison Neue" font-size="50.0" fill="#000000" transform="matrix(1.00, 0.00, -0.00, -1.00, 332.8, 772.5)">a</text><text xml:space="preserve" font-family="MaisonNeue-Book,Maison Neue" font-size="50.0" fill="#000000" transform="matrix(1.00, 0.00, -0.00, -1.00, 359.8, 772.5)">l</text><text xml:space="preserve" font-family="MaisonNeue-Book,Maison Neue" font-size="50.0" fill="#000000" transform="matrix(1.00, 0.00, -0.00, -1.00, 372.5, 772.5)">l</text><text xml:space="preserve" font-family="MaisonNeue-Book,Maison Neue" font-size="50.0" fill="#000000" transform="matrix(1.00, 0.00, -0.00, -1.00, 385.1, 772.5)">y</text><text xml:space="preserve" font-family="MaisonNeue-Book,Maison Neue" font-size="50.0" fill="#000000" transform="matrix(1.00, 0.00, -0.00, -1.00, 410.0, 772.5)"> </text><text xml:space="preserve" font-family="MaisonNeue-Book,Maison Neue" font-size="50.0" fill="#000000" transform="matrix(1.00, 0.00, -0.00, -1.00, 422.5, 772.5)">f</text><text xml:space="preserve" font-family="MaisonNeue-Book,Maison Neue" font-size="50.0" fill="#000000" transform="matrix(1.00, 0.00, -0.00, -1.00, 439.0, 772.5)">a</text><text xml:space="preserve" font-family="MaisonNeue-Book,Maison Neue" font-size="50.0" fill="#000000" transform="matrix(1.00, 0.00, -0.00, -1.00, 466.0, 772.5)">s</text><text xml:space="preserve" font-family="MaisonNeue-Book,Maison Neue" font-size="50.0" fill="#000000" transform="matrix(1.00, 0.00, -0.00, -1.00, 491.8, 772.5)">t</text><text xml:space="preserve" font-family="MaisonNeue-Book,Maison Neue" font-size="50.0" fill="#000000" transform="matrix(1.00, 0.00, -0.00, -1.00, 509.8, 772.5)"> </text><text xml:space="preserve" font-family="MaisonNeue-Book,Maison Neue" font-size="50.0" fill="#000000" transform="matrix(1.00, 0.00, -0.00, -1.00, 522.3, 772.5)">p</text><text xml:space="preserve" font-family="MaisonNeue-Book,Maison Neue" font-size="50.0" fill="#000000" transform="matrix(1.00, 0.00, -0.00, -1.00, 552.2, 772.5)">a</text><text xml:space="preserve" font-family="MaisonNeue-Book,Maison Neue" font-size="50.0" fill="#000000" transform="matrix(1.00, 0.00, -0.00, -1.00, 579.2, 772.5)">c</text><text xml:space="preserve" font-family="MaisonNeue-Book,Maison Neue" font-size="50.0" fill="#000000" transform="matrix(1.00, 0.00, -0.00, -1.00, 607.1, 772.5)">e</text><text xml:space="preserve" font-family="MaisonNeue-Book,Maison Neue" font-size="50.0" fill="#000000" transform="matrix(1.00, 0.00, -0.00, -1.00, 636.1, 772.5)">d</text></g></g></g></g><g><clipPath id="clip0x7fe998bc3410"><path d="M 1.0 863.2 L 937.5 863.2 L 937.5 718.7 L 1.0 718.7 Z M 1.0 863.2 "></path></clipPath><g clip-path="url(#clip0x7fe998bc3410)"><path d="M 937.0 1.0 L 937.0 144.5 " fill="none" stroke="#3697C6" stroke-width="1.00" transform="matrix(1.00, 0.00, 0.00, -1.00, 0.0, 1007.2)"></path><path d="M 937.0 144.5 L 937.0 288.0 " fill="none" stroke="#3697C6" stroke-opacity="0.32" stroke-width="1.00" transform="matrix(1.00, 0.00, 0.00, -1.00, 0.0, 1007.2)"></path><path d="M 937.0 288.0 L 937.0 431.4 " fill="none" stroke="#3697C6" stroke-opacity="0.32" stroke-width="1.00" transform="matrix(1.00, 0.00, 0.00, -1.00, 0.0, 1007.2)"></path><path d="M 1.0 144.5 L 937.0 144.5 " fill="none" stroke="#3697C6" stroke-opacity="0.32" stroke-width="1.00" transform="matrix(1.00, 0.00, 0.00, -1.00, 0.0, 1007.2)"></path><path d="M 937.0 144.5 L 1873.0 144.5 " fill="none" stroke="#3697C6" stroke-opacity="0.32" stroke-width="1.00" transform="matrix(1.00, 0.00, 0.00, -1.00, 0.0, 1007.2)"></path><path d="M 1.0 288.0 L 937.0 288.0 " fill="none" stroke="#3096C8" stroke-opacity="0.25" stroke-width="1.00" transform="matrix(1.00, 0.00, 0.00, -1.00, 0.0, 1007.2)"></path><path d="M 937.0 288.0 L 1873.0 288.0 " fill="none" stroke="#3096C8" stroke-opacity="0.25" stroke-width="1.00" transform="matrix(1.00, 0.00, 0.00, -1.00, 0.0, 1007.2)"></path><path d="M 1.0 431.4 L 937.0 431.4 " fill="none" stroke="#3697C6" stroke-opacity="0.32" stroke-width="1.00" transform="matrix(1.00, 0.00, 0.00, -1.00, 0.0, 1007.2)"></path><path d="M 937.0 431.4 L 1873.0 431.4 " fill="none" stroke="#3697C6" stroke-opacity="0.32" stroke-width="1.00" transform="matrix(1.00, 0.00, 0.00, -1.00, 0.0, 1007.2)"></path></g></g></g></svg>