<?xml version="1.0" encoding="UTF-8" standalone="no"?><svg xmlns="http://www.w3.org/2000/svg" xmlns:xlink="http://www.w3.org/1999/xlink" clip-rule="evenodd" stroke-miterlimit="10" viewBox="0 0 1874 1007"><desc>SVG generated by Keynote</desc><defs></defs><g transform="matrix(1.00, 0.00, -0.00, -1.00, 0.0, 1007.0)"><g><clipPath id="clip0x7fe998b8fc70"><path d="M 1.0 1006.2 L 937.5 1006.2 L 937.5 862.2 L 1.0 862.2 Z M 1.0 1006.2 "></path></clipPath><g clip-path="url(#clip0x7fe998b8fc70)"><path d="M 1.0 1006.2 L 937.0 1006.2 L 937.0 862.7 L 1.0 862.7 Z M 1.0 1006.2 " fill="#3BB77E"></path><path d="M 937.0 1006.2 L 1873.0 1006.2 L 1873.0 862.7 L 937.0 862.7 Z M 937.0 1006.2 " fill="#3BB77E"></path><path d="M 1.0 862.7 L 937.0 862.7 L 937.0 719.2 L 1.0 719.2 Z M 1.0 862.7 " fill="#FEFFFE"></path><path d="M 937.0 862.7 L 1873.0 862.7 L 1873.0 719.2 L 937.0 719.2 Z M 937.0 862.7 " fill="#FEFFFE"></path></g></g><g><clipPath id="clip0x7fe998b99930"><path d="M 1.0 1006.2 L 937.5 1006.2 L 937.5 862.2 L 1.0 862.2 Z M 1.0 1006.2 "></path></clipPath><g clip-path="url(#clip0x7fe998b99930)"><g><clipPath id="clip0x7fe998b9a160"><path d="M 1.0 863.2 L 936.5 863.2 L 936.5 1006.2 L 1.0 1006.2 Z M 1.0 863.2 "></path></clipPath><g clip-path="url(#clip0x7fe998b9a160)"><text xml:space="preserve" font-family="MaisonNeue-Demi,Maison Neue" font-weight="bold" font-size="70.0" fill="#FEFFFE" transform="matrix(1.00, 0.00, -0.00, -1.00, 348.1, 907.9)">S</text><text xml:space="preserve" font-family="MaisonNeue-Demi,Maison Neue" font-weight="bold" font-size="70.0" fill="#FEFFFE" transform="matrix(1.00, 0.00, -0.00, -1.00, 390.4, 907.9)">t</text><text xml:space="preserve" font-family="MaisonNeue-Demi,Maison Neue" font-weight="bold" font-size="70.0" fill="#FEFFFE" transform="matrix(1.00, 0.00, -0.00, -1.00, 416.3, 907.9)">a</text><text xml:space="preserve" font-family="MaisonNeue-Demi,Maison Neue" font-weight="bold" font-size="70.0" fill="#FEFFFE" transform="matrix(1.00, 0.00, -0.00, -1.00, 454.1, 907.9)">r</text><text xml:space="preserve" font-family="MaisonNeue-Demi,Maison Neue" font-weight="bold" font-size="70.0" fill="#FEFFFE" transform="matrix(1.00, 0.00, -0.00, -1.00, 480.2, 907.9)">t</text><text xml:space="preserve" font-family="MaisonNeue-Demi,Maison Neue" font-weight="bold" font-size="70.0" fill="#FEFFFE" transform="matrix(1.00, 0.00, -0.00, -1.00, 506.7, 907.9)">u</text><text xml:space="preserve" font-family="MaisonNeue-Demi,Maison Neue" font-weight="bold" font-size="70.0" fill="#FEFFFE" transform="matrix(1.00, 0.00, -0.00, -1.00, 546.9, 907.9)">p</text></g></g></g></g><g><clipPath id="clip0x7fe998b9e830"><path d="M 1.0 1006.2 L 937.5 1006.2 L 937.5 862.2 L 1.0 862.2 Z M 1.0 1006.2 "></path></clipPath><g clip-path="url(#clip0x7fe998b9e830)"><path d="M 937.0 1.0 L 937.0 144.5 " fill="none" stroke="#3697C6" stroke-width="1.00" transform="matrix(1.00, 0.00, 0.00, -1.00, 0.0, 1007.2)"></path><path d="M 937.0 144.5 L 937.0 288.0 " fill="none" stroke="#3697C6" stroke-opacity="0.32" stroke-width="1.00" transform="matrix(1.00, 0.00, 0.00, -1.00, 0.0, 1007.2)"></path><path d="M 1.0 144.5 L 937.0 144.5 " fill="none" stroke="#3697C6" stroke-opacity="0.32" stroke-width="1.00" transform="matrix(1.00, 0.00, 0.00, -1.00, 0.0, 1007.2)"></path><path d="M 937.0 144.5 L 1873.0 144.5 " fill="none" stroke="#3697C6" stroke-opacity="0.32" stroke-width="1.00" transform="matrix(1.00, 0.00, 0.00, -1.00, 0.0, 1007.2)"></path><path d="M 1.0 288.0 L 937.0 288.0 " fill="none" stroke="#3096C8" stroke-opacity="0.25" stroke-width="1.00" transform="matrix(1.00, 0.00, 0.00, -1.00, 0.0, 1007.2)"></path><path d="M 937.0 288.0 L 1873.0 288.0 " fill="none" stroke="#3096C8" stroke-opacity="0.25" stroke-width="1.00" transform="matrix(1.00, 0.00, 0.00, -1.00, 0.0, 1007.2)"></path></g></g><g><clipPath id="clip0x7fe998ba2260"><path d="M 936.5 1006.2 L 1873.0 1006.2 L 1873.0 862.2 L 936.5 862.2 Z M 936.5 1006.2 "></path></clipPath><g clip-path="url(#clip0x7fe998ba2260)"><path d="M 1.0 1006.2 L 937.0 1006.2 L 937.0 862.7 L 1.0 862.7 Z M 1.0 1006.2 " fill="#3BB77E"></path><path d="M 937.0 1006.2 L 1873.0 1006.2 L 1873.0 862.7 L 937.0 862.7 Z M 937.0 1006.2 " fill="#3BB77E"></path><path d="M 1.0 862.7 L 937.0 862.7 L 937.0 719.2 L 1.0 719.2 Z M 1.0 862.7 " fill="#FEFFFE"></path><path d="M 937.0 862.7 L 1873.0 862.7 L 1873.0 719.2 L 937.0 719.2 Z M 937.0 862.7 " fill="#FEFFFE"></path></g></g><g><clipPath id="clip0x7fe998ba3fa0"><path d="M 936.5 1006.2 L 1873.0 1006.2 L 1873.0 862.2 L 936.5 862.2 Z M 936.5 1006.2 "></path></clipPath><g clip-path="url(#clip0x7fe998ba3fa0)"><g><clipPath id="clip0x7fe998ba46f0"><path d="M 937.5 863.2 L 1873.0 863.2 L 1873.0 1006.2 L 937.5 1006.2 Z M 937.5 863.2 "></path></clipPath><g clip-path="url(#clip0x7fe998ba46f0)"><text xml:space="preserve" font-family="MaisonNeue-Demi,Maison Neue" font-weight="bold" font-size="70.0" fill="#FEFFFE" transform="matrix(1.00, 0.00, -0.00, -1.00, 1137.7, 907.9)">B</text><text xml:space="preserve" font-family="MaisonNeue-Demi,Maison Neue" font-weight="bold" font-size="70.0" fill="#FEFFFE" transform="matrix(1.00, 0.00, -0.00, -1.00, 1183.1, 907.9)">i</text><text xml:space="preserve" font-family="MaisonNeue-Demi,Maison Neue" font-weight="bold" font-size="70.0" fill="#FEFFFE" transform="matrix(1.00, 0.00, -0.00, -1.00, 1201.9, 907.9)">g</text><text xml:space="preserve" font-family="MaisonNeue-Demi,Maison Neue" font-weight="bold" font-size="70.0" fill="#FEFFFE" transform="matrix(1.00, 0.00, -0.00, -1.00, 1244.0, 907.9)">g</text><text xml:space="preserve" font-family="MaisonNeue-Demi,Maison Neue" font-weight="bold" font-size="70.0" fill="#FEFFFE" transform="matrix(1.00, 0.00, -0.00, -1.00, 1286.0, 907.9)">e</text><text xml:space="preserve" font-family="MaisonNeue-Demi,Maison Neue" font-weight="bold" font-size="70.0" fill="#FEFFFE" transform="matrix(1.00, 0.00, -0.00, -1.00, 1325.6, 907.9)">r</text><text xml:space="preserve" font-family="MaisonNeue-Demi,Maison Neue" font-weight="bold" font-size="70.0" fill="#FEFFFE" transform="matrix(1.00, 0.00, -0.00, -1.00, 1350.9, 907.9)"> </text><text xml:space="preserve" font-family="MaisonNeue-Demi,Maison Neue" font-weight="bold" font-size="70.0" fill="#FEFFFE" transform="matrix(1.00, 0.00, -0.00, -1.00, 1368.4, 907.9)">C</text><text xml:space="preserve" font-family="MaisonNeue-Demi,Maison Neue" font-weight="bold" font-size="70.0" fill="#FEFFFE" transform="matrix(1.00, 0.00, -0.00, -1.00, 1414.9, 907.9)">o</text><text xml:space="preserve" font-family="MaisonNeue-Demi,Maison Neue" font-weight="bold" font-size="70.0" fill="#FEFFFE" transform="matrix(1.00, 0.00, -0.00, -1.00, 1454.8, 907.9)">m</text><text xml:space="preserve" font-family="MaisonNeue-Demi,Maison Neue" font-weight="bold" font-size="70.0" fill="#FEFFFE" transform="matrix(1.00, 0.00, -0.00, -1.00, 1515.0, 907.9)">p</text><text xml:space="preserve" font-family="MaisonNeue-Demi,Maison Neue" font-weight="bold" font-size="70.0" fill="#FEFFFE" transform="matrix(1.00, 0.00, -0.00, -1.00, 1557.4, 907.9)">a</text><text xml:space="preserve" font-family="MaisonNeue-Demi,Maison Neue" font-weight="bold" font-size="70.0" fill="#FEFFFE" transform="matrix(1.00, 0.00, -0.00, -1.00, 1595.3, 907.9)">n</text><text xml:space="preserve" font-family="MaisonNeue-Demi,Maison Neue" font-weight="bold" font-size="70.0" fill="#FEFFFE" transform="matrix(1.00, 0.00, -0.00, -1.00, 1635.1, 907.9)">y</text></g></g></g></g><g><clipPath id="clip0x7fe998baaa00"><path d="M 936.5 1006.2 L 1873.0 1006.2 L 1873.0 862.2 L 936.5 862.2 Z M 936.5 1006.2 "></path></clipPath><g clip-path="url(#clip0x7fe998baaa00)"><path d="M 937.0 1.0 L 937.0 144.5 " fill="none" stroke="#3697C6" stroke-width="1.00" transform="matrix(1.00, 0.00, 0.00, -1.00, 0.0, 1007.2)"></path><path d="M 937.0 144.5 L 937.0 288.0 " fill="none" stroke="#3697C6" stroke-opacity="0.32" stroke-width="1.00" transform="matrix(1.00, 0.00, 0.00, -1.00, 0.0, 1007.2)"></path><path d="M 1.0 144.5 L 937.0 144.5 " fill="none" stroke="#3697C6" stroke-opacity="0.32" stroke-width="1.00" transform="matrix(1.00, 0.00, 0.00, -1.00, 0.0, 1007.2)"></path><path d="M 937.0 144.5 L 1873.0 144.5 " fill="none" stroke="#3697C6" stroke-opacity="0.32" stroke-width="1.00" transform="matrix(1.00, 0.00, 0.00, -1.00, 0.0, 1007.2)"></path><path d="M 1.0 288.0 L 937.0 288.0 " fill="none" stroke="#3096C8" stroke-opacity="0.25" stroke-width="1.00" transform="matrix(1.00, 0.00, 0.00, -1.00, 0.0, 1007.2)"></path><path d="M 937.0 288.0 L 1873.0 288.0 " fill="none" stroke="#3096C8" stroke-opacity="0.25" stroke-width="1.00" transform="matrix(1.00, 0.00, 0.00, -1.00, 0.0, 1007.2)"></path></g></g></g></svg>