<?xml version="1.0" encoding="UTF-8" standalone="no"?><svg xmlns="http://www.w3.org/2000/svg" xmlns:xlink="http://www.w3.org/1999/xlink" clip-rule="evenodd" stroke-miterlimit="10" viewBox="0 0 938 146"><desc>SVG generated by Keynote</desc><defs></defs><g transform="matrix(1.00, 0.00, -0.00, -1.00, 0.0, 146.0)"><g><clipPath id="clip0x7fe99a35ced0"><path d="M 0.5 145.3 L 937.0 145.3 L 937.0 0.8 L 0.5 0.8 Z M 0.5 145.3 "></path></clipPath><g clip-path="url(#clip0x7fe99a35ced0)"><path d="M -935.0 288.3 L 1.0 288.3 L 1.0 144.8 L -935.0 144.8 Z M -935.0 288.3 " fill="#FEFFFE"></path><path d="M 1.0 288.3 L 937.0 288.3 L 937.0 144.8 L 1.0 144.8 Z M 1.0 288.3 " fill="#FEFFFE"></path><path d="M -935.0 144.8 L 1.0 144.8 L 1.0 1.3 L -935.0 1.3 Z M -935.0 144.8 " fill="#FEFFFE"></path><path d="M 1.0 144.8 L 937.0 144.8 L 937.0 1.3 L 1.0 1.3 Z M 1.0 144.8 " fill="#FEFFFE"></path><path d="M -935.0 1.3 L 1.0 1.3 L 1.0 -142.2 L -935.0 -142.2 Z M -935.0 1.3 " fill="#FEFFFE"></path><path d="M 1.0 1.3 L 937.0 1.3 L 937.0 -142.2 L 1.0 -142.2 Z M 1.0 1.3 " fill="#FEFFFE"></path></g></g><g><clipPath id="clip0x7fe99a35fb10"><path d="M 0.5 145.3 L 937.0 145.3 L 937.0 0.8 L 0.5 0.8 Z M 0.5 145.3 "></path></clipPath><g clip-path="url(#clip0x7fe99a35fb10)"><g><clipPath id="clip0x7fe99a3602a0"><path d="M 1.5 1.8 L 937.0 1.8 L 937.0 144.3 L 1.5 144.3 Z M 1.5 1.8 "></path></clipPath><g clip-path="url(#clip0x7fe99a3602a0)"><text xml:space="preserve" font-family="MaisonNeue-Book,Maison Neue" font-size="50.0" fill="#000000" transform="matrix(1.00, 0.00, -0.00, -1.00, 56.0, 54.5)">L</text><text xml:space="preserve" font-family="MaisonNeue-Book,Maison Neue" font-size="50.0" fill="#000000" transform="matrix(1.00, 0.00, -0.00, -1.00, 81.6, 54.5)">o</text><text xml:space="preserve" font-family="MaisonNeue-Book,Maison Neue" font-size="50.0" fill="#000000" transform="matrix(1.00, 0.00, -0.00, -1.00, 110.5, 54.5)">t</text><text xml:space="preserve" font-family="MaisonNeue-Book,Maison Neue" font-size="50.0" fill="#000000" transform="matrix(1.00, 0.00, -0.00, -1.00, 128.0, 54.5)">s</text><text xml:space="preserve" font-family="MaisonNeue-Book,Maison Neue" font-size="50.0" fill="#000000" transform="matrix(1.00, 0.00, -0.00, -1.00, 153.8, 54.5)"> </text><text xml:space="preserve" font-family="MaisonNeue-Book,Maison Neue" font-size="50.0" fill="#000000" transform="matrix(1.00, 0.00, -0.00, -1.00, 166.3, 54.5)">o</text><text xml:space="preserve" font-family="MaisonNeue-Book,Maison Neue" font-size="50.0" fill="#000000" transform="matrix(1.00, 0.00, -0.00, -1.00, 195.2, 54.5)">f</text><text xml:space="preserve" font-family="MaisonNeue-Book,Maison Neue" font-size="50.0" fill="#000000" transform="matrix(1.00, 0.00, -0.00, -1.00, 211.7, 54.5)"> </text><text xml:space="preserve" font-family="MaisonNeue-Book,Maison Neue" font-size="50.0" fill="#000000" transform="matrix(1.00, 0.00, -0.00, -1.00, 224.2, 54.5)">o</text><text xml:space="preserve" font-family="MaisonNeue-Book,Maison Neue" font-size="50.0" fill="#000000" transform="matrix(1.00, 0.00, -0.00, -1.00, 253.1, 54.5)">t</text><text xml:space="preserve" font-family="MaisonNeue-Book,Maison Neue" font-size="50.0" fill="#000000" transform="matrix(1.00, 0.00, -0.00, -1.00, 271.1, 54.5)">h</text><text xml:space="preserve" font-family="MaisonNeue-Book,Maison Neue" font-size="50.0" fill="#000000" transform="matrix(1.00, 0.00, -0.00, -1.00, 300.8, 54.5)">e</text><text xml:space="preserve" font-family="MaisonNeue-Book,Maison Neue" font-size="50.0" fill="#000000" transform="matrix(1.00, 0.00, -0.00, -1.00, 329.8, 54.5)">r</text><text xml:space="preserve" font-family="MaisonNeue-Book,Maison Neue" font-size="50.0" fill="#000000" transform="matrix(1.00, 0.00, -0.00, -1.00, 347.4, 54.5)"> </text><text xml:space="preserve" font-family="MaisonNeue-Book,Maison Neue" font-size="50.0" fill="#000000" transform="matrix(1.00, 0.00, -0.00, -1.00, 359.9, 54.5)">i</text><text xml:space="preserve" font-family="MaisonNeue-Book,Maison Neue" font-size="50.0" fill="#000000" transform="matrix(1.00, 0.00, -0.00, -1.00, 373.1, 54.5)">n</text><text xml:space="preserve" font-family="MaisonNeue-Book,Maison Neue" font-size="50.0" fill="#000000" transform="matrix(1.00, 0.00, -0.00, -1.00, 402.4, 54.5)">t</text><text xml:space="preserve" font-family="MaisonNeue-Book,Maison Neue" font-size="50.0" fill="#000000" transform="matrix(1.00, 0.00, -0.00, -1.00, 419.4, 54.5)">e</text><text xml:space="preserve" font-family="MaisonNeue-Book,Maison Neue" font-size="50.0" fill="#000000" transform="matrix(1.00, 0.00, -0.00, -1.00, 448.4, 54.5)">r</text><text xml:space="preserve" font-family="MaisonNeue-Book,Maison Neue" font-size="50.0" fill="#000000" transform="matrix(1.00, 0.00, -0.00, -1.00, 466.0, 54.5)">n</text><text xml:space="preserve" font-family="MaisonNeue-Book,Maison Neue" font-size="50.0" fill="#000000" transform="matrix(1.00, 0.00, -0.00, -1.00, 495.3, 54.5)">s</text><text xml:space="preserve" font-family="MaisonNeue-Book,Maison Neue" font-size="50.0" fill="#000000" transform="matrix(1.00, 0.00, -0.00, -1.00, 521.2, 54.5)"> </text><text xml:space="preserve" font-family="MaisonNeue-Book,Maison Neue" font-size="50.0" fill="#000000" transform="matrix(1.00, 0.00, -0.00, -1.00, 533.7, 54.5)">a</text><text xml:space="preserve" font-family="MaisonNeue-Book,Maison Neue" font-size="50.0" fill="#000000" transform="matrix(1.00, 0.00, -0.00, -1.00, 560.7, 54.5)">n</text><text xml:space="preserve" font-family="MaisonNeue-Book,Maison Neue" font-size="50.0" fill="#000000" transform="matrix(1.00, 0.00, -0.00, -1.00, 590.0, 54.5)">d</text><text xml:space="preserve" font-family="MaisonNeue-Book,Maison Neue" font-size="50.0" fill="#000000" transform="matrix(1.00, 0.00, -0.00, -1.00, 619.8, 54.5)"> </text><text xml:space="preserve" font-family="MaisonNeue-Book,Maison Neue" font-size="50.0" fill="#000000" transform="matrix(1.00, 0.00, -0.00, -1.00, 632.3, 54.5)">e</text><text xml:space="preserve" font-family="MaisonNeue-Book,Maison Neue" font-size="50.0" fill="#000000" transform="matrix(1.00, 0.00, -0.00, -1.00, 661.3, 54.5)">m</text><text xml:space="preserve" font-family="MaisonNeue-Book,Maison Neue" font-size="50.0" fill="#000000" transform="matrix(1.00, 0.00, -0.00, -1.00, 703.8, 54.5)">p</text><text xml:space="preserve" font-family="MaisonNeue-Book,Maison Neue" font-size="50.0" fill="#000000" transform="matrix(1.00, 0.00, -0.00, -1.00, 733.7, 54.5)">l</text><text xml:space="preserve" font-family="MaisonNeue-Book,Maison Neue" font-size="50.0" fill="#000000" transform="matrix(1.00, 0.00, -0.00, -1.00, 746.4, 54.5)">o</text><text xml:space="preserve" font-family="MaisonNeue-Book,Maison Neue" font-size="50.0" fill="#000000" transform="matrix(1.00, 0.00, -0.00, -1.00, 774.3, 54.5)">y</text><text xml:space="preserve" font-family="MaisonNeue-Book,Maison Neue" font-size="50.0" fill="#000000" transform="matrix(1.00, 0.00, -0.00, -1.00, 798.6, 54.5)">e</text><text xml:space="preserve" font-family="MaisonNeue-Book,Maison Neue" font-size="50.0" fill="#000000" transform="matrix(1.00, 0.00, -0.00, -1.00, 827.6, 54.5)">e</text><text xml:space="preserve" font-family="MaisonNeue-Book,Maison Neue" font-size="50.0" fill="#000000" transform="matrix(1.00, 0.00, -0.00, -1.00, 856.6, 54.5)">s</text></g></g></g></g><g><clipPath id="clip0x7fe99a36ec10"><path d="M 0.5 145.3 L 937.0 145.3 L 937.0 0.8 L 0.5 0.8 Z M 0.5 145.3 "></path></clipPath><g clip-path="url(#clip0x7fe99a36ec10)"><path d="M 937.0 574.9 L 937.0 861.9 " fill="none" stroke="#3697C6" stroke-opacity="0.32" stroke-width="1.00" transform="matrix(1.00, 0.00, 0.00, -1.00, -936.0, 863.2)"></path><path d="M 937.0 861.9 L 937.0 1005.4 " fill="none" stroke="#3697C6" stroke-opacity="0.32" stroke-width="1.00" transform="matrix(1.00, 0.00, 0.00, -1.00, -936.0, 863.2)"></path><path d="M 1.0 574.9 L 937.0 574.9 " fill="none" stroke="#3697C6" stroke-opacity="0.32" stroke-width="1.00" transform="matrix(1.00, 0.00, 0.00, -1.00, -936.0, 863.2)"></path><path d="M 937.0 574.9 L 1873.0 574.9 " fill="none" stroke="#3697C6" stroke-opacity="0.32" stroke-width="1.00" transform="matrix(1.00, 0.00, 0.00, -1.00, -936.0, 863.2)"></path><path d="M 1.0 718.4 L 937.0 718.4 " fill="none" stroke="#3697C6" stroke-opacity="0.32" stroke-width="1.00" transform="matrix(1.00, 0.00, 0.00, -1.00, -936.0, 863.2)"></path><path d="M 937.0 718.4 L 1873.0 718.4 " fill="none" stroke="#3697C6" stroke-opacity="0.32" stroke-width="1.00" transform="matrix(1.00, 0.00, 0.00, -1.00, -936.0, 863.2)"></path><path d="M 1.0 861.9 L 937.0 861.9 " fill="none" stroke="#3697C6" stroke-opacity="0.32" stroke-width="1.00" transform="matrix(1.00, 0.00, 0.00, -1.00, -936.0, 863.2)"></path><path d="M 937.0 861.9 L 1873.0 861.9 " fill="none" stroke="#3697C6" stroke-opacity="0.32" stroke-width="1.00" transform="matrix(1.00, 0.00, 0.00, -1.00, -936.0, 863.2)"></path><path d="M 1.0 1005.4 L 937.0 1005.4 " fill="none" stroke="#3096C8" stroke-opacity="0.25" stroke-width="1.00" transform="matrix(1.00, 0.00, 0.00, -1.00, -936.0, 863.2)"></path><path d="M 937.0 1005.4 L 1873.0 1005.4 " fill="none" stroke="#3096C8" stroke-opacity="0.25" stroke-width="1.00" transform="matrix(1.00, 0.00, 0.00, -1.00, -936.0, 863.2)"></path></g></g></g></svg>