<?xml version="1.0" encoding="UTF-8" standalone="no"?><svg xmlns="http://www.w3.org/2000/svg" xmlns:xlink="http://www.w3.org/1999/xlink" clip-rule="evenodd" stroke-miterlimit="10" viewBox="0 0 939 146"><desc>SVG generated by Keynote</desc><defs></defs><g transform="matrix(1.00, 0.00, -0.00, -1.00, 0.0, 146.0)"><g><clipPath id="clip0x7fe99a147f30"><path d="M 1.0 145.3 L 937.5 145.3 L 937.5 0.8 L 1.0 0.8 Z M 1.0 145.3 "></path></clipPath><g clip-path="url(#clip0x7fe99a147f30)"><path d="M 1.0 288.3 L 937.0 288.3 L 937.0 144.8 L 1.0 144.8 Z M 1.0 288.3 " fill="#FEFFFE"></path><path d="M 937.0 288.3 L 1873.0 288.3 L 1873.0 144.8 L 937.0 144.8 Z M 937.0 288.3 " fill="#FEFFFE"></path><path d="M 1.0 144.8 L 937.0 144.8 L 937.0 1.3 L 1.0 1.3 Z M 1.0 144.8 " fill="#FEFFFE"></path><path d="M 937.0 144.8 L 1873.0 144.8 L 1873.0 1.3 L 937.0 1.3 Z M 937.0 144.8 " fill="#FEFFFE"></path><path d="M 1.0 1.3 L 937.0 1.3 L 937.0 -142.2 L 1.0 -142.2 Z M 1.0 1.3 " fill="#FEFFFE"></path><path d="M 937.0 1.3 L 1873.0 1.3 L 1873.0 -142.2 L 937.0 -142.2 Z M 937.0 1.3 " fill="#FEFFFE"></path></g></g><g><clipPath id="clip0x7fe99a14ac40"><path d="M 1.0 145.3 L 937.5 145.3 L 937.5 0.8 L 1.0 0.8 Z M 1.0 145.3 "></path></clipPath><g clip-path="url(#clip0x7fe99a14ac40)"><g><clipPath id="clip0x7fe99a14b3f0"><path d="M 1.0 1.8 L 936.5 1.8 L 936.5 144.3 L 1.0 144.3 Z M 1.0 1.8 "></path></clipPath><g clip-path="url(#clip0x7fe99a14b3f0)"><text xml:space="preserve" font-family="MaisonNeue-Book,Maison Neue" font-size="50.0" fill="#000000" transform="matrix(1.00, 0.00, -0.00, -1.00, 130.3, 54.5)">F</text><text xml:space="preserve" font-family="MaisonNeue-Book,Maison Neue" font-size="50.0" fill="#000000" transform="matrix(1.00, 0.00, -0.00, -1.00, 157.7, 54.5)">e</text><text xml:space="preserve" font-family="MaisonNeue-Book,Maison Neue" font-size="50.0" fill="#000000" transform="matrix(1.00, 0.00, -0.00, -1.00, 186.7, 54.5)">w</text><text xml:space="preserve" font-family="MaisonNeue-Book,Maison Neue" font-size="50.0" fill="#000000" transform="matrix(1.00, 0.00, -0.00, -1.00, 225.5, 54.5)">e</text><text xml:space="preserve" font-family="MaisonNeue-Book,Maison Neue" font-size="50.0" fill="#000000" transform="matrix(1.00, 0.00, -0.00, -1.00, 254.5, 54.5)">r</text><text xml:space="preserve" font-family="MaisonNeue-Book,Maison Neue" font-size="50.0" fill="#000000" transform="matrix(1.00, 0.00, -0.00, -1.00, 272.1, 54.5)"> </text><text xml:space="preserve" font-family="MaisonNeue-Book,Maison Neue" font-size="50.0" fill="#000000" transform="matrix(1.00, 0.00, -0.00, -1.00, 284.6, 54.5)">i</text><text xml:space="preserve" font-family="MaisonNeue-Book,Maison Neue" font-size="50.0" fill="#000000" transform="matrix(1.00, 0.00, -0.00, -1.00, 297.8, 54.5)">n</text><text xml:space="preserve" font-family="MaisonNeue-Book,Maison Neue" font-size="50.0" fill="#000000" transform="matrix(1.00, 0.00, -0.00, -1.00, 327.1, 54.5)">t</text><text xml:space="preserve" font-family="MaisonNeue-Book,Maison Neue" font-size="50.0" fill="#000000" transform="matrix(1.00, 0.00, -0.00, -1.00, 344.1, 54.5)">e</text><text xml:space="preserve" font-family="MaisonNeue-Book,Maison Neue" font-size="50.0" fill="#000000" transform="matrix(1.00, 0.00, -0.00, -1.00, 373.1, 54.5)">r</text><text xml:space="preserve" font-family="MaisonNeue-Book,Maison Neue" font-size="50.0" fill="#000000" transform="matrix(1.00, 0.00, -0.00, -1.00, 390.7, 54.5)">n</text><text xml:space="preserve" font-family="MaisonNeue-Book,Maison Neue" font-size="50.0" fill="#000000" transform="matrix(1.00, 0.00, -0.00, -1.00, 420.0, 54.5)">s</text><text xml:space="preserve" font-family="MaisonNeue-Book,Maison Neue" font-size="50.0" fill="#000000" transform="matrix(1.00, 0.00, -0.00, -1.00, 445.9, 54.5)"> </text><text xml:space="preserve" font-family="MaisonNeue-Book,Maison Neue" font-size="50.0" fill="#000000" transform="matrix(1.00, 0.00, -0.00, -1.00, 458.4, 54.5)">a</text><text xml:space="preserve" font-family="MaisonNeue-Book,Maison Neue" font-size="50.0" fill="#000000" transform="matrix(1.00, 0.00, -0.00, -1.00, 485.4, 54.5)">n</text><text xml:space="preserve" font-family="MaisonNeue-Book,Maison Neue" font-size="50.0" fill="#000000" transform="matrix(1.00, 0.00, -0.00, -1.00, 514.7, 54.5)">d</text><text xml:space="preserve" font-family="MaisonNeue-Book,Maison Neue" font-size="50.0" fill="#000000" transform="matrix(1.00, 0.00, -0.00, -1.00, 544.5, 54.5)"> </text><text xml:space="preserve" font-family="MaisonNeue-Book,Maison Neue" font-size="50.0" fill="#000000" transform="matrix(1.00, 0.00, -0.00, -1.00, 557.0, 54.5)">e</text><text xml:space="preserve" font-family="MaisonNeue-Book,Maison Neue" font-size="50.0" fill="#000000" transform="matrix(1.00, 0.00, -0.00, -1.00, 586.0, 54.5)">m</text><text xml:space="preserve" font-family="MaisonNeue-Book,Maison Neue" font-size="50.0" fill="#000000" transform="matrix(1.00, 0.00, -0.00, -1.00, 628.5, 54.5)">p</text><text xml:space="preserve" font-family="MaisonNeue-Book,Maison Neue" font-size="50.0" fill="#000000" transform="matrix(1.00, 0.00, -0.00, -1.00, 658.4, 54.5)">l</text><text xml:space="preserve" font-family="MaisonNeue-Book,Maison Neue" font-size="50.0" fill="#000000" transform="matrix(1.00, 0.00, -0.00, -1.00, 671.1, 54.5)">o</text><text xml:space="preserve" font-family="MaisonNeue-Book,Maison Neue" font-size="50.0" fill="#000000" transform="matrix(1.00, 0.00, -0.00, -1.00, 699.0, 54.5)">y</text><text xml:space="preserve" font-family="MaisonNeue-Book,Maison Neue" font-size="50.0" fill="#000000" transform="matrix(1.00, 0.00, -0.00, -1.00, 723.3, 54.5)">e</text><text xml:space="preserve" font-family="MaisonNeue-Book,Maison Neue" font-size="50.0" fill="#000000" transform="matrix(1.00, 0.00, -0.00, -1.00, 752.3, 54.5)">e</text><text xml:space="preserve" font-family="MaisonNeue-Book,Maison Neue" font-size="50.0" fill="#000000" transform="matrix(1.00, 0.00, -0.00, -1.00, 781.3, 54.5)">s</text></g></g></g></g><g><clipPath id="clip0x7fe99a156ee0"><path d="M 1.0 145.3 L 937.5 145.3 L 937.5 0.8 L 1.0 0.8 Z M 1.0 145.3 "></path></clipPath><g clip-path="url(#clip0x7fe99a156ee0)"><path d="M 937.0 574.9 L 937.0 861.9 " fill="none" stroke="#3697C6" stroke-opacity="0.32" stroke-width="1.00" transform="matrix(1.00, 0.00, 0.00, -1.00, 0.0, 863.2)"></path><path d="M 937.0 861.9 L 937.0 1005.4 " fill="none" stroke="#3697C6" stroke-opacity="0.32" stroke-width="1.00" transform="matrix(1.00, 0.00, 0.00, -1.00, 0.0, 863.2)"></path><path d="M 1.0 574.9 L 937.0 574.9 " fill="none" stroke="#3697C6" stroke-opacity="0.32" stroke-width="1.00" transform="matrix(1.00, 0.00, 0.00, -1.00, 0.0, 863.2)"></path><path d="M 937.0 574.9 L 1873.0 574.9 " fill="none" stroke="#3697C6" stroke-opacity="0.32" stroke-width="1.00" transform="matrix(1.00, 0.00, 0.00, -1.00, 0.0, 863.2)"></path><path d="M 1.0 718.4 L 937.0 718.4 " fill="none" stroke="#3697C6" stroke-opacity="0.32" stroke-width="1.00" transform="matrix(1.00, 0.00, 0.00, -1.00, 0.0, 863.2)"></path><path d="M 937.0 718.4 L 1873.0 718.4 " fill="none" stroke="#3697C6" stroke-opacity="0.32" stroke-width="1.00" transform="matrix(1.00, 0.00, 0.00, -1.00, 0.0, 863.2)"></path><path d="M 1.0 861.9 L 937.0 861.9 " fill="none" stroke="#3697C6" stroke-opacity="0.32" stroke-width="1.00" transform="matrix(1.00, 0.00, 0.00, -1.00, 0.0, 863.2)"></path><path d="M 937.0 861.9 L 1873.0 861.9 " fill="none" stroke="#3697C6" stroke-opacity="0.32" stroke-width="1.00" transform="matrix(1.00, 0.00, 0.00, -1.00, 0.0, 863.2)"></path><path d="M 1.0 1005.4 L 937.0 1005.4 " fill="none" stroke="#3096C8" stroke-opacity="0.25" stroke-width="1.00" transform="matrix(1.00, 0.00, 0.00, -1.00, 0.0, 863.2)"></path><path d="M 937.0 1005.4 L 1873.0 1005.4 " fill="none" stroke="#3096C8" stroke-opacity="0.25" stroke-width="1.00" transform="matrix(1.00, 0.00, 0.00, -1.00, 0.0, 863.2)"></path></g></g></g></svg>