<?xml version="1.0" encoding="UTF-8" standalone="no"?><svg xmlns="http://www.w3.org/2000/svg" xmlns:xlink="http://www.w3.org/1999/xlink" clip-rule="evenodd" stroke-miterlimit="10" viewBox="0 0 939 146"><desc>SVG generated by Keynote</desc><defs></defs><g transform="matrix(1.00, 0.00, -0.00, -1.00, 0.0, 146.0)"><g><clipPath id="clip0x7fe99882c060"><path d="M 1.0 145.2 L 937.5 145.2 L 937.5 0.7 L 1.0 0.7 Z M 1.0 145.2 "></path></clipPath><g clip-path="url(#clip0x7fe99882c060)"><path d="M 1.0 288.2 L 937.0 288.2 L 937.0 144.7 L 1.0 144.7 Z M 1.0 288.2 " fill="#3BB77E"></path><path d="M 937.0 288.2 L 1873.0 288.2 L 1873.0 144.7 L 937.0 144.7 Z M 937.0 288.2 " fill="#3BB77E"></path><path d="M 1.0 144.7 L 937.0 144.7 L 937.0 1.2 L 1.0 1.2 Z M 1.0 144.7 " fill="#FEFFFE"></path><path d="M 937.0 144.7 L 1873.0 144.7 L 1873.0 1.2 L 937.0 1.2 Z M 937.0 144.7 " fill="#FEFFFE"></path><path d="M 1.0 1.2 L 937.0 1.2 L 937.0 -142.3 L 1.0 -142.3 Z M 1.0 1.2 " fill="#FEFFFE"></path><path d="M 937.0 1.2 L 1873.0 1.2 L 1873.0 -142.3 L 937.0 -142.3 Z M 937.0 1.2 " fill="#FEFFFE"></path></g></g><g><clipPath id="clip0x7fe99882f0f0"><path d="M 1.0 145.2 L 937.5 145.2 L 937.5 0.7 L 1.0 0.7 Z M 1.0 145.2 "></path></clipPath><g clip-path="url(#clip0x7fe99882f0f0)"><g><clipPath id="clip0x7fe99882f880"><path d="M 1.0 1.7 L 936.5 1.7 L 936.5 144.2 L 1.0 144.2 Z M 1.0 1.7 "></path></clipPath><g clip-path="url(#clip0x7fe99882f880)"><text xml:space="preserve" font-family="MaisonNeue-Book,Maison Neue" font-size="50.0" fill="#000000" transform="matrix(1.00, 0.00, -0.00, -1.00, 271.7, 54.5)">R</text><text xml:space="preserve" font-family="MaisonNeue-Book,Maison Neue" font-size="50.0" fill="#000000" transform="matrix(1.00, 0.00, -0.00, -1.00, 303.8, 54.5)">e</text><text xml:space="preserve" font-family="MaisonNeue-Book,Maison Neue" font-size="50.0" fill="#000000" transform="matrix(1.00, 0.00, -0.00, -1.00, 332.8, 54.5)">a</text><text xml:space="preserve" font-family="MaisonNeue-Book,Maison Neue" font-size="50.0" fill="#000000" transform="matrix(1.00, 0.00, -0.00, -1.00, 359.8, 54.5)">l</text><text xml:space="preserve" font-family="MaisonNeue-Book,Maison Neue" font-size="50.0" fill="#000000" transform="matrix(1.00, 0.00, -0.00, -1.00, 372.5, 54.5)">l</text><text xml:space="preserve" font-family="MaisonNeue-Book,Maison Neue" font-size="50.0" fill="#000000" transform="matrix(1.00, 0.00, -0.00, -1.00, 385.1, 54.5)">y</text><text xml:space="preserve" font-family="MaisonNeue-Book,Maison Neue" font-size="50.0" fill="#000000" transform="matrix(1.00, 0.00, -0.00, -1.00, 410.0, 54.5)"> </text><text xml:space="preserve" font-family="MaisonNeue-Book,Maison Neue" font-size="50.0" fill="#000000" transform="matrix(1.00, 0.00, -0.00, -1.00, 422.5, 54.5)">f</text><text xml:space="preserve" font-family="MaisonNeue-Book,Maison Neue" font-size="50.0" fill="#000000" transform="matrix(1.00, 0.00, -0.00, -1.00, 439.0, 54.5)">a</text><text xml:space="preserve" font-family="MaisonNeue-Book,Maison Neue" font-size="50.0" fill="#000000" transform="matrix(1.00, 0.00, -0.00, -1.00, 466.0, 54.5)">s</text><text xml:space="preserve" font-family="MaisonNeue-Book,Maison Neue" font-size="50.0" fill="#000000" transform="matrix(1.00, 0.00, -0.00, -1.00, 491.8, 54.5)">t</text><text xml:space="preserve" font-family="MaisonNeue-Book,Maison Neue" font-size="50.0" fill="#000000" transform="matrix(1.00, 0.00, -0.00, -1.00, 509.8, 54.5)"> </text><text xml:space="preserve" font-family="MaisonNeue-Book,Maison Neue" font-size="50.0" fill="#000000" transform="matrix(1.00, 0.00, -0.00, -1.00, 522.3, 54.5)">p</text><text xml:space="preserve" font-family="MaisonNeue-Book,Maison Neue" font-size="50.0" fill="#000000" transform="matrix(1.00, 0.00, -0.00, -1.00, 552.2, 54.5)">a</text><text xml:space="preserve" font-family="MaisonNeue-Book,Maison Neue" font-size="50.0" fill="#000000" transform="matrix(1.00, 0.00, -0.00, -1.00, 579.2, 54.5)">c</text><text xml:space="preserve" font-family="MaisonNeue-Book,Maison Neue" font-size="50.0" fill="#000000" transform="matrix(1.00, 0.00, -0.00, -1.00, 607.1, 54.5)">e</text><text xml:space="preserve" font-family="MaisonNeue-Book,Maison Neue" font-size="50.0" fill="#000000" transform="matrix(1.00, 0.00, -0.00, -1.00, 636.1, 54.5)">d</text></g></g></g></g><g><clipPath id="clip0x7fe998bb1e50"><path d="M 1.0 145.2 L 937.5 145.2 L 937.5 0.7 L 1.0 0.7 Z M 1.0 145.2 "></path></clipPath><g clip-path="url(#clip0x7fe998bb1e50)"><path d="M 937.0 1.0 L 937.0 144.5 " fill="none" stroke="#3697C6" stroke-width="1.00" transform="matrix(1.00, 0.00, 0.00, -1.00, 0.0, 289.2)"></path><path d="M 937.0 144.5 L 937.0 288.0 " fill="none" stroke="#3697C6" stroke-opacity="0.32" stroke-width="1.00" transform="matrix(1.00, 0.00, 0.00, -1.00, 0.0, 289.2)"></path><path d="M 937.0 288.0 L 937.0 431.4 " fill="none" stroke="#3697C6" stroke-opacity="0.32" stroke-width="1.00" transform="matrix(1.00, 0.00, 0.00, -1.00, 0.0, 289.2)"></path><path d="M 1.0 144.5 L 937.0 144.5 " fill="none" stroke="#3697C6" stroke-opacity="0.32" stroke-width="1.00" transform="matrix(1.00, 0.00, 0.00, -1.00, 0.0, 289.2)"></path><path d="M 937.0 144.5 L 1873.0 144.5 " fill="none" stroke="#3697C6" stroke-opacity="0.32" stroke-width="1.00" transform="matrix(1.00, 0.00, 0.00, -1.00, 0.0, 289.2)"></path><path d="M 1.0 288.0 L 937.0 288.0 " fill="none" stroke="#3096C8" stroke-opacity="0.25" stroke-width="1.00" transform="matrix(1.00, 0.00, 0.00, -1.00, 0.0, 289.2)"></path><path d="M 937.0 288.0 L 1873.0 288.0 " fill="none" stroke="#3096C8" stroke-opacity="0.25" stroke-width="1.00" transform="matrix(1.00, 0.00, 0.00, -1.00, 0.0, 289.2)"></path><path d="M 1.0 431.4 L 937.0 431.4 " fill="none" stroke="#3697C6" stroke-opacity="0.32" stroke-width="1.00" transform="matrix(1.00, 0.00, 0.00, -1.00, 0.0, 289.2)"></path><path d="M 937.0 431.4 L 1873.0 431.4 " fill="none" stroke="#3697C6" stroke-opacity="0.32" stroke-width="1.00" transform="matrix(1.00, 0.00, 0.00, -1.00, 0.0, 289.2)"></path></g></g></g></svg>