<?xml version="1.0" encoding="UTF-8" standalone="no"?><svg xmlns="http://www.w3.org/2000/svg" xmlns:xlink="http://www.w3.org/1999/xlink" clip-rule="evenodd" stroke-miterlimit="10" viewBox="0 0 939 147"><desc>SVG generated by Keynote</desc><defs></defs><g transform="matrix(1.00, 0.00, -0.00, -1.00, 0.0, 147.0)"><g><clipPath id="clip0x7fe998e64ea0"><path d="M 1.0 145.8 L 937.5 145.8 L 937.5 1.3 L 1.0 1.3 Z M 1.0 145.8 "></path></clipPath><g clip-path="url(#clip0x7fe998e64ea0)"><path d="M 1.0 288.7 L 937.0 288.7 L 937.0 145.3 L 1.0 145.3 Z M 1.0 288.7 " fill="#FEFFFE"></path><path d="M 937.0 288.7 L 1873.0 288.7 L 1873.0 145.3 L 937.0 145.3 Z M 937.0 288.7 " fill="#FEFFFE"></path><path d="M 1.0 145.3 L 937.0 145.3 L 937.0 1.8 L 1.0 1.8 Z M 1.0 145.3 " fill="#FEFFFE"></path><path d="M 937.0 145.3 L 1873.0 145.3 L 1873.0 1.8 L 937.0 1.8 Z M 937.0 145.3 " fill="#FEFFFE"></path><path d="M 1.0 1.8 L 937.0 1.8 L 937.0 -141.7 L 1.0 -141.7 Z M 1.0 1.8 " fill="#FEFFFE"></path><path d="M 937.0 1.8 L 1873.0 1.8 L 1873.0 -141.7 L 937.0 -141.7 Z M 937.0 1.8 " fill="#FEFFFE"></path></g></g><g><clipPath id="clip0x7fe998e67e00"><path d="M 1.0 145.8 L 937.5 145.8 L 937.5 1.3 L 1.0 1.3 Z M 1.0 145.8 "></path></clipPath><g clip-path="url(#clip0x7fe998e67e00)"><g><clipPath id="clip0x7fe998e68580"><path d="M 1.0 2.3 L 936.5 2.3 L 936.5 144.8 L 1.0 144.8 Z M 1.0 2.3 "></path></clipPath><g clip-path="url(#clip0x7fe998e68580)"><text xml:space="preserve" font-family="MaisonNeue-Book,Maison Neue" font-size="50.0" fill="#000000" transform="matrix(1.00, 0.00, -0.00, -1.00, 49.2, 55.0)">L</text><text xml:space="preserve" font-family="MaisonNeue-Book,Maison Neue" font-size="50.0" fill="#000000" transform="matrix(1.00, 0.00, -0.00, -1.00, 74.8, 55.0)">e</text><text xml:space="preserve" font-family="MaisonNeue-Book,Maison Neue" font-size="50.0" fill="#000000" transform="matrix(1.00, 0.00, -0.00, -1.00, 103.8, 55.0)">s</text><text xml:space="preserve" font-family="MaisonNeue-Book,Maison Neue" font-size="50.0" fill="#000000" transform="matrix(1.00, 0.00, -0.00, -1.00, 129.7, 55.0)">s</text><text xml:space="preserve" font-family="MaisonNeue-Book,Maison Neue" font-size="50.0" fill="#000000" transform="matrix(1.00, 0.00, -0.00, -1.00, 155.5, 55.0)"> </text><text xml:space="preserve" font-family="MaisonNeue-Book,Maison Neue" font-size="50.0" fill="#000000" transform="matrix(1.00, 0.00, -0.00, -1.00, 168.0, 55.0)">p</text><text xml:space="preserve" font-family="MaisonNeue-Book,Maison Neue" font-size="50.0" fill="#000000" transform="matrix(1.00, 0.00, -0.00, -1.00, 197.9, 55.0)">e</text><text xml:space="preserve" font-family="MaisonNeue-Book,Maison Neue" font-size="50.0" fill="#000000" transform="matrix(1.00, 0.00, -0.00, -1.00, 226.9, 55.0)">o</text><text xml:space="preserve" font-family="MaisonNeue-Book,Maison Neue" font-size="50.0" fill="#000000" transform="matrix(1.00, 0.00, -0.00, -1.00, 255.8, 55.0)">p</text><text xml:space="preserve" font-family="MaisonNeue-Book,Maison Neue" font-size="50.0" fill="#000000" transform="matrix(1.00, 0.00, -0.00, -1.00, 285.7, 55.0)">l</text><text xml:space="preserve" font-family="MaisonNeue-Book,Maison Neue" font-size="50.0" fill="#000000" transform="matrix(1.00, 0.00, -0.00, -1.00, 298.4, 55.0)">e</text><text xml:space="preserve" font-family="MaisonNeue-Book,Maison Neue" font-size="50.0" fill="#000000" transform="matrix(1.00, 0.00, -0.00, -1.00, 326.4, 55.0)">,</text><text xml:space="preserve" font-family="MaisonNeue-Book,Maison Neue" font-size="50.0" fill="#000000" transform="matrix(1.00, 0.00, -0.00, -1.00, 337.3, 55.0)"> </text><text xml:space="preserve" font-family="MaisonNeue-Book,Maison Neue" font-size="50.0" fill="#000000" transform="matrix(1.00, 0.00, -0.00, -1.00, 349.8, 55.0)">e</text><text xml:space="preserve" font-family="MaisonNeue-Book,Maison Neue" font-size="50.0" fill="#000000" transform="matrix(1.00, 0.00, -0.00, -1.00, 378.8, 55.0)">a</text><text xml:space="preserve" font-family="MaisonNeue-Book,Maison Neue" font-size="50.0" fill="#000000" transform="matrix(1.00, 0.00, -0.00, -1.00, 405.8, 55.0)">s</text><text xml:space="preserve" font-family="MaisonNeue-Book,Maison Neue" font-size="50.0" fill="#000000" transform="matrix(1.00, 0.00, -0.00, -1.00, 431.6, 55.0)">i</text><text xml:space="preserve" font-family="MaisonNeue-Book,Maison Neue" font-size="50.0" fill="#000000" transform="matrix(1.00, 0.00, -0.00, -1.00, 444.8, 55.0)">e</text><text xml:space="preserve" font-family="MaisonNeue-Book,Maison Neue" font-size="50.0" fill="#000000" transform="matrix(1.00, 0.00, -0.00, -1.00, 473.8, 55.0)">r</text><text xml:space="preserve" font-family="MaisonNeue-Book,Maison Neue" font-size="50.0" fill="#000000" transform="matrix(1.00, 0.00, -0.00, -1.00, 491.4, 55.0)"> </text><text xml:space="preserve" font-family="MaisonNeue-Book,Maison Neue" font-size="50.0" fill="#000000" transform="matrix(1.00, 0.00, -0.00, -1.00, 503.9, 55.0)">c</text><text xml:space="preserve" font-family="MaisonNeue-Book,Maison Neue" font-size="50.0" fill="#000000" transform="matrix(1.00, 0.00, -0.00, -1.00, 531.7, 55.0)">o</text><text xml:space="preserve" font-family="MaisonNeue-Book,Maison Neue" font-size="50.0" fill="#000000" transform="matrix(1.00, 0.00, -0.00, -1.00, 560.6, 55.0)">m</text><text xml:space="preserve" font-family="MaisonNeue-Book,Maison Neue" font-size="50.0" fill="#000000" transform="matrix(1.00, 0.00, -0.00, -1.00, 603.1, 55.0)">p</text><text xml:space="preserve" font-family="MaisonNeue-Book,Maison Neue" font-size="50.0" fill="#000000" transform="matrix(1.00, 0.00, -0.00, -1.00, 633.0, 55.0)">a</text><text xml:space="preserve" font-family="MaisonNeue-Book,Maison Neue" font-size="50.0" fill="#000000" transform="matrix(1.00, 0.00, -0.00, -1.00, 660.0, 55.0)">n</text><text xml:space="preserve" font-family="MaisonNeue-Book,Maison Neue" font-size="50.0" fill="#000000" transform="matrix(1.00, 0.00, -0.00, -1.00, 688.4, 55.0)">y</text><text xml:space="preserve" font-family="MaisonNeue-Book,Maison Neue" font-size="50.0" fill="#000000" transform="matrix(1.00, 0.00, -0.00, -1.00, 713.2, 55.0)"> </text><text xml:space="preserve" font-family="MaisonNeue-Book,Maison Neue" font-size="50.0" fill="#000000" transform="matrix(1.00, 0.00, -0.00, -1.00, 725.7, 55.0)">c</text><text xml:space="preserve" font-family="MaisonNeue-Book,Maison Neue" font-size="50.0" fill="#000000" transform="matrix(1.00, 0.00, -0.00, -1.00, 753.6, 55.0)">u</text><text xml:space="preserve" font-family="MaisonNeue-Book,Maison Neue" font-size="50.0" fill="#000000" transform="matrix(1.00, 0.00, -0.00, -1.00, 782.3, 55.0)">l</text><text xml:space="preserve" font-family="MaisonNeue-Book,Maison Neue" font-size="50.0" fill="#000000" transform="matrix(1.00, 0.00, -0.00, -1.00, 795.0, 55.0)">t</text><text xml:space="preserve" font-family="MaisonNeue-Book,Maison Neue" font-size="50.0" fill="#000000" transform="matrix(1.00, 0.00, -0.00, -1.00, 813.0, 55.0)">u</text><text xml:space="preserve" font-family="MaisonNeue-Book,Maison Neue" font-size="50.0" fill="#000000" transform="matrix(1.00, 0.00, -0.00, -1.00, 841.7, 55.0)">r</text><text xml:space="preserve" font-family="MaisonNeue-Book,Maison Neue" font-size="50.0" fill="#000000" transform="matrix(1.00, 0.00, -0.00, -1.00, 859.3, 55.0)">e</text></g></g></g></g><g><clipPath id="clip0x7fe998e76440"><path d="M 1.0 145.8 L 937.5 145.8 L 937.5 1.3 L 1.0 1.3 Z M 1.0 145.8 "></path></clipPath><g clip-path="url(#clip0x7fe998e76440)"><path d="M 937.0 431.4 L 937.0 861.9 " fill="none" stroke="#3697C6" stroke-opacity="0.32" stroke-width="1.00" transform="matrix(1.00, 0.00, 0.00, -1.00, 0.0, 720.2)"></path><path d="M 1.0 431.4 L 937.0 431.4 " fill="none" stroke="#3697C6" stroke-opacity="0.32" stroke-width="1.00" transform="matrix(1.00, 0.00, 0.00, -1.00, 0.0, 720.2)"></path><path d="M 937.0 431.4 L 1873.0 431.4 " fill="none" stroke="#3697C6" stroke-opacity="0.32" stroke-width="1.00" transform="matrix(1.00, 0.00, 0.00, -1.00, 0.0, 720.2)"></path><path d="M 1.0 574.9 L 937.0 574.9 " fill="none" stroke="#3697C6" stroke-opacity="0.32" stroke-width="1.00" transform="matrix(1.00, 0.00, 0.00, -1.00, 0.0, 720.2)"></path><path d="M 937.0 574.9 L 1873.0 574.9 " fill="none" stroke="#3697C6" stroke-opacity="0.32" stroke-width="1.00" transform="matrix(1.00, 0.00, 0.00, -1.00, 0.0, 720.2)"></path><path d="M 1.0 718.4 L 937.0 718.4 " fill="none" stroke="#3697C6" stroke-opacity="0.32" stroke-width="1.00" transform="matrix(1.00, 0.00, 0.00, -1.00, 0.0, 720.2)"></path><path d="M 937.0 718.4 L 1873.0 718.4 " fill="none" stroke="#3697C6" stroke-opacity="0.32" stroke-width="1.00" transform="matrix(1.00, 0.00, 0.00, -1.00, 0.0, 720.2)"></path><path d="M 1.0 861.9 L 937.0 861.9 " fill="none" stroke="#3697C6" stroke-opacity="0.32" stroke-width="1.00" transform="matrix(1.00, 0.00, 0.00, -1.00, 0.0, 720.2)"></path><path d="M 937.0 861.9 L 1873.0 861.9 " fill="none" stroke="#3697C6" stroke-opacity="0.32" stroke-width="1.00" transform="matrix(1.00, 0.00, 0.00, -1.00, 0.0, 720.2)"></path></g></g></g></svg>