<?xml version="1.0" encoding="UTF-8" standalone="no"?><svg xmlns="http://www.w3.org/2000/svg" xmlns:xlink="http://www.w3.org/1999/xlink" clip-rule="evenodd" stroke-miterlimit="10" viewBox="0 0 1297 354"><desc>SVG generated by Keynote</desc><defs></defs><g transform="matrix(1.00, 0.00, -0.00, -1.00, 0.0, 354.0)"><text xml:space="preserve" font-family="MaisonNeue-Demi,Maison Neue" font-weight="bold" font-size="80.0" fill="#000000" transform="matrix(1.00, 0.00, -0.00, -1.00, 0.3, 291.7)">1</text><text xml:space="preserve" font-family="MaisonNeue-Demi,Maison Neue" font-weight="bold" font-size="80.0" fill="#000000" transform="matrix(1.00, 0.00, -0.00, -1.00, 37.8, 291.7)">.</text><text xml:space="preserve" font-family="MaisonNeue-Demi,Maison Neue" font-weight="bold" font-size="80.0" fill="#000000" transform="matrix(1.00, 0.00, -0.00, -1.00, 108.0, 291.7)">U</text><text xml:space="preserve" font-family="MaisonNeue-Demi,Maison Neue" font-weight="bold" font-size="80.0" fill="#000000" transform="matrix(1.00, 0.00, -0.00, -1.00, 160.6, 291.7)">n</text><text xml:space="preserve" font-family="MaisonNeue-Demi,Maison Neue" font-weight="bold" font-size="80.0" fill="#000000" transform="matrix(1.00, 0.00, -0.00, -1.00, 207.7, 291.7)">d</text><text xml:space="preserve" font-family="MaisonNeue-Demi,Maison Neue" font-weight="bold" font-size="80.0" fill="#000000" transform="matrix(1.00, 0.00, -0.00, -1.00, 255.5, 291.7)">e</text><text xml:space="preserve" font-family="MaisonNeue-Demi,Maison Neue" font-weight="bold" font-size="80.0" fill="#000000" transform="matrix(1.00, 0.00, -0.00, -1.00, 300.7, 291.7)">r</text><text xml:space="preserve" font-family="MaisonNeue-Demi,Maison Neue" font-weight="bold" font-size="80.0" fill="#000000" transform="matrix(1.00, 0.00, -0.00, -1.00, 329.7, 291.7)">s</text><text xml:space="preserve" font-family="MaisonNeue-Demi,Maison Neue" font-weight="bold" font-size="80.0" fill="#000000" transform="matrix(1.00, 0.00, -0.00, -1.00, 371.1, 291.7)">t</text><text xml:space="preserve" font-family="MaisonNeue-Demi,Maison Neue" font-weight="bold" font-size="80.0" fill="#000000" transform="matrix(1.00, 0.00, -0.00, -1.00, 400.6, 291.7)">a</text><text xml:space="preserve" font-family="MaisonNeue-Demi,Maison Neue" font-weight="bold" font-size="80.0" fill="#000000" transform="matrix(1.00, 0.00, -0.00, -1.00, 443.9, 291.7)">n</text><text xml:space="preserve" font-family="MaisonNeue-Demi,Maison Neue" font-weight="bold" font-size="80.0" fill="#000000" transform="matrix(1.00, 0.00, -0.00, -1.00, 491.0, 291.7)">d</text><text xml:space="preserve" font-family="MaisonNeue-Demi,Maison Neue" font-weight="bold" font-size="80.0" fill="#000000" transform="matrix(1.00, 0.00, -0.00, -1.00, 538.8, 291.7)"> </text><text xml:space="preserve" font-family="MaisonNeue-Demi,Maison Neue" font-weight="bold" font-size="80.0" fill="#000000" transform="matrix(1.00, 0.00, -0.00, -1.00, 558.8, 291.7)">y</text><text xml:space="preserve" font-family="MaisonNeue-Demi,Maison Neue" font-weight="bold" font-size="80.0" fill="#000000" transform="matrix(1.00, 0.00, -0.00, -1.00, 601.1, 291.7)">o</text><text xml:space="preserve" font-family="MaisonNeue-Demi,Maison Neue" font-weight="bold" font-size="80.0" fill="#000000" transform="matrix(1.00, 0.00, -0.00, -1.00, 646.7, 291.7)">u</text><text xml:space="preserve" font-family="MaisonNeue-Demi,Maison Neue" font-weight="bold" font-size="80.0" fill="#000000" transform="matrix(1.00, 0.00, -0.00, -1.00, 692.7, 291.7)">r</text><text xml:space="preserve" font-family="MaisonNeue-Demi,Maison Neue" font-weight="bold" font-size="80.0" fill="#000000" transform="matrix(1.00, 0.00, -0.00, -1.00, 721.6, 291.7)"> </text><text xml:space="preserve" font-family="MaisonNeue-Demi,Maison Neue" font-weight="bold" font-size="80.0" fill="#000000" transform="matrix(1.00, 0.00, -0.00, -1.00, 741.6, 291.7)">a</text><text xml:space="preserve" font-family="MaisonNeue-Demi,Maison Neue" font-weight="bold" font-size="80.0" fill="#000000" transform="matrix(1.00, 0.00, -0.00, -1.00, 784.9, 291.7)">u</text><text xml:space="preserve" font-family="MaisonNeue-Demi,Maison Neue" font-weight="bold" font-size="80.0" fill="#000000" transform="matrix(1.00, 0.00, -0.00, -1.00, 830.9, 291.7)">d</text><text xml:space="preserve" font-family="MaisonNeue-Demi,Maison Neue" font-weight="bold" font-size="80.0" fill="#000000" transform="matrix(1.00, 0.00, -0.00, -1.00, 878.7, 291.7)">i</text><text xml:space="preserve" font-family="MaisonNeue-Demi,Maison Neue" font-weight="bold" font-size="80.0" fill="#000000" transform="matrix(1.00, 0.00, -0.00, -1.00, 900.2, 291.7)">e</text><text xml:space="preserve" font-family="MaisonNeue-Demi,Maison Neue" font-weight="bold" font-size="80.0" fill="#000000" transform="matrix(1.00, 0.00, -0.00, -1.00, 945.4, 291.7)">n</text><text xml:space="preserve" font-family="MaisonNeue-Demi,Maison Neue" font-weight="bold" font-size="80.0" fill="#000000" transform="matrix(1.00, 0.00, -0.00, -1.00, 992.5, 291.7)">c</text><text xml:space="preserve" font-family="MaisonNeue-Demi,Maison Neue" font-weight="bold" font-size="80.0" fill="#000000" transform="matrix(1.00, 0.00, -0.00, -1.00, 1036.1, 291.7)">e</text><text xml:space="preserve" font-family="MaisonNeue-Demi,Maison Neue" font-weight="bold" font-size="80.0" fill="#000000" transform="matrix(1.00, 0.00, -0.00, -1.00, 1079.7, 291.7)">.</text><text xml:space="preserve" font-family="MaisonNeue-Demi,Maison Neue" font-weight="bold" font-size="80.0" fill="#000000" transform="matrix(1.00, 0.00, -0.00, -1.00, 1097.2, 291.7)"> </text><text xml:space="preserve" font-family="MaisonNeue-Demi,Maison Neue" font-weight="bold" font-size="80.0" fill="#000000" transform="matrix(1.00, 0.00, -0.00, -1.00, 0.3, 147.7)">2</text><text xml:space="preserve" font-family="MaisonNeue-Demi,Maison Neue" font-weight="bold" font-size="80.0" fill="#000000" transform="matrix(1.00, 0.00, -0.00, -1.00, 47.1, 147.7)">.</text><text xml:space="preserve" font-family="MaisonNeue-Demi,Maison Neue" font-weight="bold" font-size="80.0" fill="#000000" transform="matrix(1.00, 0.00, -0.00, -1.00, 108.0, 147.7)">W</text><text xml:space="preserve" font-family="MaisonNeue-Demi,Maison Neue" font-weight="bold" font-size="80.0" fill="#000000" transform="matrix(1.00, 0.00, -0.00, -1.00, 180.0, 147.7)">h</text><text xml:space="preserve" font-family="MaisonNeue-Demi,Maison Neue" font-weight="bold" font-size="80.0" fill="#000000" transform="matrix(1.00, 0.00, -0.00, -1.00, 227.5, 147.7)">a</text><text xml:space="preserve" font-family="MaisonNeue-Demi,Maison Neue" font-weight="bold" font-size="80.0" fill="#000000" transform="matrix(1.00, 0.00, -0.00, -1.00, 270.8, 147.7)">t</text><text xml:space="preserve" font-family="MaisonNeue-Demi,Maison Neue" font-weight="bold" font-size="80.0" fill="#000000" transform="matrix(1.00, 0.00, -0.00, -1.00, 301.1, 147.7)"> </text><text xml:space="preserve" font-family="MaisonNeue-Demi,Maison Neue" font-weight="bold" font-size="80.0" fill="#000000" transform="matrix(1.00, 0.00, -0.00, -1.00, 321.1, 147.7)">a</text><text xml:space="preserve" font-family="MaisonNeue-Demi,Maison Neue" font-weight="bold" font-size="80.0" fill="#000000" transform="matrix(1.00, 0.00, -0.00, -1.00, 364.4, 147.7)">r</text><text xml:space="preserve" font-family="MaisonNeue-Demi,Maison Neue" font-weight="bold" font-size="80.0" fill="#000000" transform="matrix(1.00, 0.00, -0.00, -1.00, 393.4, 147.7)">e</text><text xml:space="preserve" font-family="MaisonNeue-Demi,Maison Neue" font-weight="bold" font-size="80.0" fill="#000000" transform="matrix(1.00, 0.00, -0.00, -1.00, 438.6, 147.7)"> </text><text xml:space="preserve" font-family="MaisonNeue-Demi,Maison Neue" font-weight="bold" font-size="80.0" fill="#000000" transform="matrix(1.00, 0.00, -0.00, -1.00, 458.6, 147.7)">t</text><text xml:space="preserve" font-family="MaisonNeue-Demi,Maison Neue" font-weight="bold" font-size="80.0" fill="#000000" transform="matrix(1.00, 0.00, -0.00, -1.00, 488.9, 147.7)">h</text><text xml:space="preserve" font-family="MaisonNeue-Demi,Maison Neue" font-weight="bold" font-size="80.0" fill="#000000" transform="matrix(1.00, 0.00, -0.00, -1.00, 536.4, 147.7)">e</text><text xml:space="preserve" font-family="MaisonNeue-Demi,Maison Neue" font-weight="bold" font-size="80.0" fill="#000000" transform="matrix(1.00, 0.00, -0.00, -1.00, 580.0, 147.7)">y</text><text xml:space="preserve" font-family="MaisonNeue-Demi,Maison Neue" font-weight="bold" font-size="80.0" fill="#000000" transform="matrix(1.00, 0.00, -0.00, -1.00, 623.1, 147.7)"> </text><text xml:space="preserve" font-family="MaisonNeue-Demi,Maison Neue" font-weight="bold" font-size="80.0" fill="#000000" transform="matrix(1.00, 0.00, -0.00, -1.00, 643.1, 147.7)">l</text><text xml:space="preserve" font-family="MaisonNeue-Demi,Maison Neue" font-weight="bold" font-size="80.0" fill="#000000" transform="matrix(1.00, 0.00, -0.00, -1.00, 664.5, 147.7)">o</text><text xml:space="preserve" font-family="MaisonNeue-Demi,Maison Neue" font-weight="bold" font-size="80.0" fill="#000000" transform="matrix(1.00, 0.00, -0.00, -1.00, 710.1, 147.7)">o</text><text xml:space="preserve" font-family="MaisonNeue-Demi,Maison Neue" font-weight="bold" font-size="80.0" fill="#000000" transform="matrix(1.00, 0.00, -0.00, -1.00, 755.7, 147.7)">k</text><text xml:space="preserve" font-family="MaisonNeue-Demi,Maison Neue" font-weight="bold" font-size="80.0" fill="#000000" transform="matrix(1.00, 0.00, -0.00, -1.00, 800.8, 147.7)">i</text><text xml:space="preserve" font-family="MaisonNeue-Demi,Maison Neue" font-weight="bold" font-size="80.0" fill="#000000" transform="matrix(1.00, 0.00, -0.00, -1.00, 822.3, 147.7)">n</text><text xml:space="preserve" font-family="MaisonNeue-Demi,Maison Neue" font-weight="bold" font-size="80.0" fill="#000000" transform="matrix(1.00, 0.00, -0.00, -1.00, 869.4, 147.7)">g</text><text xml:space="preserve" font-family="MaisonNeue-Demi,Maison Neue" font-weight="bold" font-size="80.0" fill="#000000" transform="matrix(1.00, 0.00, -0.00, -1.00, 917.5, 147.7)"> </text><text xml:space="preserve" font-family="MaisonNeue-Demi,Maison Neue" font-weight="bold" font-size="80.0" fill="#000000" transform="matrix(1.00, 0.00, -0.00, -1.00, 937.5, 147.7)">f</text><text xml:space="preserve" font-family="MaisonNeue-Demi,Maison Neue" font-weight="bold" font-size="80.0" fill="#000000" transform="matrix(1.00, 0.00, -0.00, -1.00, 965.3, 147.7)">o</text><text xml:space="preserve" font-family="MaisonNeue-Demi,Maison Neue" font-weight="bold" font-size="80.0" fill="#000000" transform="matrix(1.00, 0.00, -0.00, -1.00, 1010.9, 147.7)">r</text><text xml:space="preserve" font-family="MaisonNeue-Demi,Maison Neue" font-weight="bold" font-size="80.0" fill="#000000" transform="matrix(1.00, 0.00, -0.00, -1.00, 1039.9, 147.7)">?</text><text xml:space="preserve" font-family="MaisonNeue-Demi,Maison Neue" font-weight="bold" font-size="80.0" fill="#000000" transform="matrix(1.00, 0.00, -0.00, -1.00, 1082.2, 147.7)"> </text><text xml:space="preserve" font-family="MaisonNeue-Demi,Maison Neue" font-weight="bold" font-size="80.0" fill="#000000" transform="matrix(1.00, 0.00, -0.00, -1.00, 1102.2, 147.7)">W</text><text xml:space="preserve" font-family="MaisonNeue-Demi,Maison Neue" font-weight="bold" font-size="80.0" fill="#000000" transform="matrix(1.00, 0.00, -0.00, -1.00, 1174.2, 147.7)">h</text><text xml:space="preserve" font-family="MaisonNeue-Demi,Maison Neue" font-weight="bold" font-size="80.0" fill="#000000" transform="matrix(1.00, 0.00, -0.00, -1.00, 1221.7, 147.7)">a</text><text xml:space="preserve" font-family="MaisonNeue-Demi,Maison Neue" font-weight="bold" font-size="80.0" fill="#000000" transform="matrix(1.00, 0.00, -0.00, -1.00, 1265.0, 147.7)">t</text><text xml:space="preserve" font-family="MaisonNeue-Demi,Maison Neue" font-weight="bold" font-size="80.0" fill="#000000" transform="matrix(1.00, 0.00, -0.00, -1.00, 1295.3, 147.7)"> </text><text xml:space="preserve" font-family="MaisonNeue-Demi,Maison Neue" font-weight="bold" font-size="80.0" fill="#000000" transform="matrix(1.00, 0.00, -0.00, -1.00, 108.0, 3.7)">a</text><text xml:space="preserve" font-family="MaisonNeue-Demi,Maison Neue" font-weight="bold" font-size="80.0" fill="#000000" transform="matrix(1.00, 0.00, -0.00, -1.00, 151.3, 3.7)">r</text><text xml:space="preserve" font-family="MaisonNeue-Demi,Maison Neue" font-weight="bold" font-size="80.0" fill="#000000" transform="matrix(1.00, 0.00, -0.00, -1.00, 180.3, 3.7)">e</text><text xml:space="preserve" font-family="MaisonNeue-Demi,Maison Neue" font-weight="bold" font-size="80.0" fill="#000000" transform="matrix(1.00, 0.00, -0.00, -1.00, 225.5, 3.7)"> </text><text xml:space="preserve" font-family="MaisonNeue-Demi,Maison Neue" font-weight="bold" font-size="80.0" fill="#000000" transform="matrix(1.00, 0.00, -0.00, -1.00, 245.5, 3.7)">t</text><text xml:space="preserve" font-family="MaisonNeue-Demi,Maison Neue" font-weight="bold" font-size="80.0" fill="#000000" transform="matrix(1.00, 0.00, -0.00, -1.00, 275.8, 3.7)">h</text><text xml:space="preserve" font-family="MaisonNeue-Demi,Maison Neue" font-weight="bold" font-size="80.0" fill="#000000" transform="matrix(1.00, 0.00, -0.00, -1.00, 323.3, 3.7)">e</text><text xml:space="preserve" font-family="MaisonNeue-Demi,Maison Neue" font-weight="bold" font-size="80.0" fill="#000000" transform="matrix(1.00, 0.00, -0.00, -1.00, 368.5, 3.7)">i</text><text xml:space="preserve" font-family="MaisonNeue-Demi,Maison Neue" font-weight="bold" font-size="80.0" fill="#000000" transform="matrix(1.00, 0.00, -0.00, -1.00, 389.9, 3.7)">r</text><text xml:space="preserve" font-family="MaisonNeue-Demi,Maison Neue" font-weight="bold" font-size="80.0" fill="#000000" transform="matrix(1.00, 0.00, -0.00, -1.00, 418.9, 3.7)"> </text><text xml:space="preserve" font-family="MaisonNeue-Demi,Maison Neue" font-weight="bold" font-size="80.0" fill="#000000" transform="matrix(1.00, 0.00, -0.00, -1.00, 438.9, 3.7)">n</text><text xml:space="preserve" font-family="MaisonNeue-Demi,Maison Neue" font-weight="bold" font-size="80.0" fill="#000000" transform="matrix(1.00, 0.00, -0.00, -1.00, 486.0, 3.7)">e</text><text xml:space="preserve" font-family="MaisonNeue-Demi,Maison Neue" font-weight="bold" font-size="80.0" fill="#000000" transform="matrix(1.00, 0.00, -0.00, -1.00, 531.2, 3.7)">e</text><text xml:space="preserve" font-family="MaisonNeue-Demi,Maison Neue" font-weight="bold" font-size="80.0" fill="#000000" transform="matrix(1.00, 0.00, -0.00, -1.00, 576.4, 3.7)">d</text><text xml:space="preserve" font-family="MaisonNeue-Demi,Maison Neue" font-weight="bold" font-size="80.0" fill="#000000" transform="matrix(1.00, 0.00, -0.00, -1.00, 624.3, 3.7)">s</text><text xml:space="preserve" font-family="MaisonNeue-Demi,Maison Neue" font-weight="bold" font-size="80.0" fill="#000000" transform="matrix(1.00, 0.00, -0.00, -1.00, 665.6, 3.7)">?</text></g></svg>