<?xml version="1.0" encoding="UTF-8" standalone="no"?><svg xmlns="http://www.w3.org/2000/svg" xmlns:xlink="http://www.w3.org/1999/xlink" clip-rule="evenodd" stroke-miterlimit="10" viewBox="0 0 1920 1080"><desc>SVG generated by Keynote</desc><defs></defs><g transform="matrix(1.00, 0.00, -0.00, -1.00, 0.0, 1080.0)"><path d="M 0.0 1080.0 L 1920.0 1080.0 L 1920.0 0.0 L 0.0 0.0 Z M 0.0 1080.0 " fill="#FEFFFF"></path><text xml:space="preserve" font-family="MaisonNeue-Demi,Maison Neue" font-weight="bold" font-size="80.0" fill="#3BB77E" transform="matrix(1.00, 0.00, -0.00, -1.00, 305.2, 919.5)">F</text><text xml:space="preserve" font-family="MaisonNeue-Demi,Maison Neue" font-weight="bold" font-size="80.0" fill="#3BB77E" transform="matrix(1.00, 0.00, -0.00, -1.00, 349.3, 919.5)">o</text><text xml:space="preserve" font-family="MaisonNeue-Demi,Maison Neue" font-weight="bold" font-size="80.0" fill="#3BB77E" transform="matrix(1.00, 0.00, -0.00, -1.00, 394.9, 919.5)">r</text><text xml:space="preserve" font-family="MaisonNeue-Demi,Maison Neue" font-weight="bold" font-size="80.0" fill="#3BB77E" transform="matrix(1.00, 0.00, -0.00, -1.00, 423.9, 919.5)"> </text><text xml:space="preserve" font-family="MaisonNeue-Demi,Maison Neue" font-weight="bold" font-size="80.0" fill="#3BB77E" transform="matrix(1.00, 0.00, -0.00, -1.00, 443.9, 919.5)">b</text><text xml:space="preserve" font-family="MaisonNeue-Demi,Maison Neue" font-weight="bold" font-size="80.0" fill="#3BB77E" transform="matrix(1.00, 0.00, -0.00, -1.00, 491.7, 919.5)">o</text><text xml:space="preserve" font-family="MaisonNeue-Demi,Maison Neue" font-weight="bold" font-size="80.0" fill="#3BB77E" transform="matrix(1.00, 0.00, -0.00, -1.00, 537.3, 919.5)">t</text><text xml:space="preserve" font-family="MaisonNeue-Demi,Maison Neue" font-weight="bold" font-size="80.0" fill="#3BB77E" transform="matrix(1.00, 0.00, -0.00, -1.00, 567.6, 919.5)">h</text><text xml:space="preserve" font-family="MaisonNeue-Demi,Maison Neue" font-weight="bold" font-size="80.0" fill="#3BB77E" transform="matrix(1.00, 0.00, -0.00, -1.00, 615.2, 919.5)"> </text><text xml:space="preserve" font-family="MaisonNeue-Demi,Maison Neue" font-weight="bold" font-size="80.0" fill="#3BB77E" transform="matrix(1.00, 0.00, -0.00, -1.00, 635.2, 919.5)">d</text><text xml:space="preserve" font-family="MaisonNeue-Demi,Maison Neue" font-weight="bold" font-size="80.0" fill="#3BB77E" transform="matrix(1.00, 0.00, -0.00, -1.00, 683.0, 919.5)">e</text><text xml:space="preserve" font-family="MaisonNeue-Demi,Maison Neue" font-weight="bold" font-size="80.0" fill="#3BB77E" transform="matrix(1.00, 0.00, -0.00, -1.00, 726.6, 919.5)">v</text><text xml:space="preserve" font-family="MaisonNeue-Demi,Maison Neue" font-weight="bold" font-size="80.0" fill="#3BB77E" transform="matrix(1.00, 0.00, -0.00, -1.00, 769.1, 919.5)">e</text><text xml:space="preserve" font-family="MaisonNeue-Demi,Maison Neue" font-weight="bold" font-size="80.0" fill="#3BB77E" transform="matrix(1.00, 0.00, -0.00, -1.00, 814.3, 919.5)">l</text><text xml:space="preserve" font-family="MaisonNeue-Demi,Maison Neue" font-weight="bold" font-size="80.0" fill="#3BB77E" transform="matrix(1.00, 0.00, -0.00, -1.00, 835.7, 919.5)">o</text><text xml:space="preserve" font-family="MaisonNeue-Demi,Maison Neue" font-weight="bold" font-size="80.0" fill="#3BB77E" transform="matrix(1.00, 0.00, -0.00, -1.00, 881.3, 919.5)">p</text><text xml:space="preserve" font-family="MaisonNeue-Demi,Maison Neue" font-weight="bold" font-size="80.0" fill="#3BB77E" transform="matrix(1.00, 0.00, -0.00, -1.00, 929.8, 919.5)">e</text><text xml:space="preserve" font-family="MaisonNeue-Demi,Maison Neue" font-weight="bold" font-size="80.0" fill="#3BB77E" transform="matrix(1.00, 0.00, -0.00, -1.00, 975.0, 919.5)">r</text><text xml:space="preserve" font-family="MaisonNeue-Demi,Maison Neue" font-weight="bold" font-size="80.0" fill="#3BB77E" transform="matrix(1.00, 0.00, -0.00, -1.00, 1004.0, 919.5)">s</text><text xml:space="preserve" font-family="MaisonNeue-Demi,Maison Neue" font-weight="bold" font-size="80.0" fill="#3BB77E" transform="matrix(1.00, 0.00, -0.00, -1.00, 1045.3, 919.5)"> </text><text xml:space="preserve" font-family="MaisonNeue-Demi,Maison Neue" font-weight="bold" font-size="80.0" fill="#3BB77E" transform="matrix(1.00, 0.00, -0.00, -1.00, 1065.3, 919.5)">a</text><text xml:space="preserve" font-family="MaisonNeue-Demi,Maison Neue" font-weight="bold" font-size="80.0" fill="#3BB77E" transform="matrix(1.00, 0.00, -0.00, -1.00, 1108.6, 919.5)">n</text><text xml:space="preserve" font-family="MaisonNeue-Demi,Maison Neue" font-weight="bold" font-size="80.0" fill="#3BB77E" transform="matrix(1.00, 0.00, -0.00, -1.00, 1155.7, 919.5)">d</text><text xml:space="preserve" font-family="MaisonNeue-Demi,Maison Neue" font-weight="bold" font-size="80.0" fill="#3BB77E" transform="matrix(1.00, 0.00, -0.00, -1.00, 1203.6, 919.5)"> </text><text xml:space="preserve" font-family="MaisonNeue-Demi,Maison Neue" font-weight="bold" font-size="80.0" fill="#3BB77E" transform="matrix(1.00, 0.00, -0.00, -1.00, 1223.6, 919.5)">d</text><text xml:space="preserve" font-family="MaisonNeue-Demi,Maison Neue" font-weight="bold" font-size="80.0" fill="#3BB77E" transform="matrix(1.00, 0.00, -0.00, -1.00, 1271.4, 919.5)">e</text><text xml:space="preserve" font-family="MaisonNeue-Demi,Maison Neue" font-weight="bold" font-size="80.0" fill="#3BB77E" transform="matrix(1.00, 0.00, -0.00, -1.00, 1316.6, 919.5)">s</text><text xml:space="preserve" font-family="MaisonNeue-Demi,Maison Neue" font-weight="bold" font-size="80.0" fill="#3BB77E" transform="matrix(1.00, 0.00, -0.00, -1.00, 1358.0, 919.5)">i</text><text xml:space="preserve" font-family="MaisonNeue-Demi,Maison Neue" font-weight="bold" font-size="80.0" fill="#3BB77E" transform="matrix(1.00, 0.00, -0.00, -1.00, 1379.4, 919.5)">g</text><text xml:space="preserve" font-family="MaisonNeue-Demi,Maison Neue" font-weight="bold" font-size="80.0" fill="#3BB77E" transform="matrix(1.00, 0.00, -0.00, -1.00, 1427.5, 919.5)">n</text><text xml:space="preserve" font-family="MaisonNeue-Demi,Maison Neue" font-weight="bold" font-size="80.0" fill="#3BB77E" transform="matrix(1.00, 0.00, -0.00, -1.00, 1474.6, 919.5)">e</text><text xml:space="preserve" font-family="MaisonNeue-Demi,Maison Neue" font-weight="bold" font-size="80.0" fill="#3BB77E" transform="matrix(1.00, 0.00, -0.00, -1.00, 1519.8, 919.5)">r</text><text xml:space="preserve" font-family="MaisonNeue-Demi,Maison Neue" font-weight="bold" font-size="80.0" fill="#3BB77E" transform="matrix(1.00, 0.00, -0.00, -1.00, 1548.8, 919.5)">s</text><text xml:space="preserve" font-family="MaisonNeue-Demi,Maison Neue" font-weight="bold" font-size="80.0" fill="#3BB77E" transform="matrix(1.00, 0.00, -0.00, -1.00, 1590.1, 919.5)">:</text><text xml:space="preserve" font-family="MaisonNeue-Demi,Maison Neue" font-weight="bold" font-size="80.0" fill="#000000" transform="matrix(1.00, 0.00, -0.00, -1.00, 249.3, 575.7)">1</text><text xml:space="preserve" font-family="MaisonNeue-Demi,Maison Neue" font-weight="bold" font-size="80.0" fill="#000000" transform="matrix(1.00, 0.00, -0.00, -1.00, 286.8, 575.7)">.</text><text xml:space="preserve" font-family="MaisonNeue-Demi,Maison Neue" font-weight="bold" font-size="80.0" fill="#000000" transform="matrix(1.00, 0.00, -0.00, -1.00, 357.0, 575.7)">U</text><text xml:space="preserve" font-family="MaisonNeue-Demi,Maison Neue" font-weight="bold" font-size="80.0" fill="#000000" transform="matrix(1.00, 0.00, -0.00, -1.00, 409.6, 575.7)">n</text><text xml:space="preserve" font-family="MaisonNeue-Demi,Maison Neue" font-weight="bold" font-size="80.0" fill="#000000" transform="matrix(1.00, 0.00, -0.00, -1.00, 456.7, 575.7)">d</text><text xml:space="preserve" font-family="MaisonNeue-Demi,Maison Neue" font-weight="bold" font-size="80.0" fill="#000000" transform="matrix(1.00, 0.00, -0.00, -1.00, 504.5, 575.7)">e</text><text xml:space="preserve" font-family="MaisonNeue-Demi,Maison Neue" font-weight="bold" font-size="80.0" fill="#000000" transform="matrix(1.00, 0.00, -0.00, -1.00, 549.7, 575.7)">r</text><text xml:space="preserve" font-family="MaisonNeue-Demi,Maison Neue" font-weight="bold" font-size="80.0" fill="#000000" transform="matrix(1.00, 0.00, -0.00, -1.00, 578.7, 575.7)">s</text><text xml:space="preserve" font-family="MaisonNeue-Demi,Maison Neue" font-weight="bold" font-size="80.0" fill="#000000" transform="matrix(1.00, 0.00, -0.00, -1.00, 620.1, 575.7)">t</text><text xml:space="preserve" font-family="MaisonNeue-Demi,Maison Neue" font-weight="bold" font-size="80.0" fill="#000000" transform="matrix(1.00, 0.00, -0.00, -1.00, 649.6, 575.7)">a</text><text xml:space="preserve" font-family="MaisonNeue-Demi,Maison Neue" font-weight="bold" font-size="80.0" fill="#000000" transform="matrix(1.00, 0.00, -0.00, -1.00, 692.9, 575.7)">n</text><text xml:space="preserve" font-family="MaisonNeue-Demi,Maison Neue" font-weight="bold" font-size="80.0" fill="#000000" transform="matrix(1.00, 0.00, -0.00, -1.00, 740.0, 575.7)">d</text><text xml:space="preserve" font-family="MaisonNeue-Demi,Maison Neue" font-weight="bold" font-size="80.0" fill="#000000" transform="matrix(1.00, 0.00, -0.00, -1.00, 787.8, 575.7)"> </text><text xml:space="preserve" font-family="MaisonNeue-Demi,Maison Neue" font-weight="bold" font-size="80.0" fill="#000000" transform="matrix(1.00, 0.00, -0.00, -1.00, 807.8, 575.7)">y</text><text xml:space="preserve" font-family="MaisonNeue-Demi,Maison Neue" font-weight="bold" font-size="80.0" fill="#000000" transform="matrix(1.00, 0.00, -0.00, -1.00, 850.1, 575.7)">o</text><text xml:space="preserve" font-family="MaisonNeue-Demi,Maison Neue" font-weight="bold" font-size="80.0" fill="#000000" transform="matrix(1.00, 0.00, -0.00, -1.00, 895.7, 575.7)">u</text><text xml:space="preserve" font-family="MaisonNeue-Demi,Maison Neue" font-weight="bold" font-size="80.0" fill="#000000" transform="matrix(1.00, 0.00, -0.00, -1.00, 941.7, 575.7)">r</text><text xml:space="preserve" font-family="MaisonNeue-Demi,Maison Neue" font-weight="bold" font-size="80.0" fill="#000000" transform="matrix(1.00, 0.00, -0.00, -1.00, 970.6, 575.7)"> </text><text xml:space="preserve" font-family="MaisonNeue-Demi,Maison Neue" font-weight="bold" font-size="80.0" fill="#000000" transform="matrix(1.00, 0.00, -0.00, -1.00, 990.6, 575.7)">a</text><text xml:space="preserve" font-family="MaisonNeue-Demi,Maison Neue" font-weight="bold" font-size="80.0" fill="#000000" transform="matrix(1.00, 0.00, -0.00, -1.00, 1033.9, 575.7)">u</text><text xml:space="preserve" font-family="MaisonNeue-Demi,Maison Neue" font-weight="bold" font-size="80.0" fill="#000000" transform="matrix(1.00, 0.00, -0.00, -1.00, 1079.9, 575.7)">d</text><text xml:space="preserve" font-family="MaisonNeue-Demi,Maison Neue" font-weight="bold" font-size="80.0" fill="#000000" transform="matrix(1.00, 0.00, -0.00, -1.00, 1127.7, 575.7)">i</text><text xml:space="preserve" font-family="MaisonNeue-Demi,Maison Neue" font-weight="bold" font-size="80.0" fill="#000000" transform="matrix(1.00, 0.00, -0.00, -1.00, 1149.2, 575.7)">e</text><text xml:space="preserve" font-family="MaisonNeue-Demi,Maison Neue" font-weight="bold" font-size="80.0" fill="#000000" transform="matrix(1.00, 0.00, -0.00, -1.00, 1194.4, 575.7)">n</text><text xml:space="preserve" font-family="MaisonNeue-Demi,Maison Neue" font-weight="bold" font-size="80.0" fill="#000000" transform="matrix(1.00, 0.00, -0.00, -1.00, 1241.5, 575.7)">c</text><text xml:space="preserve" font-family="MaisonNeue-Demi,Maison Neue" font-weight="bold" font-size="80.0" fill="#000000" transform="matrix(1.00, 0.00, -0.00, -1.00, 1285.1, 575.7)">e</text><text xml:space="preserve" font-family="MaisonNeue-Demi,Maison Neue" font-weight="bold" font-size="80.0" fill="#000000" transform="matrix(1.00, 0.00, -0.00, -1.00, 1328.7, 575.7)">.</text><text xml:space="preserve" font-family="MaisonNeue-Demi,Maison Neue" font-weight="bold" font-size="80.0" fill="#000000" transform="matrix(1.00, 0.00, -0.00, -1.00, 1346.2, 575.7)"> </text><text xml:space="preserve" font-family="MaisonNeue-Demi,Maison Neue" font-weight="bold" font-size="80.0" fill="#000000" transform="matrix(1.00, 0.00, -0.00, -1.00, 249.3, 431.7)">2</text><text xml:space="preserve" font-family="MaisonNeue-Demi,Maison Neue" font-weight="bold" font-size="80.0" fill="#000000" transform="matrix(1.00, 0.00, -0.00, -1.00, 296.1, 431.7)">.</text><text xml:space="preserve" font-family="MaisonNeue-Demi,Maison Neue" font-weight="bold" font-size="80.0" fill="#000000" transform="matrix(1.00, 0.00, -0.00, -1.00, 357.0, 431.7)">W</text><text xml:space="preserve" font-family="MaisonNeue-Demi,Maison Neue" font-weight="bold" font-size="80.0" fill="#000000" transform="matrix(1.00, 0.00, -0.00, -1.00, 429.0, 431.7)">h</text><text xml:space="preserve" font-family="MaisonNeue-Demi,Maison Neue" font-weight="bold" font-size="80.0" fill="#000000" transform="matrix(1.00, 0.00, -0.00, -1.00, 476.5, 431.7)">a</text><text xml:space="preserve" font-family="MaisonNeue-Demi,Maison Neue" font-weight="bold" font-size="80.0" fill="#000000" transform="matrix(1.00, 0.00, -0.00, -1.00, 519.8, 431.7)">t</text><text xml:space="preserve" font-family="MaisonNeue-Demi,Maison Neue" font-weight="bold" font-size="80.0" fill="#000000" transform="matrix(1.00, 0.00, -0.00, -1.00, 550.1, 431.7)"> </text><text xml:space="preserve" font-family="MaisonNeue-Demi,Maison Neue" font-weight="bold" font-size="80.0" fill="#000000" transform="matrix(1.00, 0.00, -0.00, -1.00, 570.1, 431.7)">a</text><text xml:space="preserve" font-family="MaisonNeue-Demi,Maison Neue" font-weight="bold" font-size="80.0" fill="#000000" transform="matrix(1.00, 0.00, -0.00, -1.00, 613.4, 431.7)">r</text><text xml:space="preserve" font-family="MaisonNeue-Demi,Maison Neue" font-weight="bold" font-size="80.0" fill="#000000" transform="matrix(1.00, 0.00, -0.00, -1.00, 642.4, 431.7)">e</text><text xml:space="preserve" font-family="MaisonNeue-Demi,Maison Neue" font-weight="bold" font-size="80.0" fill="#000000" transform="matrix(1.00, 0.00, -0.00, -1.00, 687.6, 431.7)"> </text><text xml:space="preserve" font-family="MaisonNeue-Demi,Maison Neue" font-weight="bold" font-size="80.0" fill="#000000" transform="matrix(1.00, 0.00, -0.00, -1.00, 707.6, 431.7)">t</text><text xml:space="preserve" font-family="MaisonNeue-Demi,Maison Neue" font-weight="bold" font-size="80.0" fill="#000000" transform="matrix(1.00, 0.00, -0.00, -1.00, 737.9, 431.7)">h</text><text xml:space="preserve" font-family="MaisonNeue-Demi,Maison Neue" font-weight="bold" font-size="80.0" fill="#000000" transform="matrix(1.00, 0.00, -0.00, -1.00, 785.4, 431.7)">e</text><text xml:space="preserve" font-family="MaisonNeue-Demi,Maison Neue" font-weight="bold" font-size="80.0" fill="#000000" transform="matrix(1.00, 0.00, -0.00, -1.00, 829.0, 431.7)">y</text><text xml:space="preserve" font-family="MaisonNeue-Demi,Maison Neue" font-weight="bold" font-size="80.0" fill="#000000" transform="matrix(1.00, 0.00, -0.00, -1.00, 872.1, 431.7)"> </text><text xml:space="preserve" font-family="MaisonNeue-Demi,Maison Neue" font-weight="bold" font-size="80.0" fill="#000000" transform="matrix(1.00, 0.00, -0.00, -1.00, 892.1, 431.7)">l</text><text xml:space="preserve" font-family="MaisonNeue-Demi,Maison Neue" font-weight="bold" font-size="80.0" fill="#000000" transform="matrix(1.00, 0.00, -0.00, -1.00, 913.5, 431.7)">o</text><text xml:space="preserve" font-family="MaisonNeue-Demi,Maison Neue" font-weight="bold" font-size="80.0" fill="#000000" transform="matrix(1.00, 0.00, -0.00, -1.00, 959.1, 431.7)">o</text><text xml:space="preserve" font-family="MaisonNeue-Demi,Maison Neue" font-weight="bold" font-size="80.0" fill="#000000" transform="matrix(1.00, 0.00, -0.00, -1.00, 1004.7, 431.7)">k</text><text xml:space="preserve" font-family="MaisonNeue-Demi,Maison Neue" font-weight="bold" font-size="80.0" fill="#000000" transform="matrix(1.00, 0.00, -0.00, -1.00, 1049.8, 431.7)">i</text><text xml:space="preserve" font-family="MaisonNeue-Demi,Maison Neue" font-weight="bold" font-size="80.0" fill="#000000" transform="matrix(1.00, 0.00, -0.00, -1.00, 1071.3, 431.7)">n</text><text xml:space="preserve" font-family="MaisonNeue-Demi,Maison Neue" font-weight="bold" font-size="80.0" fill="#000000" transform="matrix(1.00, 0.00, -0.00, -1.00, 1118.4, 431.7)">g</text><text xml:space="preserve" font-family="MaisonNeue-Demi,Maison Neue" font-weight="bold" font-size="80.0" fill="#000000" transform="matrix(1.00, 0.00, -0.00, -1.00, 1166.5, 431.7)"> </text><text xml:space="preserve" font-family="MaisonNeue-Demi,Maison Neue" font-weight="bold" font-size="80.0" fill="#000000" transform="matrix(1.00, 0.00, -0.00, -1.00, 1186.5, 431.7)">f</text><text xml:space="preserve" font-family="MaisonNeue-Demi,Maison Neue" font-weight="bold" font-size="80.0" fill="#000000" transform="matrix(1.00, 0.00, -0.00, -1.00, 1214.3, 431.7)">o</text><text xml:space="preserve" font-family="MaisonNeue-Demi,Maison Neue" font-weight="bold" font-size="80.0" fill="#000000" transform="matrix(1.00, 0.00, -0.00, -1.00, 1259.9, 431.7)">r</text><text xml:space="preserve" font-family="MaisonNeue-Demi,Maison Neue" font-weight="bold" font-size="80.0" fill="#000000" transform="matrix(1.00, 0.00, -0.00, -1.00, 1288.9, 431.7)">?</text><text xml:space="preserve" font-family="MaisonNeue-Demi,Maison Neue" font-weight="bold" font-size="80.0" fill="#000000" transform="matrix(1.00, 0.00, -0.00, -1.00, 1331.2, 431.7)"> </text><text xml:space="preserve" font-family="MaisonNeue-Demi,Maison Neue" font-weight="bold" font-size="80.0" fill="#000000" transform="matrix(1.00, 0.00, -0.00, -1.00, 1351.2, 431.7)">W</text><text xml:space="preserve" font-family="MaisonNeue-Demi,Maison Neue" font-weight="bold" font-size="80.0" fill="#000000" transform="matrix(1.00, 0.00, -0.00, -1.00, 1423.2, 431.7)">h</text><text xml:space="preserve" font-family="MaisonNeue-Demi,Maison Neue" font-weight="bold" font-size="80.0" fill="#000000" transform="matrix(1.00, 0.00, -0.00, -1.00, 1470.7, 431.7)">a</text><text xml:space="preserve" font-family="MaisonNeue-Demi,Maison Neue" font-weight="bold" font-size="80.0" fill="#000000" transform="matrix(1.00, 0.00, -0.00, -1.00, 1514.0, 431.7)">t</text><text xml:space="preserve" font-family="MaisonNeue-Demi,Maison Neue" font-weight="bold" font-size="80.0" fill="#000000" transform="matrix(1.00, 0.00, -0.00, -1.00, 1544.3, 431.7)"> </text><text xml:space="preserve" font-family="MaisonNeue-Demi,Maison Neue" font-weight="bold" font-size="80.0" fill="#000000" transform="matrix(1.00, 0.00, -0.00, -1.00, 357.0, 287.7)">a</text><text xml:space="preserve" font-family="MaisonNeue-Demi,Maison Neue" font-weight="bold" font-size="80.0" fill="#000000" transform="matrix(1.00, 0.00, -0.00, -1.00, 400.3, 287.7)">r</text><text xml:space="preserve" font-family="MaisonNeue-Demi,Maison Neue" font-weight="bold" font-size="80.0" fill="#000000" transform="matrix(1.00, 0.00, -0.00, -1.00, 429.3, 287.7)">e</text><text xml:space="preserve" font-family="MaisonNeue-Demi,Maison Neue" font-weight="bold" font-size="80.0" fill="#000000" transform="matrix(1.00, 0.00, -0.00, -1.00, 474.5, 287.7)"> </text><text xml:space="preserve" font-family="MaisonNeue-Demi,Maison Neue" font-weight="bold" font-size="80.0" fill="#000000" transform="matrix(1.00, 0.00, -0.00, -1.00, 494.5, 287.7)">t</text><text xml:space="preserve" font-family="MaisonNeue-Demi,Maison Neue" font-weight="bold" font-size="80.0" fill="#000000" transform="matrix(1.00, 0.00, -0.00, -1.00, 524.8, 287.7)">h</text><text xml:space="preserve" font-family="MaisonNeue-Demi,Maison Neue" font-weight="bold" font-size="80.0" fill="#000000" transform="matrix(1.00, 0.00, -0.00, -1.00, 572.3, 287.7)">e</text><text xml:space="preserve" font-family="MaisonNeue-Demi,Maison Neue" font-weight="bold" font-size="80.0" fill="#000000" transform="matrix(1.00, 0.00, -0.00, -1.00, 617.5, 287.7)">i</text><text xml:space="preserve" font-family="MaisonNeue-Demi,Maison Neue" font-weight="bold" font-size="80.0" fill="#000000" transform="matrix(1.00, 0.00, -0.00, -1.00, 638.9, 287.7)">r</text><text xml:space="preserve" font-family="MaisonNeue-Demi,Maison Neue" font-weight="bold" font-size="80.0" fill="#000000" transform="matrix(1.00, 0.00, -0.00, -1.00, 667.9, 287.7)"> </text><text xml:space="preserve" font-family="MaisonNeue-Demi,Maison Neue" font-weight="bold" font-size="80.0" fill="#000000" transform="matrix(1.00, 0.00, -0.00, -1.00, 687.9, 287.7)">n</text><text xml:space="preserve" font-family="MaisonNeue-Demi,Maison Neue" font-weight="bold" font-size="80.0" fill="#000000" transform="matrix(1.00, 0.00, -0.00, -1.00, 735.0, 287.7)">e</text><text xml:space="preserve" font-family="MaisonNeue-Demi,Maison Neue" font-weight="bold" font-size="80.0" fill="#000000" transform="matrix(1.00, 0.00, -0.00, -1.00, 780.2, 287.7)">e</text><text xml:space="preserve" font-family="MaisonNeue-Demi,Maison Neue" font-weight="bold" font-size="80.0" fill="#000000" transform="matrix(1.00, 0.00, -0.00, -1.00, 825.4, 287.7)">d</text><text xml:space="preserve" font-family="MaisonNeue-Demi,Maison Neue" font-weight="bold" font-size="80.0" fill="#000000" transform="matrix(1.00, 0.00, -0.00, -1.00, 873.3, 287.7)">s</text><text xml:space="preserve" font-family="MaisonNeue-Demi,Maison Neue" font-weight="bold" font-size="80.0" fill="#000000" transform="matrix(1.00, 0.00, -0.00, -1.00, 914.6, 287.7)">?</text></g></svg>