<?xml version="1.0" encoding="UTF-8" standalone="no"?><svg xmlns="http://www.w3.org/2000/svg" xmlns:xlink="http://www.w3.org/1999/xlink" clip-rule="evenodd" stroke-miterlimit="10" viewBox="0 0 1300 82"><desc>SVG generated by Keynote</desc><defs></defs><g transform="matrix(1.00, 0.00, -0.00, -1.00, 0.0, 82.0)"><text xml:space="preserve" font-family="MaisonNeue-Demi,Maison Neue" font-weight="bold" font-size="80.0" fill="#3BB77E" transform="matrix(1.00, 0.00, -0.00, -1.00, -4.8, 21.5)">F</text><text xml:space="preserve" font-family="MaisonNeue-Demi,Maison Neue" font-weight="bold" font-size="80.0" fill="#3BB77E" transform="matrix(1.00, 0.00, -0.00, -1.00, 39.3, 21.5)">o</text><text xml:space="preserve" font-family="MaisonNeue-Demi,Maison Neue" font-weight="bold" font-size="80.0" fill="#3BB77E" transform="matrix(1.00, 0.00, -0.00, -1.00, 84.9, 21.5)">r</text><text xml:space="preserve" font-family="MaisonNeue-Demi,Maison Neue" font-weight="bold" font-size="80.0" fill="#3BB77E" transform="matrix(1.00, 0.00, -0.00, -1.00, 113.9, 21.5)"> </text><text xml:space="preserve" font-family="MaisonNeue-Demi,Maison Neue" font-weight="bold" font-size="80.0" fill="#3BB77E" transform="matrix(1.00, 0.00, -0.00, -1.00, 133.9, 21.5)">b</text><text xml:space="preserve" font-family="MaisonNeue-Demi,Maison Neue" font-weight="bold" font-size="80.0" fill="#3BB77E" transform="matrix(1.00, 0.00, -0.00, -1.00, 181.7, 21.5)">o</text><text xml:space="preserve" font-family="MaisonNeue-Demi,Maison Neue" font-weight="bold" font-size="80.0" fill="#3BB77E" transform="matrix(1.00, 0.00, -0.00, -1.00, 227.3, 21.5)">t</text><text xml:space="preserve" font-family="MaisonNeue-Demi,Maison Neue" font-weight="bold" font-size="80.0" fill="#3BB77E" transform="matrix(1.00, 0.00, -0.00, -1.00, 257.6, 21.5)">h</text><text xml:space="preserve" font-family="MaisonNeue-Demi,Maison Neue" font-weight="bold" font-size="80.0" fill="#3BB77E" transform="matrix(1.00, 0.00, -0.00, -1.00, 305.2, 21.5)"> </text><text xml:space="preserve" font-family="MaisonNeue-Demi,Maison Neue" font-weight="bold" font-size="80.0" fill="#3BB77E" transform="matrix(1.00, 0.00, -0.00, -1.00, 325.2, 21.5)">d</text><text xml:space="preserve" font-family="MaisonNeue-Demi,Maison Neue" font-weight="bold" font-size="80.0" fill="#3BB77E" transform="matrix(1.00, 0.00, -0.00, -1.00, 373.0, 21.5)">e</text><text xml:space="preserve" font-family="MaisonNeue-Demi,Maison Neue" font-weight="bold" font-size="80.0" fill="#3BB77E" transform="matrix(1.00, 0.00, -0.00, -1.00, 416.6, 21.5)">v</text><text xml:space="preserve" font-family="MaisonNeue-Demi,Maison Neue" font-weight="bold" font-size="80.0" fill="#3BB77E" transform="matrix(1.00, 0.00, -0.00, -1.00, 459.1, 21.5)">e</text><text xml:space="preserve" font-family="MaisonNeue-Demi,Maison Neue" font-weight="bold" font-size="80.0" fill="#3BB77E" transform="matrix(1.00, 0.00, -0.00, -1.00, 504.3, 21.5)">l</text><text xml:space="preserve" font-family="MaisonNeue-Demi,Maison Neue" font-weight="bold" font-size="80.0" fill="#3BB77E" transform="matrix(1.00, 0.00, -0.00, -1.00, 525.7, 21.5)">o</text><text xml:space="preserve" font-family="MaisonNeue-Demi,Maison Neue" font-weight="bold" font-size="80.0" fill="#3BB77E" transform="matrix(1.00, 0.00, -0.00, -1.00, 571.3, 21.5)">p</text><text xml:space="preserve" font-family="MaisonNeue-Demi,Maison Neue" font-weight="bold" font-size="80.0" fill="#3BB77E" transform="matrix(1.00, 0.00, -0.00, -1.00, 619.8, 21.5)">e</text><text xml:space="preserve" font-family="MaisonNeue-Demi,Maison Neue" font-weight="bold" font-size="80.0" fill="#3BB77E" transform="matrix(1.00, 0.00, -0.00, -1.00, 665.0, 21.5)">r</text><text xml:space="preserve" font-family="MaisonNeue-Demi,Maison Neue" font-weight="bold" font-size="80.0" fill="#3BB77E" transform="matrix(1.00, 0.00, -0.00, -1.00, 694.0, 21.5)">s</text><text xml:space="preserve" font-family="MaisonNeue-Demi,Maison Neue" font-weight="bold" font-size="80.0" fill="#3BB77E" transform="matrix(1.00, 0.00, -0.00, -1.00, 735.3, 21.5)"> </text><text xml:space="preserve" font-family="MaisonNeue-Demi,Maison Neue" font-weight="bold" font-size="80.0" fill="#3BB77E" transform="matrix(1.00, 0.00, -0.00, -1.00, 755.3, 21.5)">a</text><text xml:space="preserve" font-family="MaisonNeue-Demi,Maison Neue" font-weight="bold" font-size="80.0" fill="#3BB77E" transform="matrix(1.00, 0.00, -0.00, -1.00, 798.6, 21.5)">n</text><text xml:space="preserve" font-family="MaisonNeue-Demi,Maison Neue" font-weight="bold" font-size="80.0" fill="#3BB77E" transform="matrix(1.00, 0.00, -0.00, -1.00, 845.7, 21.5)">d</text><text xml:space="preserve" font-family="MaisonNeue-Demi,Maison Neue" font-weight="bold" font-size="80.0" fill="#3BB77E" transform="matrix(1.00, 0.00, -0.00, -1.00, 893.6, 21.5)"> </text><text xml:space="preserve" font-family="MaisonNeue-Demi,Maison Neue" font-weight="bold" font-size="80.0" fill="#3BB77E" transform="matrix(1.00, 0.00, -0.00, -1.00, 913.6, 21.5)">d</text><text xml:space="preserve" font-family="MaisonNeue-Demi,Maison Neue" font-weight="bold" font-size="80.0" fill="#3BB77E" transform="matrix(1.00, 0.00, -0.00, -1.00, 961.4, 21.5)">e</text><text xml:space="preserve" font-family="MaisonNeue-Demi,Maison Neue" font-weight="bold" font-size="80.0" fill="#3BB77E" transform="matrix(1.00, 0.00, -0.00, -1.00, 1006.6, 21.5)">s</text><text xml:space="preserve" font-family="MaisonNeue-Demi,Maison Neue" font-weight="bold" font-size="80.0" fill="#3BB77E" transform="matrix(1.00, 0.00, -0.00, -1.00, 1048.0, 21.5)">i</text><text xml:space="preserve" font-family="MaisonNeue-Demi,Maison Neue" font-weight="bold" font-size="80.0" fill="#3BB77E" transform="matrix(1.00, 0.00, -0.00, -1.00, 1069.4, 21.5)">g</text><text xml:space="preserve" font-family="MaisonNeue-Demi,Maison Neue" font-weight="bold" font-size="80.0" fill="#3BB77E" transform="matrix(1.00, 0.00, -0.00, -1.00, 1117.5, 21.5)">n</text><text xml:space="preserve" font-family="MaisonNeue-Demi,Maison Neue" font-weight="bold" font-size="80.0" fill="#3BB77E" transform="matrix(1.00, 0.00, -0.00, -1.00, 1164.6, 21.5)">e</text><text xml:space="preserve" font-family="MaisonNeue-Demi,Maison Neue" font-weight="bold" font-size="80.0" fill="#3BB77E" transform="matrix(1.00, 0.00, -0.00, -1.00, 1209.8, 21.5)">r</text><text xml:space="preserve" font-family="MaisonNeue-Demi,Maison Neue" font-weight="bold" font-size="80.0" fill="#3BB77E" transform="matrix(1.00, 0.00, -0.00, -1.00, 1238.8, 21.5)">s</text><text xml:space="preserve" font-family="MaisonNeue-Demi,Maison Neue" font-weight="bold" font-size="80.0" fill="#3BB77E" transform="matrix(1.00, 0.00, -0.00, -1.00, 1280.1, 21.5)">:</text></g></svg>