<?xml version="1.0" encoding="UTF-8" standalone="no"?><svg xmlns="http://www.w3.org/2000/svg" xmlns:xlink="http://www.w3.org/1999/xlink" clip-rule="evenodd" stroke-miterlimit="10" viewBox="0 0 1920 1080"><desc>SVG generated by Keynote</desc><defs></defs><g transform="matrix(1.00, 0.00, -0.00, -1.00, 0.0, 1080.0)"><path d="M 0.0 1080.0 L 1920.0 1080.0 L 1920.0 0.0 L 0.0 0.0 Z M 0.0 1080.0 " fill="#FEFFFF"></path><text xml:space="preserve" font-family="MaisonNeue-Demi,Maison Neue" font-weight="bold" font-size="80.0" fill="#3BB77E" transform="matrix(1.00, 0.00, -0.00, -1.00, 592.8, 919.5)">A</text><text xml:space="preserve" font-family="MaisonNeue-Demi,Maison Neue" font-weight="bold" font-size="80.0" fill="#3BB77E" transform="matrix(1.00, 0.00, -0.00, -1.00, 642.4, 919.5)">p</text><text xml:space="preserve" font-family="MaisonNeue-Demi,Maison Neue" font-weight="bold" font-size="80.0" fill="#3BB77E" transform="matrix(1.00, 0.00, -0.00, -1.00, 690.9, 919.5)">p</text><text xml:space="preserve" font-family="MaisonNeue-Demi,Maison Neue" font-weight="bold" font-size="80.0" fill="#3BB77E" transform="matrix(1.00, 0.00, -0.00, -1.00, 739.4, 919.5)">l</text><text xml:space="preserve" font-family="MaisonNeue-Demi,Maison Neue" font-weight="bold" font-size="80.0" fill="#3BB77E" transform="matrix(1.00, 0.00, -0.00, -1.00, 760.8, 919.5)">i</text><text xml:space="preserve" font-family="MaisonNeue-Demi,Maison Neue" font-weight="bold" font-size="80.0" fill="#3BB77E" transform="matrix(1.00, 0.00, -0.00, -1.00, 782.3, 919.5)">c</text><text xml:space="preserve" font-family="MaisonNeue-Demi,Maison Neue" font-weight="bold" font-size="80.0" fill="#3BB77E" transform="matrix(1.00, 0.00, -0.00, -1.00, 825.9, 919.5)">a</text><text xml:space="preserve" font-family="MaisonNeue-Demi,Maison Neue" font-weight="bold" font-size="80.0" fill="#3BB77E" transform="matrix(1.00, 0.00, -0.00, -1.00, 869.2, 919.5)">t</text><text xml:space="preserve" font-family="MaisonNeue-Demi,Maison Neue" font-weight="bold" font-size="80.0" fill="#3BB77E" transform="matrix(1.00, 0.00, -0.00, -1.00, 899.5, 919.5)">i</text><text xml:space="preserve" font-family="MaisonNeue-Demi,Maison Neue" font-weight="bold" font-size="80.0" fill="#3BB77E" transform="matrix(1.00, 0.00, -0.00, -1.00, 920.9, 919.5)">o</text><text xml:space="preserve" font-family="MaisonNeue-Demi,Maison Neue" font-weight="bold" font-size="80.0" fill="#3BB77E" transform="matrix(1.00, 0.00, -0.00, -1.00, 966.5, 919.5)">n</text><text xml:space="preserve" font-family="MaisonNeue-Demi,Maison Neue" font-weight="bold" font-size="80.0" fill="#3BB77E" transform="matrix(1.00, 0.00, -0.00, -1.00, 1013.6, 919.5)"> </text><text xml:space="preserve" font-family="MaisonNeue-Demi,Maison Neue" font-weight="bold" font-size="80.0" fill="#3BB77E" transform="matrix(1.00, 0.00, -0.00, -1.00, 1033.6, 919.5)">P</text><text xml:space="preserve" font-family="MaisonNeue-Demi,Maison Neue" font-weight="bold" font-size="80.0" fill="#3BB77E" transform="matrix(1.00, 0.00, -0.00, -1.00, 1082.7, 919.5)">r</text><text xml:space="preserve" font-family="MaisonNeue-Demi,Maison Neue" font-weight="bold" font-size="80.0" fill="#3BB77E" transform="matrix(1.00, 0.00, -0.00, -1.00, 1110.0, 919.5)">o</text><text xml:space="preserve" font-family="MaisonNeue-Demi,Maison Neue" font-weight="bold" font-size="80.0" fill="#3BB77E" transform="matrix(1.00, 0.00, -0.00, -1.00, 1155.6, 919.5)">c</text><text xml:space="preserve" font-family="MaisonNeue-Demi,Maison Neue" font-weight="bold" font-size="80.0" fill="#3BB77E" transform="matrix(1.00, 0.00, -0.00, -1.00, 1199.2, 919.5)">e</text><text xml:space="preserve" font-family="MaisonNeue-Demi,Maison Neue" font-weight="bold" font-size="80.0" fill="#3BB77E" transform="matrix(1.00, 0.00, -0.00, -1.00, 1244.4, 919.5)">s</text><text xml:space="preserve" font-family="MaisonNeue-Demi,Maison Neue" font-weight="bold" font-size="80.0" fill="#3BB77E" transform="matrix(1.00, 0.00, -0.00, -1.00, 1285.8, 919.5)">s</text><text xml:space="preserve" font-family="MaisonNeue-Demi,Maison Neue" font-weight="bold" font-size="62.4" fill="#000000" transform="matrix(1.00, 0.00, -0.00, -1.00, 290.6, 771.7)">1</text><text xml:space="preserve" font-family="MaisonNeue-Demi,Maison Neue" font-weight="bold" font-size="62.4" fill="#000000" transform="matrix(1.00, 0.00, -0.00, -1.00, 319.8, 771.7)">.</text><text xml:space="preserve" font-family="MaisonNeue-Demi,Maison Neue" font-weight="bold" font-size="62.4" fill="#000000" transform="matrix(1.00, 0.00, -0.00, -1.00, 374.6, 771.7)">O</text><text xml:space="preserve" font-family="MaisonNeue-Demi,Maison Neue" font-weight="bold" font-size="62.4" fill="#000000" transform="matrix(1.00, 0.00, -0.00, -1.00, 417.8, 771.7)">n</text><text xml:space="preserve" font-family="MaisonNeue-Demi,Maison Neue" font-weight="bold" font-size="62.4" fill="#000000" transform="matrix(1.00, 0.00, -0.00, -1.00, 454.5, 771.7)">l</text><text xml:space="preserve" font-family="MaisonNeue-Demi,Maison Neue" font-weight="bold" font-size="62.4" fill="#000000" transform="matrix(1.00, 0.00, -0.00, -1.00, 471.2, 771.7)">i</text><text xml:space="preserve" font-family="MaisonNeue-Demi,Maison Neue" font-weight="bold" font-size="62.4" fill="#000000" transform="matrix(1.00, 0.00, -0.00, -1.00, 488.0, 771.7)">n</text><text xml:space="preserve" font-family="MaisonNeue-Demi,Maison Neue" font-weight="bold" font-size="62.4" fill="#000000" transform="matrix(1.00, 0.00, -0.00, -1.00, 524.7, 771.7)">e</text><text xml:space="preserve" font-family="MaisonNeue-Demi,Maison Neue" font-weight="bold" font-size="62.4" fill="#000000" transform="matrix(1.00, 0.00, -0.00, -1.00, 560.0, 771.7)"> </text><text xml:space="preserve" font-family="MaisonNeue-Demi,Maison Neue" font-weight="bold" font-size="62.4" fill="#000000" transform="matrix(1.00, 0.00, -0.00, -1.00, 575.6, 771.7)">A</text><text xml:space="preserve" font-family="MaisonNeue-Demi,Maison Neue" font-weight="bold" font-size="62.4" fill="#000000" transform="matrix(1.00, 0.00, -0.00, -1.00, 614.3, 771.7)">p</text><text xml:space="preserve" font-family="MaisonNeue-Demi,Maison Neue" font-weight="bold" font-size="62.4" fill="#000000" transform="matrix(1.00, 0.00, -0.00, -1.00, 652.1, 771.7)">p</text><text xml:space="preserve" font-family="MaisonNeue-Demi,Maison Neue" font-weight="bold" font-size="62.4" fill="#000000" transform="matrix(1.00, 0.00, -0.00, -1.00, 689.9, 771.7)">l</text><text xml:space="preserve" font-family="MaisonNeue-Demi,Maison Neue" font-weight="bold" font-size="62.4" fill="#000000" transform="matrix(1.00, 0.00, -0.00, -1.00, 706.6, 771.7)">i</text><text xml:space="preserve" font-family="MaisonNeue-Demi,Maison Neue" font-weight="bold" font-size="62.4" fill="#000000" transform="matrix(1.00, 0.00, -0.00, -1.00, 723.3, 771.7)">c</text><text xml:space="preserve" font-family="MaisonNeue-Demi,Maison Neue" font-weight="bold" font-size="62.4" fill="#000000" transform="matrix(1.00, 0.00, -0.00, -1.00, 757.4, 771.7)">a</text><text xml:space="preserve" font-family="MaisonNeue-Demi,Maison Neue" font-weight="bold" font-size="62.4" fill="#000000" transform="matrix(1.00, 0.00, -0.00, -1.00, 791.1, 771.7)">t</text><text xml:space="preserve" font-family="MaisonNeue-Demi,Maison Neue" font-weight="bold" font-size="62.4" fill="#000000" transform="matrix(1.00, 0.00, -0.00, -1.00, 814.8, 771.7)">i</text><text xml:space="preserve" font-family="MaisonNeue-Demi,Maison Neue" font-weight="bold" font-size="62.4" fill="#000000" transform="matrix(1.00, 0.00, -0.00, -1.00, 831.5, 771.7)">o</text><text xml:space="preserve" font-family="MaisonNeue-Demi,Maison Neue" font-weight="bold" font-size="62.4" fill="#000000" transform="matrix(1.00, 0.00, -0.00, -1.00, 867.1, 771.7)">n</text><text xml:space="preserve" font-family="MaisonNeue-Demi,Maison Neue" font-weight="bold" font-size="62.4" fill="#000000" transform="matrix(1.00, 0.00, -0.00, -1.00, 290.6, 660.7)">2</text><text xml:space="preserve" font-family="MaisonNeue-Demi,Maison Neue" font-weight="bold" font-size="62.4" fill="#000000" transform="matrix(1.00, 0.00, -0.00, -1.00, 327.1, 660.7)">.</text><text xml:space="preserve" font-family="MaisonNeue-Demi,Maison Neue" font-weight="bold" font-size="62.4" fill="#000000" transform="matrix(1.00, 0.00, -0.00, -1.00, 374.6, 660.7)">F</text><text xml:space="preserve" font-family="MaisonNeue-Demi,Maison Neue" font-weight="bold" font-size="62.4" fill="#000000" transform="matrix(1.00, 0.00, -0.00, -1.00, 409.7, 660.7)">i</text><text xml:space="preserve" font-family="MaisonNeue-Demi,Maison Neue" font-weight="bold" font-size="62.4" fill="#000000" transform="matrix(1.00, 0.00, -0.00, -1.00, 426.4, 660.7)">r</text><text xml:space="preserve" font-family="MaisonNeue-Demi,Maison Neue" font-weight="bold" font-size="62.4" fill="#000000" transform="matrix(1.00, 0.00, -0.00, -1.00, 449.0, 660.7)">s</text><text xml:space="preserve" font-family="MaisonNeue-Demi,Maison Neue" font-weight="bold" font-size="62.4" fill="#000000" transform="matrix(1.00, 0.00, -0.00, -1.00, 481.2, 660.7)">t</text><text xml:space="preserve" font-family="MaisonNeue-Demi,Maison Neue" font-weight="bold" font-size="62.4" fill="#000000" transform="matrix(1.00, 0.00, -0.00, -1.00, 504.9, 660.7)"> </text><text xml:space="preserve" font-family="MaisonNeue-Demi,Maison Neue" font-weight="bold" font-size="62.4" fill="#000000" transform="matrix(1.00, 0.00, -0.00, -1.00, 520.5, 660.7)">r</text><text xml:space="preserve" font-family="MaisonNeue-Demi,Maison Neue" font-weight="bold" font-size="62.4" fill="#000000" transform="matrix(1.00, 0.00, -0.00, -1.00, 541.8, 660.7)">o</text><text xml:space="preserve" font-family="MaisonNeue-Demi,Maison Neue" font-weight="bold" font-size="62.4" fill="#000000" transform="matrix(1.00, 0.00, -0.00, -1.00, 577.4, 660.7)">u</text><text xml:space="preserve" font-family="MaisonNeue-Demi,Maison Neue" font-weight="bold" font-size="62.4" fill="#000000" transform="matrix(1.00, 0.00, -0.00, -1.00, 613.3, 660.7)">n</text><text xml:space="preserve" font-family="MaisonNeue-Demi,Maison Neue" font-weight="bold" font-size="62.4" fill="#000000" transform="matrix(1.00, 0.00, -0.00, -1.00, 650.0, 660.7)">d</text><text xml:space="preserve" font-family="MaisonNeue-Demi,Maison Neue" font-weight="bold" font-size="62.4" fill="#000000" transform="matrix(1.00, 0.00, -0.00, -1.00, 687.3, 660.7)"> </text><text xml:space="preserve" font-family="MaisonNeue-Demi,Maison Neue" font-weight="bold" font-size="62.4" fill="#000000" transform="matrix(1.00, 0.00, -0.00, -1.00, 702.9, 660.7)">i</text><text xml:space="preserve" font-family="MaisonNeue-Demi,Maison Neue" font-weight="bold" font-size="62.4" fill="#000000" transform="matrix(1.00, 0.00, -0.00, -1.00, 719.7, 660.7)">n</text><text xml:space="preserve" font-family="MaisonNeue-Demi,Maison Neue" font-weight="bold" font-size="62.4" fill="#000000" transform="matrix(1.00, 0.00, -0.00, -1.00, 756.4, 660.7)">t</text><text xml:space="preserve" font-family="MaisonNeue-Demi,Maison Neue" font-weight="bold" font-size="62.4" fill="#000000" transform="matrix(1.00, 0.00, -0.00, -1.00, 778.8, 660.7)">e</text><text xml:space="preserve" font-family="MaisonNeue-Demi,Maison Neue" font-weight="bold" font-size="62.4" fill="#000000" transform="matrix(1.00, 0.00, -0.00, -1.00, 814.1, 660.7)">r</text><text xml:space="preserve" font-family="MaisonNeue-Demi,Maison Neue" font-weight="bold" font-size="62.4" fill="#000000" transform="matrix(1.00, 0.00, -0.00, -1.00, 836.7, 660.7)">v</text><text xml:space="preserve" font-family="MaisonNeue-Demi,Maison Neue" font-weight="bold" font-size="62.4" fill="#000000" transform="matrix(1.00, 0.00, -0.00, -1.00, 871.0, 660.7)">i</text><text xml:space="preserve" font-family="MaisonNeue-Demi,Maison Neue" font-weight="bold" font-size="62.4" fill="#000000" transform="matrix(1.00, 0.00, -0.00, -1.00, 887.8, 660.7)">e</text><text xml:space="preserve" font-family="MaisonNeue-Demi,Maison Neue" font-weight="bold" font-size="62.4" fill="#000000" transform="matrix(1.00, 0.00, -0.00, -1.00, 923.0, 660.7)">w</text><text xml:space="preserve" font-family="MaisonNeue-Demi,Maison Neue" font-weight="bold" font-size="62.4" fill="#000000" transform="matrix(1.00, 0.00, -0.00, -1.00, 290.6, 549.7)">3</text><text xml:space="preserve" font-family="MaisonNeue-Demi,Maison Neue" font-weight="bold" font-size="62.4" fill="#000000" transform="matrix(1.00, 0.00, -0.00, -1.00, 327.0, 549.7)">.</text><text xml:space="preserve" font-family="MaisonNeue-Demi,Maison Neue" font-weight="bold" font-size="62.4" fill="#000000" transform="matrix(1.00, 0.00, -0.00, -1.00, 374.6, 549.7)">C</text><text xml:space="preserve" font-family="MaisonNeue-Demi,Maison Neue" font-weight="bold" font-size="62.4" fill="#000000" transform="matrix(1.00, 0.00, -0.00, -1.00, 416.0, 549.7)">h</text><text xml:space="preserve" font-family="MaisonNeue-Demi,Maison Neue" font-weight="bold" font-size="62.4" fill="#000000" transform="matrix(1.00, 0.00, -0.00, -1.00, 453.1, 549.7)">o</text><text xml:space="preserve" font-family="MaisonNeue-Demi,Maison Neue" font-weight="bold" font-size="62.4" fill="#000000" transform="matrix(1.00, 0.00, -0.00, -1.00, 488.7, 549.7)">o</text><text xml:space="preserve" font-family="MaisonNeue-Demi,Maison Neue" font-weight="bold" font-size="62.4" fill="#000000" transform="matrix(1.00, 0.00, -0.00, -1.00, 524.2, 549.7)">s</text><text xml:space="preserve" font-family="MaisonNeue-Demi,Maison Neue" font-weight="bold" font-size="62.4" fill="#000000" transform="matrix(1.00, 0.00, -0.00, -1.00, 556.5, 549.7)">e</text><text xml:space="preserve" font-family="MaisonNeue-Demi,Maison Neue" font-weight="bold" font-size="62.4" fill="#000000" transform="matrix(1.00, 0.00, -0.00, -1.00, 591.7, 549.7)"> </text><text xml:space="preserve" font-family="MaisonNeue-Demi,Maison Neue" font-weight="bold" font-size="62.4" fill="#000000" transform="matrix(1.00, 0.00, -0.00, -1.00, 607.3, 549.7)">8</text><text xml:space="preserve" font-family="MaisonNeue-Demi,Maison Neue" font-weight="bold" font-size="62.4" fill="#000000" transform="matrix(1.00, 0.00, -0.00, -1.00, 643.3, 549.7)"> </text><text xml:space="preserve" font-family="MaisonNeue-Demi,Maison Neue" font-weight="bold" font-size="62.4" fill="#000000" transform="matrix(1.00, 0.00, -0.00, -1.00, 658.9, 549.7)">c</text><text xml:space="preserve" font-family="MaisonNeue-Demi,Maison Neue" font-weight="bold" font-size="62.4" fill="#000000" transform="matrix(1.00, 0.00, -0.00, -1.00, 693.0, 549.7)">o</text><text xml:space="preserve" font-family="MaisonNeue-Demi,Maison Neue" font-weight="bold" font-size="62.4" fill="#000000" transform="matrix(1.00, 0.00, -0.00, -1.00, 728.5, 549.7)">m</text><text xml:space="preserve" font-family="MaisonNeue-Demi,Maison Neue" font-weight="bold" font-size="62.4" fill="#000000" transform="matrix(1.00, 0.00, -0.00, -1.00, 782.2, 549.7)">p</text><text xml:space="preserve" font-family="MaisonNeue-Demi,Maison Neue" font-weight="bold" font-size="62.4" fill="#000000" transform="matrix(1.00, 0.00, -0.00, -1.00, 820.0, 549.7)">a</text><text xml:space="preserve" font-family="MaisonNeue-Demi,Maison Neue" font-weight="bold" font-size="62.4" fill="#000000" transform="matrix(1.00, 0.00, -0.00, -1.00, 853.8, 549.7)">n</text><text xml:space="preserve" font-family="MaisonNeue-Demi,Maison Neue" font-weight="bold" font-size="62.4" fill="#000000" transform="matrix(1.00, 0.00, -0.00, -1.00, 890.5, 549.7)">i</text><text xml:space="preserve" font-family="MaisonNeue-Demi,Maison Neue" font-weight="bold" font-size="62.4" fill="#000000" transform="matrix(1.00, 0.00, -0.00, -1.00, 907.2, 549.7)">e</text><text xml:space="preserve" font-family="MaisonNeue-Demi,Maison Neue" font-weight="bold" font-size="62.4" fill="#000000" transform="matrix(1.00, 0.00, -0.00, -1.00, 942.5, 549.7)">s</text><text xml:space="preserve" font-family="MaisonNeue-Demi,Maison Neue" font-weight="bold" font-size="62.4" fill="#000000" transform="matrix(1.00, 0.00, -0.00, -1.00, 974.8, 549.7)"> </text><text xml:space="preserve" font-family="MaisonNeue-Demi,Maison Neue" font-weight="bold" font-size="62.4" fill="#000000" transform="matrix(1.00, 0.00, -0.00, -1.00, 990.4, 549.7)">y</text><text xml:space="preserve" font-family="MaisonNeue-Demi,Maison Neue" font-weight="bold" font-size="62.4" fill="#000000" transform="matrix(1.00, 0.00, -0.00, -1.00, 1023.3, 549.7)">o</text><text xml:space="preserve" font-family="MaisonNeue-Demi,Maison Neue" font-weight="bold" font-size="62.4" fill="#000000" transform="matrix(1.00, 0.00, -0.00, -1.00, 1058.9, 549.7)">u</text><text xml:space="preserve" font-family="MaisonNeue-Demi,Maison Neue" font-weight="bold" font-size="62.4" fill="#000000" transform="matrix(1.00, 0.00, -0.00, -1.00, 1094.7, 549.7)">’</text><text xml:space="preserve" font-family="MaisonNeue-Demi,Maison Neue" font-weight="bold" font-size="62.4" fill="#000000" transform="matrix(1.00, 0.00, -0.00, -1.00, 1114.0, 549.7)">r</text><text xml:space="preserve" font-family="MaisonNeue-Demi,Maison Neue" font-weight="bold" font-size="62.4" fill="#000000" transform="matrix(1.00, 0.00, -0.00, -1.00, 1136.6, 549.7)">e</text><text xml:space="preserve" font-family="MaisonNeue-Demi,Maison Neue" font-weight="bold" font-size="62.4" fill="#000000" transform="matrix(1.00, 0.00, -0.00, -1.00, 1171.9, 549.7)"> </text><text xml:space="preserve" font-family="MaisonNeue-Demi,Maison Neue" font-weight="bold" font-size="62.4" fill="#000000" transform="matrix(1.00, 0.00, -0.00, -1.00, 1187.5, 549.7)">i</text><text xml:space="preserve" font-family="MaisonNeue-Demi,Maison Neue" font-weight="bold" font-size="62.4" fill="#000000" transform="matrix(1.00, 0.00, -0.00, -1.00, 1204.2, 549.7)">n</text><text xml:space="preserve" font-family="MaisonNeue-Demi,Maison Neue" font-weight="bold" font-size="62.4" fill="#000000" transform="matrix(1.00, 0.00, -0.00, -1.00, 1241.0, 549.7)">t</text><text xml:space="preserve" font-family="MaisonNeue-Demi,Maison Neue" font-weight="bold" font-size="62.4" fill="#000000" transform="matrix(1.00, 0.00, -0.00, -1.00, 1263.4, 549.7)">e</text><text xml:space="preserve" font-family="MaisonNeue-Demi,Maison Neue" font-weight="bold" font-size="62.4" fill="#000000" transform="matrix(1.00, 0.00, -0.00, -1.00, 1298.6, 549.7)">r</text><text xml:space="preserve" font-family="MaisonNeue-Demi,Maison Neue" font-weight="bold" font-size="62.4" fill="#000000" transform="matrix(1.00, 0.00, -0.00, -1.00, 1321.2, 549.7)">e</text><text xml:space="preserve" font-family="MaisonNeue-Demi,Maison Neue" font-weight="bold" font-size="62.4" fill="#000000" transform="matrix(1.00, 0.00, -0.00, -1.00, 1356.5, 549.7)">s</text><text xml:space="preserve" font-family="MaisonNeue-Demi,Maison Neue" font-weight="bold" font-size="62.4" fill="#000000" transform="matrix(1.00, 0.00, -0.00, -1.00, 1388.7, 549.7)">t</text><text xml:space="preserve" font-family="MaisonNeue-Demi,Maison Neue" font-weight="bold" font-size="62.4" fill="#000000" transform="matrix(1.00, 0.00, -0.00, -1.00, 1411.1, 549.7)">e</text><text xml:space="preserve" font-family="MaisonNeue-Demi,Maison Neue" font-weight="bold" font-size="62.4" fill="#000000" transform="matrix(1.00, 0.00, -0.00, -1.00, 1446.4, 549.7)">d</text><text xml:space="preserve" font-family="MaisonNeue-Demi,Maison Neue" font-weight="bold" font-size="62.4" fill="#000000" transform="matrix(1.00, 0.00, -0.00, -1.00, 1483.7, 549.7)"> </text><text xml:space="preserve" font-family="MaisonNeue-Demi,Maison Neue" font-weight="bold" font-size="62.4" fill="#000000" transform="matrix(1.00, 0.00, -0.00, -1.00, 1499.3, 549.7)">i</text><text xml:space="preserve" font-family="MaisonNeue-Demi,Maison Neue" font-weight="bold" font-size="62.4" fill="#000000" transform="matrix(1.00, 0.00, -0.00, -1.00, 1516.0, 549.7)">n</text><text xml:space="preserve" font-family="MaisonNeue-Demi,Maison Neue" font-weight="bold" font-size="62.4" fill="#000000" transform="matrix(1.00, 0.00, -0.00, -1.00, 290.6, 438.7)">4</text><text xml:space="preserve" font-family="MaisonNeue-Demi,Maison Neue" font-weight="bold" font-size="62.4" fill="#000000" transform="matrix(1.00, 0.00, -0.00, -1.00, 326.8, 438.7)">.</text><text xml:space="preserve" font-family="MaisonNeue-Demi,Maison Neue" font-weight="bold" font-size="62.4" fill="#000000" transform="matrix(1.00, 0.00, -0.00, -1.00, 374.6, 438.7)">S</text><text xml:space="preserve" font-family="MaisonNeue-Demi,Maison Neue" font-weight="bold" font-size="62.4" fill="#000000" transform="matrix(1.00, 0.00, -0.00, -1.00, 412.3, 438.7)">e</text><text xml:space="preserve" font-family="MaisonNeue-Demi,Maison Neue" font-weight="bold" font-size="62.4" fill="#000000" transform="matrix(1.00, 0.00, -0.00, -1.00, 447.5, 438.7)">c</text><text xml:space="preserve" font-family="MaisonNeue-Demi,Maison Neue" font-weight="bold" font-size="62.4" fill="#000000" transform="matrix(1.00, 0.00, -0.00, -1.00, 481.5, 438.7)">o</text><text xml:space="preserve" font-family="MaisonNeue-Demi,Maison Neue" font-weight="bold" font-size="62.4" fill="#000000" transform="matrix(1.00, 0.00, -0.00, -1.00, 517.1, 438.7)">n</text><text xml:space="preserve" font-family="MaisonNeue-Demi,Maison Neue" font-weight="bold" font-size="62.4" fill="#000000" transform="matrix(1.00, 0.00, -0.00, -1.00, 553.9, 438.7)">d</text><text xml:space="preserve" font-family="MaisonNeue-Demi,Maison Neue" font-weight="bold" font-size="62.4" fill="#000000" transform="matrix(1.00, 0.00, -0.00, -1.00, 591.2, 438.7)"> </text><text xml:space="preserve" font-family="MaisonNeue-Demi,Maison Neue" font-weight="bold" font-size="62.4" fill="#000000" transform="matrix(1.00, 0.00, -0.00, -1.00, 606.8, 438.7)">r</text><text xml:space="preserve" font-family="MaisonNeue-Demi,Maison Neue" font-weight="bold" font-size="62.4" fill="#000000" transform="matrix(1.00, 0.00, -0.00, -1.00, 628.1, 438.7)">o</text><text xml:space="preserve" font-family="MaisonNeue-Demi,Maison Neue" font-weight="bold" font-size="62.4" fill="#000000" transform="matrix(1.00, 0.00, -0.00, -1.00, 663.7, 438.7)">u</text><text xml:space="preserve" font-family="MaisonNeue-Demi,Maison Neue" font-weight="bold" font-size="62.4" fill="#000000" transform="matrix(1.00, 0.00, -0.00, -1.00, 699.6, 438.7)">n</text><text xml:space="preserve" font-family="MaisonNeue-Demi,Maison Neue" font-weight="bold" font-size="62.4" fill="#000000" transform="matrix(1.00, 0.00, -0.00, -1.00, 736.3, 438.7)">d</text><text xml:space="preserve" font-family="MaisonNeue-Demi,Maison Neue" font-weight="bold" font-size="62.4" fill="#000000" transform="matrix(1.00, 0.00, -0.00, -1.00, 773.6, 438.7)"> </text><text xml:space="preserve" font-family="MaisonNeue-Demi,Maison Neue" font-weight="bold" font-size="62.4" fill="#000000" transform="matrix(1.00, 0.00, -0.00, -1.00, 789.2, 438.7)">i</text><text xml:space="preserve" font-family="MaisonNeue-Demi,Maison Neue" font-weight="bold" font-size="62.4" fill="#000000" transform="matrix(1.00, 0.00, -0.00, -1.00, 806.0, 438.7)">n</text><text xml:space="preserve" font-family="MaisonNeue-Demi,Maison Neue" font-weight="bold" font-size="62.4" fill="#000000" transform="matrix(1.00, 0.00, -0.00, -1.00, 842.7, 438.7)">t</text><text xml:space="preserve" font-family="MaisonNeue-Demi,Maison Neue" font-weight="bold" font-size="62.4" fill="#000000" transform="matrix(1.00, 0.00, -0.00, -1.00, 865.1, 438.7)">e</text><text xml:space="preserve" font-family="MaisonNeue-Demi,Maison Neue" font-weight="bold" font-size="62.4" fill="#000000" transform="matrix(1.00, 0.00, -0.00, -1.00, 900.4, 438.7)">r</text><text xml:space="preserve" font-family="MaisonNeue-Demi,Maison Neue" font-weight="bold" font-size="62.4" fill="#000000" transform="matrix(1.00, 0.00, -0.00, -1.00, 923.0, 438.7)">v</text><text xml:space="preserve" font-family="MaisonNeue-Demi,Maison Neue" font-weight="bold" font-size="62.4" fill="#000000" transform="matrix(1.00, 0.00, -0.00, -1.00, 957.3, 438.7)">i</text><text xml:space="preserve" font-family="MaisonNeue-Demi,Maison Neue" font-weight="bold" font-size="62.4" fill="#000000" transform="matrix(1.00, 0.00, -0.00, -1.00, 974.1, 438.7)">e</text><text xml:space="preserve" font-family="MaisonNeue-Demi,Maison Neue" font-weight="bold" font-size="62.4" fill="#000000" transform="matrix(1.00, 0.00, -0.00, -1.00, 1009.3, 438.7)">w</text><text xml:space="preserve" font-family="MaisonNeue-Demi,Maison Neue" font-weight="bold" font-size="62.4" fill="#000000" transform="matrix(1.00, 0.00, -0.00, -1.00, 290.6, 327.7)">5</text><text xml:space="preserve" font-family="MaisonNeue-Demi,Maison Neue" font-weight="bold" font-size="62.4" fill="#000000" transform="matrix(1.00, 0.00, -0.00, -1.00, 327.3, 327.7)">.</text><text xml:space="preserve" font-family="MaisonNeue-Demi,Maison Neue" font-weight="bold" font-size="62.4" fill="#000000" transform="matrix(1.00, 0.00, -0.00, -1.00, 374.6, 327.7)">w</text><text xml:space="preserve" font-family="MaisonNeue-Demi,Maison Neue" font-weight="bold" font-size="62.4" fill="#000000" transform="matrix(1.00, 0.00, -0.00, -1.00, 424.7, 327.7)">h</text><text xml:space="preserve" font-family="MaisonNeue-Demi,Maison Neue" font-weight="bold" font-size="62.4" fill="#000000" transform="matrix(1.00, 0.00, -0.00, -1.00, 461.8, 327.7)">i</text><text xml:space="preserve" font-family="MaisonNeue-Demi,Maison Neue" font-weight="bold" font-size="62.4" fill="#000000" transform="matrix(1.00, 0.00, -0.00, -1.00, 478.5, 327.7)">l</text><text xml:space="preserve" font-family="MaisonNeue-Demi,Maison Neue" font-weight="bold" font-size="62.4" fill="#000000" transform="matrix(1.00, 0.00, -0.00, -1.00, 495.2, 327.7)">e</text><text xml:space="preserve" font-family="MaisonNeue-Demi,Maison Neue" font-weight="bold" font-size="62.4" fill="#000000" transform="matrix(1.00, 0.00, -0.00, -1.00, 530.5, 327.7)"> </text><text xml:space="preserve" font-family="MaisonNeue-Demi,Maison Neue" font-weight="bold" font-size="62.4" fill="#000000" transform="matrix(1.00, 0.00, -0.00, -1.00, 546.1, 327.7)">a</text><text xml:space="preserve" font-family="MaisonNeue-Demi,Maison Neue" font-weight="bold" font-size="62.4" fill="#000000" transform="matrix(1.00, 0.00, -0.00, -1.00, 579.8, 327.7)">l</text><text xml:space="preserve" font-family="MaisonNeue-Demi,Maison Neue" font-weight="bold" font-size="62.4" fill="#000000" transform="matrix(1.00, 0.00, -0.00, -1.00, 596.5, 327.7)">i</text><text xml:space="preserve" font-family="MaisonNeue-Demi,Maison Neue" font-weight="bold" font-size="62.4" fill="#000000" transform="matrix(1.00, 0.00, -0.00, -1.00, 613.3, 327.7)">v</text><text xml:space="preserve" font-family="MaisonNeue-Demi,Maison Neue" font-weight="bold" font-size="62.4" fill="#000000" transform="matrix(1.00, 0.00, -0.00, -1.00, 646.4, 327.7)">e</text><text xml:space="preserve" font-family="MaisonNeue-Demi,Maison Neue" font-weight="bold" font-size="62.4" fill="#000000" transform="matrix(1.00, 0.00, -0.00, -1.00, 681.7, 327.7)">:</text><text xml:space="preserve" font-family="MaisonNeue-Demi,Maison Neue" font-weight="bold" font-size="62.4" fill="#000000" transform="matrix(1.00, 0.00, -0.00, -1.00, 434.6, 216.7)">i</text><text xml:space="preserve" font-family="MaisonNeue-Demi,Maison Neue" font-weight="bold" font-size="62.4" fill="#000000" transform="matrix(1.00, 0.00, -0.00, -1.00, 451.3, 216.7)">n</text><text xml:space="preserve" font-family="MaisonNeue-Demi,Maison Neue" font-weight="bold" font-size="62.4" fill="#000000" transform="matrix(1.00, 0.00, -0.00, -1.00, 488.1, 216.7)">t</text><text xml:space="preserve" font-family="MaisonNeue-Demi,Maison Neue" font-weight="bold" font-size="62.4" fill="#000000" transform="matrix(1.00, 0.00, -0.00, -1.00, 510.5, 216.7)">e</text><text xml:space="preserve" font-family="MaisonNeue-Demi,Maison Neue" font-weight="bold" font-size="62.4" fill="#000000" transform="matrix(1.00, 0.00, -0.00, -1.00, 545.7, 216.7)">r</text><text xml:space="preserve" font-family="MaisonNeue-Demi,Maison Neue" font-weight="bold" font-size="62.4" fill="#000000" transform="matrix(1.00, 0.00, -0.00, -1.00, 568.3, 216.7)">v</text><text xml:space="preserve" font-family="MaisonNeue-Demi,Maison Neue" font-weight="bold" font-size="62.4" fill="#000000" transform="matrix(1.00, 0.00, -0.00, -1.00, 602.7, 216.7)">i</text><text xml:space="preserve" font-family="MaisonNeue-Demi,Maison Neue" font-weight="bold" font-size="62.4" fill="#000000" transform="matrix(1.00, 0.00, -0.00, -1.00, 619.4, 216.7)">e</text><text xml:space="preserve" font-family="MaisonNeue-Demi,Maison Neue" font-weight="bold" font-size="62.4" fill="#000000" transform="matrix(1.00, 0.00, -0.00, -1.00, 654.7, 216.7)">w</text><text xml:space="preserve" font-family="MaisonNeue-Demi,Maison Neue" font-weight="bold" font-size="62.4" fill="#000000" transform="matrix(1.00, 0.00, -0.00, -1.00, 704.8, 216.7)"> </text><text xml:space="preserve" font-family="MaisonNeue-Demi,Maison Neue" font-weight="bold" font-size="62.4" fill="#000000" transform="matrix(1.00, 0.00, -0.00, -1.00, 720.4, 216.7)">+</text><text xml:space="preserve" font-family="MaisonNeue-Demi,Maison Neue" font-weight="bold" font-size="62.4" fill="#000000" transform="matrix(1.00, 0.00, -0.00, -1.00, 756.7, 216.7)">=</text><text xml:space="preserve" font-family="MaisonNeue-Demi,Maison Neue" font-weight="bold" font-size="62.4" fill="#000000" transform="matrix(1.00, 0.00, -0.00, -1.00, 792.5, 216.7)"> </text><text xml:space="preserve" font-family="MaisonNeue-Demi,Maison Neue" font-weight="bold" font-size="62.4" fill="#000000" transform="matrix(1.00, 0.00, -0.00, -1.00, 808.1, 216.7)">1</text><text xml:space="preserve" font-family="MaisonNeue-Demi,Maison Neue" font-weight="bold" font-size="62.4" fill="#000000" transform="matrix(1.00, 0.00, -0.00, -1.00, 308.6, 105.7)">(</text><text xml:space="preserve" font-family="MaisonNeue-Demi,Maison Neue" font-weight="bold" font-size="62.4" fill="#000000" transform="matrix(1.00, 0.00, -0.00, -1.00, 334.0, 105.7)">j</text><text xml:space="preserve" font-family="MaisonNeue-Demi,Maison Neue" font-weight="bold" font-size="62.4" fill="#000000" transform="matrix(1.00, 0.00, -0.00, -1.00, 350.8, 105.7)">k</text><text xml:space="preserve" font-family="MaisonNeue-Demi,Maison Neue" font-weight="bold" font-size="62.4" fill="#000000" transform="matrix(1.00, 0.00, -0.00, -1.00, 386.0, 105.7)"> </text><text xml:space="preserve" font-family="MaisonNeue-Demi,Maison Neue" font-weight="bold" font-size="62.4" fill="#000000" transform="matrix(1.00, 0.00, -0.00, -1.00, 401.6, 105.7)">t</text><text xml:space="preserve" font-family="MaisonNeue-Demi,Maison Neue" font-weight="bold" font-size="62.4" fill="#000000" transform="matrix(1.00, 0.00, -0.00, -1.00, 425.2, 105.7)">h</text><text xml:space="preserve" font-family="MaisonNeue-Demi,Maison Neue" font-weight="bold" font-size="62.4" fill="#000000" transform="matrix(1.00, 0.00, -0.00, -1.00, 462.3, 105.7)">e</text><text xml:space="preserve" font-family="MaisonNeue-Demi,Maison Neue" font-weight="bold" font-size="62.4" fill="#000000" transform="matrix(1.00, 0.00, -0.00, -1.00, 497.5, 105.7)">r</text><text xml:space="preserve" font-family="MaisonNeue-Demi,Maison Neue" font-weight="bold" font-size="62.4" fill="#000000" transform="matrix(1.00, 0.00, -0.00, -1.00, 520.1, 105.7)">e</text><text xml:space="preserve" font-family="MaisonNeue-Demi,Maison Neue" font-weight="bold" font-size="62.4" fill="#000000" transform="matrix(1.00, 0.00, -0.00, -1.00, 555.4, 105.7)">’</text><text xml:space="preserve" font-family="MaisonNeue-Demi,Maison Neue" font-weight="bold" font-size="62.4" fill="#000000" transform="matrix(1.00, 0.00, -0.00, -1.00, 572.8, 105.7)">s</text><text xml:space="preserve" font-family="MaisonNeue-Demi,Maison Neue" font-weight="bold" font-size="62.4" fill="#000000" transform="matrix(1.00, 0.00, -0.00, -1.00, 605.1, 105.7)"> </text><text xml:space="preserve" font-family="MaisonNeue-Demi,Maison Neue" font-weight="bold" font-size="62.4" fill="#000000" transform="matrix(1.00, 0.00, -0.00, -1.00, 620.7, 105.7)">o</text><text xml:space="preserve" font-family="MaisonNeue-Demi,Maison Neue" font-weight="bold" font-size="62.4" fill="#000000" transform="matrix(1.00, 0.00, -0.00, -1.00, 656.2, 105.7)">n</text><text xml:space="preserve" font-family="MaisonNeue-Demi,Maison Neue" font-weight="bold" font-size="62.4" fill="#000000" transform="matrix(1.00, 0.00, -0.00, -1.00, 693.0, 105.7)">l</text><text xml:space="preserve" font-family="MaisonNeue-Demi,Maison Neue" font-weight="bold" font-size="62.4" fill="#000000" transform="matrix(1.00, 0.00, -0.00, -1.00, 709.7, 105.7)">y</text><text xml:space="preserve" font-family="MaisonNeue-Demi,Maison Neue" font-weight="bold" font-size="62.4" fill="#000000" transform="matrix(1.00, 0.00, -0.00, -1.00, 743.3, 105.7)"> </text><text xml:space="preserve" font-family="MaisonNeue-Demi,Maison Neue" font-weight="bold" font-size="62.4" fill="#000000" transform="matrix(1.00, 0.00, -0.00, -1.00, 758.9, 105.7)">2</text><text xml:space="preserve" font-family="MaisonNeue-Demi,Maison Neue" font-weight="bold" font-size="62.4" fill="#000000" transform="matrix(1.00, 0.00, -0.00, -1.00, 795.4, 105.7)"> </text><text xml:space="preserve" font-family="MaisonNeue-Demi,Maison Neue" font-weight="bold" font-size="62.4" fill="#000000" transform="matrix(1.00, 0.00, -0.00, -1.00, 811.0, 105.7)">r</text><text xml:space="preserve" font-family="MaisonNeue-Demi,Maison Neue" font-weight="bold" font-size="62.4" fill="#000000" transform="matrix(1.00, 0.00, -0.00, -1.00, 832.3, 105.7)">o</text><text xml:space="preserve" font-family="MaisonNeue-Demi,Maison Neue" font-weight="bold" font-size="62.4" fill="#000000" transform="matrix(1.00, 0.00, -0.00, -1.00, 867.9, 105.7)">u</text><text xml:space="preserve" font-family="MaisonNeue-Demi,Maison Neue" font-weight="bold" font-size="62.4" fill="#000000" transform="matrix(1.00, 0.00, -0.00, -1.00, 903.8, 105.7)">n</text><text xml:space="preserve" font-family="MaisonNeue-Demi,Maison Neue" font-weight="bold" font-size="62.4" fill="#000000" transform="matrix(1.00, 0.00, -0.00, -1.00, 940.5, 105.7)">d</text><text xml:space="preserve" font-family="MaisonNeue-Demi,Maison Neue" font-weight="bold" font-size="62.4" fill="#000000" transform="matrix(1.00, 0.00, -0.00, -1.00, 977.8, 105.7)">s</text><text xml:space="preserve" font-family="MaisonNeue-Demi,Maison Neue" font-weight="bold" font-size="62.4" fill="#000000" transform="matrix(1.00, 0.00, -0.00, -1.00, 1010.1, 105.7)"> </text><text xml:space="preserve" font-family="MaisonNeue-Demi,Maison Neue" font-weight="bold" font-size="62.4" fill="#000000" transform="matrix(1.00, 0.00, -0.00, -1.00, 1025.7, 105.7)">t</text><text xml:space="preserve" font-family="MaisonNeue-Demi,Maison Neue" font-weight="bold" font-size="62.4" fill="#000000" transform="matrix(1.00, 0.00, -0.00, -1.00, 1049.3, 105.7)">h</text><text xml:space="preserve" font-family="MaisonNeue-Demi,Maison Neue" font-weight="bold" font-size="62.4" fill="#000000" transform="matrix(1.00, 0.00, -0.00, -1.00, 1086.4, 105.7)">a</text><text xml:space="preserve" font-family="MaisonNeue-Demi,Maison Neue" font-weight="bold" font-size="62.4" fill="#000000" transform="matrix(1.00, 0.00, -0.00, -1.00, 1120.2, 105.7)">n</text><text xml:space="preserve" font-family="MaisonNeue-Demi,Maison Neue" font-weight="bold" font-size="62.4" fill="#000000" transform="matrix(1.00, 0.00, -0.00, -1.00, 1156.9, 105.7)">k</text><text xml:space="preserve" font-family="MaisonNeue-Demi,Maison Neue" font-weight="bold" font-size="62.4" fill="#000000" transform="matrix(1.00, 0.00, -0.00, -1.00, 1192.1, 105.7)"> </text><text xml:space="preserve" font-family="MaisonNeue-Demi,Maison Neue" font-weight="bold" font-size="62.4" fill="#000000" transform="matrix(1.00, 0.00, -0.00, -1.00, 1207.7, 105.7)">g</text><text xml:space="preserve" font-family="MaisonNeue-Demi,Maison Neue" font-weight="bold" font-size="62.4" fill="#000000" transform="matrix(1.00, 0.00, -0.00, -1.00, 1245.2, 105.7)">o</text><text xml:space="preserve" font-family="MaisonNeue-Demi,Maison Neue" font-weight="bold" font-size="62.4" fill="#000000" transform="matrix(1.00, 0.00, -0.00, -1.00, 1280.8, 105.7)">o</text><text xml:space="preserve" font-family="MaisonNeue-Demi,Maison Neue" font-weight="bold" font-size="62.4" fill="#000000" transform="matrix(1.00, 0.00, -0.00, -1.00, 1316.4, 105.7)">d</text><text xml:space="preserve" font-family="MaisonNeue-Demi,Maison Neue" font-weight="bold" font-size="62.4" fill="#000000" transform="matrix(1.00, 0.00, -0.00, -1.00, 1353.7, 105.7)">n</text><text xml:space="preserve" font-family="MaisonNeue-Demi,Maison Neue" font-weight="bold" font-size="62.4" fill="#000000" transform="matrix(1.00, 0.00, -0.00, -1.00, 1390.4, 105.7)">e</text><text xml:space="preserve" font-family="MaisonNeue-Demi,Maison Neue" font-weight="bold" font-size="62.4" fill="#000000" transform="matrix(1.00, 0.00, -0.00, -1.00, 1425.7, 105.7)">s</text><text xml:space="preserve" font-family="MaisonNeue-Demi,Maison Neue" font-weight="bold" font-size="62.4" fill="#000000" transform="matrix(1.00, 0.00, -0.00, -1.00, 1457.9, 105.7)">s</text><text xml:space="preserve" font-family="MaisonNeue-Demi,Maison Neue" font-weight="bold" font-size="62.4" fill="#000000" transform="matrix(1.00, 0.00, -0.00, -1.00, 1490.2, 105.7)">)</text></g></svg>