<?xml version="1.0" encoding="UTF-8" standalone="no"?><svg xmlns="http://www.w3.org/2000/svg" xmlns:xlink="http://www.w3.org/1999/xlink" clip-rule="evenodd" stroke-miterlimit="10" viewBox="0 0 769 64"><desc>SVG generated by Keynote</desc><defs></defs><g transform="matrix(1.00, 0.00, -0.00, -1.00, 0.0, 64.0)"><text xml:space="preserve" font-family="MaisonNeue-Demi,Maison Neue" font-weight="bold" font-size="62.4" fill="#000000" transform="matrix(1.00, 0.00, -0.00, -1.00, 0.6, 14.7)">4</text><text xml:space="preserve" font-family="MaisonNeue-Demi,Maison Neue" font-weight="bold" font-size="62.4" fill="#000000" transform="matrix(1.00, 0.00, -0.00, -1.00, 36.8, 14.7)">.</text><text xml:space="preserve" font-family="MaisonNeue-Demi,Maison Neue" font-weight="bold" font-size="62.4" fill="#000000" transform="matrix(1.00, 0.00, -0.00, -1.00, 84.6, 14.7)">S</text><text xml:space="preserve" font-family="MaisonNeue-Demi,Maison Neue" font-weight="bold" font-size="62.4" fill="#000000" transform="matrix(1.00, 0.00, -0.00, -1.00, 122.3, 14.7)">e</text><text xml:space="preserve" font-family="MaisonNeue-Demi,Maison Neue" font-weight="bold" font-size="62.4" fill="#000000" transform="matrix(1.00, 0.00, -0.00, -1.00, 157.5, 14.7)">c</text><text xml:space="preserve" font-family="MaisonNeue-Demi,Maison Neue" font-weight="bold" font-size="62.4" fill="#000000" transform="matrix(1.00, 0.00, -0.00, -1.00, 191.5, 14.7)">o</text><text xml:space="preserve" font-family="MaisonNeue-Demi,Maison Neue" font-weight="bold" font-size="62.4" fill="#000000" transform="matrix(1.00, 0.00, -0.00, -1.00, 227.1, 14.7)">n</text><text xml:space="preserve" font-family="MaisonNeue-Demi,Maison Neue" font-weight="bold" font-size="62.4" fill="#000000" transform="matrix(1.00, 0.00, -0.00, -1.00, 263.9, 14.7)">d</text><text xml:space="preserve" font-family="MaisonNeue-Demi,Maison Neue" font-weight="bold" font-size="62.4" fill="#000000" transform="matrix(1.00, 0.00, -0.00, -1.00, 301.2, 14.7)"> </text><text xml:space="preserve" font-family="MaisonNeue-Demi,Maison Neue" font-weight="bold" font-size="62.4" fill="#000000" transform="matrix(1.00, 0.00, -0.00, -1.00, 316.8, 14.7)">r</text><text xml:space="preserve" font-family="MaisonNeue-Demi,Maison Neue" font-weight="bold" font-size="62.4" fill="#000000" transform="matrix(1.00, 0.00, -0.00, -1.00, 338.1, 14.7)">o</text><text xml:space="preserve" font-family="MaisonNeue-Demi,Maison Neue" font-weight="bold" font-size="62.4" fill="#000000" transform="matrix(1.00, 0.00, -0.00, -1.00, 373.7, 14.7)">u</text><text xml:space="preserve" font-family="MaisonNeue-Demi,Maison Neue" font-weight="bold" font-size="62.4" fill="#000000" transform="matrix(1.00, 0.00, -0.00, -1.00, 409.6, 14.7)">n</text><text xml:space="preserve" font-family="MaisonNeue-Demi,Maison Neue" font-weight="bold" font-size="62.4" fill="#000000" transform="matrix(1.00, 0.00, -0.00, -1.00, 446.3, 14.7)">d</text><text xml:space="preserve" font-family="MaisonNeue-Demi,Maison Neue" font-weight="bold" font-size="62.4" fill="#000000" transform="matrix(1.00, 0.00, -0.00, -1.00, 483.6, 14.7)"> </text><text xml:space="preserve" font-family="MaisonNeue-Demi,Maison Neue" font-weight="bold" font-size="62.4" fill="#000000" transform="matrix(1.00, 0.00, -0.00, -1.00, 499.2, 14.7)">i</text><text xml:space="preserve" font-family="MaisonNeue-Demi,Maison Neue" font-weight="bold" font-size="62.4" fill="#000000" transform="matrix(1.00, 0.00, -0.00, -1.00, 516.0, 14.7)">n</text><text xml:space="preserve" font-family="MaisonNeue-Demi,Maison Neue" font-weight="bold" font-size="62.4" fill="#000000" transform="matrix(1.00, 0.00, -0.00, -1.00, 552.7, 14.7)">t</text><text xml:space="preserve" font-family="MaisonNeue-Demi,Maison Neue" font-weight="bold" font-size="62.4" fill="#000000" transform="matrix(1.00, 0.00, -0.00, -1.00, 575.1, 14.7)">e</text><text xml:space="preserve" font-family="MaisonNeue-Demi,Maison Neue" font-weight="bold" font-size="62.4" fill="#000000" transform="matrix(1.00, 0.00, -0.00, -1.00, 610.4, 14.7)">r</text><text xml:space="preserve" font-family="MaisonNeue-Demi,Maison Neue" font-weight="bold" font-size="62.4" fill="#000000" transform="matrix(1.00, 0.00, -0.00, -1.00, 633.0, 14.7)">v</text><text xml:space="preserve" font-family="MaisonNeue-Demi,Maison Neue" font-weight="bold" font-size="62.4" fill="#000000" transform="matrix(1.00, 0.00, -0.00, -1.00, 667.3, 14.7)">i</text><text xml:space="preserve" font-family="MaisonNeue-Demi,Maison Neue" font-weight="bold" font-size="62.4" fill="#000000" transform="matrix(1.00, 0.00, -0.00, -1.00, 684.1, 14.7)">e</text><text xml:space="preserve" font-family="MaisonNeue-Demi,Maison Neue" font-weight="bold" font-size="62.4" fill="#000000" transform="matrix(1.00, 0.00, -0.00, -1.00, 719.3, 14.7)">w</text></g></svg>