<?xml version="1.0" encoding="UTF-8" standalone="no"?><svg xmlns="http://www.w3.org/2000/svg" xmlns:xlink="http://www.w3.org/1999/xlink" clip-rule="evenodd" stroke-miterlimit="10" viewBox="0 0 408 64"><desc>SVG generated by Keynote</desc><defs></defs><g transform="matrix(1.00, 0.00, -0.00, -1.00, 0.0, 64.0)"><text xml:space="preserve" font-family="MaisonNeue-Demi,Maison Neue" font-weight="bold" font-size="62.4" fill="#000000" transform="matrix(1.00, 0.00, -0.00, -1.00, 0.6, 14.7)">5</text><text xml:space="preserve" font-family="MaisonNeue-Demi,Maison Neue" font-weight="bold" font-size="62.4" fill="#000000" transform="matrix(1.00, 0.00, -0.00, -1.00, 37.3, 14.7)">.</text><text xml:space="preserve" font-family="MaisonNeue-Demi,Maison Neue" font-weight="bold" font-size="62.4" fill="#000000" transform="matrix(1.00, 0.00, -0.00, -1.00, 84.6, 14.7)">w</text><text xml:space="preserve" font-family="MaisonNeue-Demi,Maison Neue" font-weight="bold" font-size="62.4" fill="#000000" transform="matrix(1.00, 0.00, -0.00, -1.00, 134.7, 14.7)">h</text><text xml:space="preserve" font-family="MaisonNeue-Demi,Maison Neue" font-weight="bold" font-size="62.4" fill="#000000" transform="matrix(1.00, 0.00, -0.00, -1.00, 171.8, 14.7)">i</text><text xml:space="preserve" font-family="MaisonNeue-Demi,Maison Neue" font-weight="bold" font-size="62.4" fill="#000000" transform="matrix(1.00, 0.00, -0.00, -1.00, 188.5, 14.7)">l</text><text xml:space="preserve" font-family="MaisonNeue-Demi,Maison Neue" font-weight="bold" font-size="62.4" fill="#000000" transform="matrix(1.00, 0.00, -0.00, -1.00, 205.2, 14.7)">e</text><text xml:space="preserve" font-family="MaisonNeue-Demi,Maison Neue" font-weight="bold" font-size="62.4" fill="#000000" transform="matrix(1.00, 0.00, -0.00, -1.00, 240.5, 14.7)"> </text><text xml:space="preserve" font-family="MaisonNeue-Demi,Maison Neue" font-weight="bold" font-size="62.4" fill="#000000" transform="matrix(1.00, 0.00, -0.00, -1.00, 256.1, 14.7)">a</text><text xml:space="preserve" font-family="MaisonNeue-Demi,Maison Neue" font-weight="bold" font-size="62.4" fill="#000000" transform="matrix(1.00, 0.00, -0.00, -1.00, 289.8, 14.7)">l</text><text xml:space="preserve" font-family="MaisonNeue-Demi,Maison Neue" font-weight="bold" font-size="62.4" fill="#000000" transform="matrix(1.00, 0.00, -0.00, -1.00, 306.5, 14.7)">i</text><text xml:space="preserve" font-family="MaisonNeue-Demi,Maison Neue" font-weight="bold" font-size="62.4" fill="#000000" transform="matrix(1.00, 0.00, -0.00, -1.00, 323.3, 14.7)">v</text><text xml:space="preserve" font-family="MaisonNeue-Demi,Maison Neue" font-weight="bold" font-size="62.4" fill="#000000" transform="matrix(1.00, 0.00, -0.00, -1.00, 356.4, 14.7)">e</text><text xml:space="preserve" font-family="MaisonNeue-Demi,Maison Neue" font-weight="bold" font-size="62.4" fill="#000000" transform="matrix(1.00, 0.00, -0.00, -1.00, 391.7, 14.7)">:</text></g></svg>