<?xml version="1.0" encoding="UTF-8" standalone="no"?><svg xmlns="http://www.w3.org/2000/svg" xmlns:xlink="http://www.w3.org/1999/xlink" clip-rule="evenodd" stroke-miterlimit="10" viewBox="0 0 393 50"><desc>SVG generated by Keynote</desc><defs></defs><g transform="matrix(1.00, 0.00, -0.00, -1.00, 0.0, 50.0)"><text xml:space="preserve" font-family="MaisonNeue-Demi,Maison Neue" font-weight="bold" font-size="62.4" fill="#000000" transform="matrix(1.00, 0.00, -0.00, -1.00, -2.4, 2.7)">i</text><text xml:space="preserve" font-family="MaisonNeue-Demi,Maison Neue" font-weight="bold" font-size="62.4" fill="#000000" transform="matrix(1.00, 0.00, -0.00, -1.00, 14.3, 2.7)">n</text><text xml:space="preserve" font-family="MaisonNeue-Demi,Maison Neue" font-weight="bold" font-size="62.4" fill="#000000" transform="matrix(1.00, 0.00, -0.00, -1.00, 51.1, 2.7)">t</text><text xml:space="preserve" font-family="MaisonNeue-Demi,Maison Neue" font-weight="bold" font-size="62.4" fill="#000000" transform="matrix(1.00, 0.00, -0.00, -1.00, 73.5, 2.7)">e</text><text xml:space="preserve" font-family="MaisonNeue-Demi,Maison Neue" font-weight="bold" font-size="62.4" fill="#000000" transform="matrix(1.00, 0.00, -0.00, -1.00, 108.7, 2.7)">r</text><text xml:space="preserve" font-family="MaisonNeue-Demi,Maison Neue" font-weight="bold" font-size="62.4" fill="#000000" transform="matrix(1.00, 0.00, -0.00, -1.00, 131.3, 2.7)">v</text><text xml:space="preserve" font-family="MaisonNeue-Demi,Maison Neue" font-weight="bold" font-size="62.4" fill="#000000" transform="matrix(1.00, 0.00, -0.00, -1.00, 165.7, 2.7)">i</text><text xml:space="preserve" font-family="MaisonNeue-Demi,Maison Neue" font-weight="bold" font-size="62.4" fill="#000000" transform="matrix(1.00, 0.00, -0.00, -1.00, 182.4, 2.7)">e</text><text xml:space="preserve" font-family="MaisonNeue-Demi,Maison Neue" font-weight="bold" font-size="62.4" fill="#000000" transform="matrix(1.00, 0.00, -0.00, -1.00, 217.7, 2.7)">w</text><text xml:space="preserve" font-family="MaisonNeue-Demi,Maison Neue" font-weight="bold" font-size="62.4" fill="#000000" transform="matrix(1.00, 0.00, -0.00, -1.00, 267.8, 2.7)"> </text><text xml:space="preserve" font-family="MaisonNeue-Demi,Maison Neue" font-weight="bold" font-size="62.4" fill="#000000" transform="matrix(1.00, 0.00, -0.00, -1.00, 283.4, 2.7)">+</text><text xml:space="preserve" font-family="MaisonNeue-Demi,Maison Neue" font-weight="bold" font-size="62.4" fill="#000000" transform="matrix(1.00, 0.00, -0.00, -1.00, 319.7, 2.7)">=</text><text xml:space="preserve" font-family="MaisonNeue-Demi,Maison Neue" font-weight="bold" font-size="62.4" fill="#000000" transform="matrix(1.00, 0.00, -0.00, -1.00, 355.5, 2.7)"> </text><text xml:space="preserve" font-family="MaisonNeue-Demi,Maison Neue" font-weight="bold" font-size="62.4" fill="#000000" transform="matrix(1.00, 0.00, -0.00, -1.00, 371.1, 2.7)">1</text></g></svg>