<?xml version="1.0" encoding="UTF-8" standalone="no"?><svg xmlns="http://www.w3.org/2000/svg" xmlns:xlink="http://www.w3.org/1999/xlink" clip-rule="evenodd" stroke-miterlimit="10" viewBox="0 0 1199 68"><desc>SVG generated by Keynote</desc><defs></defs><g transform="matrix(1.00, 0.00, -0.00, -1.00, 0.0, 68.0)"><text xml:space="preserve" font-family="MaisonNeue-Demi,Maison Neue" font-weight="bold" font-size="62.4" fill="#000000" transform="matrix(1.00, 0.00, -0.00, -1.00, -2.4, 16.7)">(</text><text xml:space="preserve" font-family="MaisonNeue-Demi,Maison Neue" font-weight="bold" font-size="62.4" fill="#000000" transform="matrix(1.00, 0.00, -0.00, -1.00, 23.0, 16.7)">j</text><text xml:space="preserve" font-family="MaisonNeue-Demi,Maison Neue" font-weight="bold" font-size="62.4" fill="#000000" transform="matrix(1.00, 0.00, -0.00, -1.00, 39.8, 16.7)">k</text><text xml:space="preserve" font-family="MaisonNeue-Demi,Maison Neue" font-weight="bold" font-size="62.4" fill="#000000" transform="matrix(1.00, 0.00, -0.00, -1.00, 75.0, 16.7)"> </text><text xml:space="preserve" font-family="MaisonNeue-Demi,Maison Neue" font-weight="bold" font-size="62.4" fill="#000000" transform="matrix(1.00, 0.00, -0.00, -1.00, 90.6, 16.7)">t</text><text xml:space="preserve" font-family="MaisonNeue-Demi,Maison Neue" font-weight="bold" font-size="62.4" fill="#000000" transform="matrix(1.00, 0.00, -0.00, -1.00, 114.2, 16.7)">h</text><text xml:space="preserve" font-family="MaisonNeue-Demi,Maison Neue" font-weight="bold" font-size="62.4" fill="#000000" transform="matrix(1.00, 0.00, -0.00, -1.00, 151.3, 16.7)">e</text><text xml:space="preserve" font-family="MaisonNeue-Demi,Maison Neue" font-weight="bold" font-size="62.4" fill="#000000" transform="matrix(1.00, 0.00, -0.00, -1.00, 186.5, 16.7)">r</text><text xml:space="preserve" font-family="MaisonNeue-Demi,Maison Neue" font-weight="bold" font-size="62.4" fill="#000000" transform="matrix(1.00, 0.00, -0.00, -1.00, 209.1, 16.7)">e</text><text xml:space="preserve" font-family="MaisonNeue-Demi,Maison Neue" font-weight="bold" font-size="62.4" fill="#000000" transform="matrix(1.00, 0.00, -0.00, -1.00, 244.4, 16.7)">’</text><text xml:space="preserve" font-family="MaisonNeue-Demi,Maison Neue" font-weight="bold" font-size="62.4" fill="#000000" transform="matrix(1.00, 0.00, -0.00, -1.00, 261.8, 16.7)">s</text><text xml:space="preserve" font-family="MaisonNeue-Demi,Maison Neue" font-weight="bold" font-size="62.4" fill="#000000" transform="matrix(1.00, 0.00, -0.00, -1.00, 294.1, 16.7)"> </text><text xml:space="preserve" font-family="MaisonNeue-Demi,Maison Neue" font-weight="bold" font-size="62.4" fill="#000000" transform="matrix(1.00, 0.00, -0.00, -1.00, 309.7, 16.7)">o</text><text xml:space="preserve" font-family="MaisonNeue-Demi,Maison Neue" font-weight="bold" font-size="62.4" fill="#000000" transform="matrix(1.00, 0.00, -0.00, -1.00, 345.2, 16.7)">n</text><text xml:space="preserve" font-family="MaisonNeue-Demi,Maison Neue" font-weight="bold" font-size="62.4" fill="#000000" transform="matrix(1.00, 0.00, -0.00, -1.00, 382.0, 16.7)">l</text><text xml:space="preserve" font-family="MaisonNeue-Demi,Maison Neue" font-weight="bold" font-size="62.4" fill="#000000" transform="matrix(1.00, 0.00, -0.00, -1.00, 398.7, 16.7)">y</text><text xml:space="preserve" font-family="MaisonNeue-Demi,Maison Neue" font-weight="bold" font-size="62.4" fill="#000000" transform="matrix(1.00, 0.00, -0.00, -1.00, 432.3, 16.7)"> </text><text xml:space="preserve" font-family="MaisonNeue-Demi,Maison Neue" font-weight="bold" font-size="62.4" fill="#000000" transform="matrix(1.00, 0.00, -0.00, -1.00, 447.9, 16.7)">2</text><text xml:space="preserve" font-family="MaisonNeue-Demi,Maison Neue" font-weight="bold" font-size="62.4" fill="#000000" transform="matrix(1.00, 0.00, -0.00, -1.00, 484.4, 16.7)"> </text><text xml:space="preserve" font-family="MaisonNeue-Demi,Maison Neue" font-weight="bold" font-size="62.4" fill="#000000" transform="matrix(1.00, 0.00, -0.00, -1.00, 500.0, 16.7)">r</text><text xml:space="preserve" font-family="MaisonNeue-Demi,Maison Neue" font-weight="bold" font-size="62.4" fill="#000000" transform="matrix(1.00, 0.00, -0.00, -1.00, 521.3, 16.7)">o</text><text xml:space="preserve" font-family="MaisonNeue-Demi,Maison Neue" font-weight="bold" font-size="62.4" fill="#000000" transform="matrix(1.00, 0.00, -0.00, -1.00, 556.9, 16.7)">u</text><text xml:space="preserve" font-family="MaisonNeue-Demi,Maison Neue" font-weight="bold" font-size="62.4" fill="#000000" transform="matrix(1.00, 0.00, -0.00, -1.00, 592.8, 16.7)">n</text><text xml:space="preserve" font-family="MaisonNeue-Demi,Maison Neue" font-weight="bold" font-size="62.4" fill="#000000" transform="matrix(1.00, 0.00, -0.00, -1.00, 629.5, 16.7)">d</text><text xml:space="preserve" font-family="MaisonNeue-Demi,Maison Neue" font-weight="bold" font-size="62.4" fill="#000000" transform="matrix(1.00, 0.00, -0.00, -1.00, 666.8, 16.7)">s</text><text xml:space="preserve" font-family="MaisonNeue-Demi,Maison Neue" font-weight="bold" font-size="62.4" fill="#000000" transform="matrix(1.00, 0.00, -0.00, -1.00, 699.1, 16.7)"> </text><text xml:space="preserve" font-family="MaisonNeue-Demi,Maison Neue" font-weight="bold" font-size="62.4" fill="#000000" transform="matrix(1.00, 0.00, -0.00, -1.00, 714.7, 16.7)">t</text><text xml:space="preserve" font-family="MaisonNeue-Demi,Maison Neue" font-weight="bold" font-size="62.4" fill="#000000" transform="matrix(1.00, 0.00, -0.00, -1.00, 738.3, 16.7)">h</text><text xml:space="preserve" font-family="MaisonNeue-Demi,Maison Neue" font-weight="bold" font-size="62.4" fill="#000000" transform="matrix(1.00, 0.00, -0.00, -1.00, 775.4, 16.7)">a</text><text xml:space="preserve" font-family="MaisonNeue-Demi,Maison Neue" font-weight="bold" font-size="62.4" fill="#000000" transform="matrix(1.00, 0.00, -0.00, -1.00, 809.2, 16.7)">n</text><text xml:space="preserve" font-family="MaisonNeue-Demi,Maison Neue" font-weight="bold" font-size="62.4" fill="#000000" transform="matrix(1.00, 0.00, -0.00, -1.00, 845.9, 16.7)">k</text><text xml:space="preserve" font-family="MaisonNeue-Demi,Maison Neue" font-weight="bold" font-size="62.4" fill="#000000" transform="matrix(1.00, 0.00, -0.00, -1.00, 881.1, 16.7)"> </text><text xml:space="preserve" font-family="MaisonNeue-Demi,Maison Neue" font-weight="bold" font-size="62.4" fill="#000000" transform="matrix(1.00, 0.00, -0.00, -1.00, 896.7, 16.7)">g</text><text xml:space="preserve" font-family="MaisonNeue-Demi,Maison Neue" font-weight="bold" font-size="62.4" fill="#000000" transform="matrix(1.00, 0.00, -0.00, -1.00, 934.2, 16.7)">o</text><text xml:space="preserve" font-family="MaisonNeue-Demi,Maison Neue" font-weight="bold" font-size="62.4" fill="#000000" transform="matrix(1.00, 0.00, -0.00, -1.00, 969.8, 16.7)">o</text><text xml:space="preserve" font-family="MaisonNeue-Demi,Maison Neue" font-weight="bold" font-size="62.4" fill="#000000" transform="matrix(1.00, 0.00, -0.00, -1.00, 1005.4, 16.7)">d</text><text xml:space="preserve" font-family="MaisonNeue-Demi,Maison Neue" font-weight="bold" font-size="62.4" fill="#000000" transform="matrix(1.00, 0.00, -0.00, -1.00, 1042.7, 16.7)">n</text><text xml:space="preserve" font-family="MaisonNeue-Demi,Maison Neue" font-weight="bold" font-size="62.4" fill="#000000" transform="matrix(1.00, 0.00, -0.00, -1.00, 1079.4, 16.7)">e</text><text xml:space="preserve" font-family="MaisonNeue-Demi,Maison Neue" font-weight="bold" font-size="62.4" fill="#000000" transform="matrix(1.00, 0.00, -0.00, -1.00, 1114.7, 16.7)">s</text><text xml:space="preserve" font-family="MaisonNeue-Demi,Maison Neue" font-weight="bold" font-size="62.4" fill="#000000" transform="matrix(1.00, 0.00, -0.00, -1.00, 1146.9, 16.7)">s</text><text xml:space="preserve" font-family="MaisonNeue-Demi,Maison Neue" font-weight="bold" font-size="62.4" fill="#000000" transform="matrix(1.00, 0.00, -0.00, -1.00, 1179.2, 16.7)">)</text></g></svg>